SplineFontDB: 3.0
FontName: Oswald-HeavyPole
FullName: Oswald-HeavyPole
FamilyName: Oswald
Weight: Heavy
Version: 1
ItalicAngle: 0
UnderlinePosition: -240
UnderlineWidth: 125
Ascent: 1638
Descent: 410
UFOAscent: 1626
UFODescent: -250
LayerCount: 2
Layer: 0 0 "Back"  1
Layer: 1 0 "Fore"  0
OS2Version: 0
OS2_WeightWidthSlopeOnly: 0
OS2_UseTypoMetrics: 0
CreationTime: 1369144840
ModificationTime: 1369157750
PfmFamily: 0
TTFWeight: 800
TTFWidth: 5
LineGap: 0
VLineGap: 0
OS2TypoAscent: 2444
OS2TypoAOffset: 0
OS2TypoDescent: -591
OS2TypoDOffset: 0
OS2TypoLinegap: 0
OS2WinAscent: 2444
OS2WinAOffset: 0
OS2WinDescent: 591
OS2WinDOffset: 0
HheadAscent: 0
HheadAOffset: 1
HheadDescent: 0
HheadDOffset: 1
OS2Vendor: 'newt'
Lookup: 258 0 0 "'kern' Horizontal Kerning in Latin lookup 0"  {"'kern' Horizontal Kerning in Latin lookup 0 subtable"  } ['kern' ('latn' <'dflt' > ) ]
Lookup: 258 0 0 "kernHorizontalKerninginLatinloo"  {"kernHorizontalKerninginLatinloo subtable"  } ['kern' ('latn' <'dflt' > ) ]
Lookup: 258 0 0 "pos_pair_kernlatn_0"  {"pos_pair_kernlatn_0 subtable"  } ['kern' ('latn' <'dflt' > ) ]
Lookup: 258 0 0 "pos_pair_kernlatn_2"  {"pos_pair_kernlatn_2 subtable"  } ['kern' ('latn' <'dflt' > ) ]
DEI: 91125
LangName: 1033 "" "" "" "" "" "Version 1" 
Encoding: Custom
UnicodeInterp: none
NameList: AGL For New Fonts
DisplaySize: -72
AntiAlias: 1
FitToEm: 1
WinInfo: 0 16 7
BeginPrivate: 4
BlueValues 27 [-66 0 2923 2989 4199 4257]
OtherBlues 11 [-959 -939]
BlueShift 1 0
BlueScale 19 0.08945421317038466
EndPrivate
BeginChars: 598 533

StartChar: A
Encoding: 65 65 0
Width: 1076
VWidth: 0
GlyphClass: 2
Flags: W
HStem: 0 21G<0 391.927 695.911 1076> 328 236<469.794 613.986>
LayerCount: 2
UndoRedoHistory
Layer: 1
Undoes
EndUndoes
Redoes
EndRedoes
EndUndoRedoHistory
Fore
SplineSet
0 0 m 1
 298 1626 l 1
 780 1626 l 1
 1076 0 l 1
 699 0 l 1
 648.333333333 328 l 1
 437 328 l 1
 389 0 l 1
 0 0 l 1
469.79389313 564 m 1
 613.986259542 564 l 1
 541 1147 l 1
 469.79389313 564 l 1
EndSplineSet
EndChar

StartChar: AE
Encoding: 256 198 1
Width: 1539
VWidth: 0
GlyphClass: 2
Flags: W
HStem: 0 275<1198 1522> 321 251<678 852> 713 286<1198 1426> 1349 277<1198 1522>
VStem: 852 346<275 321 572 713 999 1044>
LayerCount: 2
UndoRedoHistory
Layer: 1
Undoes
EndUndoes
Redoes
EndRedoes
EndUndoRedoHistory
Fore
SplineSet
678 572 m 1
 852 572 l 1
 852 1044 l 1
 678 572 l 1
52 0 m 1
 782 1626 l 1
 1522 1626 l 1
 1522 1349 l 1
 1198 1349 l 1
 1198 999 l 1
 1426 999 l 1
 1426 713 l 1
 1198 713 l 1
 1198 275 l 1
 1522 275 l 1
 1522 0 l 1
 852 0 l 1
 852 321 l 1
 598 321 l 1
 470 0 l 1
 52 0 l 1
EndSplineSet
EndChar

StartChar: B
Encoding: 66 66 11
Width: 1184
VWidth: 0
GlyphClass: 2
Flags: W
HStem: 0 21<88 500> 0 287<308 696.182> 730 262<308 692.823> 1356 270<308 681.666>
VStem: 88 412<0 1626> 735 360<1036.52 1301.49> 751 398<340.625 681.75>
LayerCount: 2
UndoRedoHistory
Layer: 1
Undoes
EndUndoes
Redoes
EndRedoes
EndUndoRedoHistory
Fore
SplineSet
308 0 m 1xba
 308 287 l 1
 552 287 l 2
 701 287 751 359 751 500 c 0x7a
 751 678 703 730 555 730 c 2
 308 730 l 1
 308 992 l 1
 552 992 l 2
 707 992 735 1068 735 1188 c 0
 735 1284 672 1356 569 1356 c 2
 308 1356 l 1
 308 1626 l 1
 539 1626 l 2
 817 1626 1105 1597 1095 1199 c 0x7c
 1090 1001 997 908 852 878 c 1
 1040 862 1145 727 1149 493 c 0
 1155 130 948 0 622 0 c 2x7a
 308 0 l 1xba
EndSplineSet
Refer: 372 -1 N 1 0 0 1 7 0 2
EndChar

StartChar: C
Encoding: 67 67 12
Width: 1143
VWidth: 0
GlyphClass: 2
Flags: W
HStem: -35 284<500.054 645.918> 1368 284<500.054 645.918>
VStem: 66 411<265.269 1351.73> 669 406<273.391 575 1046 1343.61>
LayerCount: 2
UndoRedoHistory
Layer: 1
Undoes
EndUndoes
Redoes
EndRedoes
EndUndoRedoHistory
Fore
SplineSet
573 -35 m 0
 186 -35 66 193 66 540 c 2
 66 1077 l 2
 66 1424 186 1652 573 1652 c 0
 960 1652 1075 1424 1075 1149 c 2
 1075 1046 l 1
 669 1046 l 1
 669 1209 l 2
 669 1275 663 1368 573 1368 c 0
 483 1368 477 1275 477 1209 c 2
 477 409 l 2
 477 343 483 249 573 249 c 0
 663 249 669 343 669 409 c 2
 669 575 l 1
 1075 575 l 1
 1075 468 l 2
 1075 193 960 -35 573 -35 c 0
EndSplineSet
EndChar

StartChar: D
Encoding: 68 68 18
Width: 1185
VWidth: 0
GlyphClass: 2
Flags: W
HStem: 0 21<88 500> 0 284<384 663.512> 1342 284<384 663.448>
VStem: 88 412<0 1626> 690 429<312.405 1313.6>
LayerCount: 2
UndoRedoHistory
Layer: 1
Undoes
EndUndoes
Redoes
EndRedoes
EndUndoRedoHistory
Fore
SplineSet
384 1342 m 1x78
 384 1626 l 1
 525 1626 l 2
 981 1626 1119 1477 1119 1096 c 2
 1119 530 l 1
 1121 149 981 0 525 0 c 2x78
 384 0 l 1xb8
 384 284 l 1
 541 284 l 2
 676 284 690 327 690 435 c 2
 690 1192 l 2
 690 1300 676 1342 541 1342 c 2
 384 1342 l 1x78
EndSplineSet
Refer: 372 -1 N 1 0 0 1 7 0 2
EndChar

StartChar: E
Encoding: 69 69 21
Width: 887
VWidth: 0
GlyphClass: 2
Flags: W
HStem: 0 21<88 500> 0 275<297 853> 713 286<297 754> 1350 276<297 849>
VStem: 88 412<0 1626> 297 552<0 275 1350 1626> 297 457<713 999>
LayerCount: 2
UndoRedoHistory
Layer: 1
Undoes
EndUndoes
Redoes
EndRedoes
EndUndoRedoHistory
Fore
SplineSet
297 1350 m 1x34
 297 1626 l 1
 849 1626 l 1
 849 1350 l 1
 297 1350 l 1x34
297 713 m 1x32
 297 999 l 1
 754 999 l 1
 754 713 l 1
 297 713 l 1x32
297 0 m 1xb4
 297 275 l 1
 853 275 l 1
 853 0 l 1x74
 297 0 l 1xb4
EndSplineSet
Refer: 372 -1 N 1 0 0 1 7 0 2
EndChar

StartChar: Eng
Encoding: 280 330 29
Width: 1106
VWidth: 0
GlyphClass: 2
Flags: W
HStem: -444 237<421 609.229> 0 21G<88 442>
VStem: 88 354<0 767> 643 375<-170.838 242.622> 677 341<962 1626>
LayerCount: 2
UndoRedoHistory
Layer: 1
Undoes
EndUndoes
Redoes
EndRedoes
EndUndoRedoHistory
Fore
SplineSet
421 -444 m 1xf0
 421 -207 l 1
 596 -210 643 -167 643 -48 c 2
 643 242.62244898 l 1xf0
 442 767 l 1
 442 0 l 1
 88 0 l 1
 88 1626 l 1
 381 1626 l 1
 677 962 l 1
 677 1626 l 1
 1018 1626 l 1xe8
 1018 1 l 1
 1018 0 l 1
 1017.99970231 0 l 1
 1017.82607131 -291.349305506 941.634504467 -444 622 -444 c 2
 421 -444 l 1xf0
EndSplineSet
EndChar

StartChar: Eth
Encoding: 282 208 31
Width: 1185
VWidth: 0
GlyphClass: 2
Flags: W
HStem: 0 21<88 500> 0 284<384 663.512> 746 200<10 581> 1342 284<384 663.448>
VStem: 88 412<0 1626> 690 429<312.405 1313.6>
LayerCount: 2
UndoRedoHistory
Layer: 1
Undoes
EndUndoes
Redoes
EndRedoes
EndUndoRedoHistory
Fore
SplineSet
10 746 m 1x3c
 10 946 l 1
 581 946 l 1
 581 746 l 1
 10 746 l 1x3c
EndSplineSet
Refer: 18 68 N 1 0 0 1 0 0 2
EndChar

StartChar: Euro
Encoding: 283 8364 32
Width: 1191
VWidth: 0
GlyphClass: 2
Flags: W
HStem: -35 284<548.054 693.918> 657 114<28 172 236 696> 865 114<28 172 236 696> 1368 284<548.054 693.918>
VStem: 114 411<265.269 1351.73> 172 64<771 865> 717 406<273.391 575 1046 1343.61>
LayerCount: 2
UndoRedoHistory
Layer: 0
Undoes
EndUndoes
Redoes
EndRedoes
EndUndoRedoHistory
UndoRedoHistory
Layer: 1
Undoes
EndUndoes
Redoes
EndRedoes
EndUndoRedoHistory
Fore
SplineSet
696 657 m 1xf6
 28 657 l 1
 28 771 l 1
 172 771 l 1
 172 865 l 1
 28 865 l 1
 28 979 l 1
 696 979 l 1
 696 865 l 1
 236 865 l 1
 236 771 l 1
 696 771 l 1
 696 657 l 1xf6
EndSplineSet
Refer: 12 67 N 1 0 0 1 48 0 2
EndChar

StartChar: F
Encoding: 70 70 33
Width: 825
VWidth: 0
GlyphClass: 2
Flags: W
HStem: 0 21<88 500> 713 286<311 774> 1350 276<304 821>
VStem: 88 412<0 1626> 311 463<713 999>
LayerCount: 2
UndoRedoHistory
Layer: 1
Undoes
EndUndoes
Redoes
EndRedoes
EndUndoRedoHistory
Fore
SplineSet
304 1350 m 1xe0
 304 1626 l 1
 821 1626 l 1
 821 1350 l 1
 304 1350 l 1xe0
311 713 m 1xe8
 311 999 l 1
 774 999 l 1
 774 713 l 1
 311 713 l 1xe8
EndSplineSet
Refer: 372 -1 N 1 0 0 1 7 0 2
EndChar

StartChar: G
Encoding: 71 71 34
Width: 1173
VWidth: 0
GlyphClass: 2
Flags: W
HStem: -36 285<510.305 673.345> 0 21G<796.661 1068> 640 235<575 705> 1368 284<501.054 646.918>
VStem: 67 411<282.921 1351.73> 670 406<1046 1343.61> 705 363<277.367 640>
LayerCount: 2
UndoRedoHistory
Layer: 1
Undoes
EndUndoes
Redoes
EndRedoes
EndUndoRedoHistory
Fore
SplineSet
800 0 m 1x7a
 786.629106581 80.0846142692 l 1
 733.745427817 12.3232428521 653.061570395 -36 530 -36 c 0
 175 -36 67 205 67 540 c 2
 67 1077 l 2
 67 1424 187 1652 574 1652 c 0
 961 1652 1076 1424 1076 1149 c 2
 1076 1046 l 1
 670 1046 l 1
 670 1209 l 2
 670 1275 664 1368 574 1368 c 0
 484 1368 478 1275 478 1209 c 2
 478 409 l 2
 478 343 500 249 590 249 c 0xbc
 680 249 705 343 705 409 c 2
 705 569 l 1
 705 575 l 1
 705 640 l 1
 575 640 l 1
 575 875 l 1
 1068 875 l 1
 1068 0 l 1
 800 0 l 1x7a
EndSplineSet
EndChar

StartChar: H
Encoding: 72 72 39
Width: 1168
VWidth: 0
GlyphClass: 2
Flags: W
HStem: 0 21<88 500 668 1080> 709 295<301 874>
VStem: 88 412<0 1626> 668 412<0 1626>
LayerCount: 2
UndoRedoHistory
Layer: 1
Undoes
EndUndoes
Redoes
EndRedoes
EndUndoRedoHistory
Fore
SplineSet
301 709 m 1
 301 1004 l 1
 874 1004 l 1
 874 709 l 1
 301 709 l 1
EndSplineSet
Refer: 372 -1 N 1 0 0 1 587 0 2
Refer: 372 -1 N 1 0 0 1 7 0 2
EndChar

StartChar: Hbar
Encoding: 288 294 40
Width: 1092
VWidth: 0
GlyphClass: 2
Flags: W
HStem: 0 21<50 462 630 1042> 709 295<263 836> 1257 112<-45.5 1137.5>
VStem: 50 412<0 1626> 630 412<0 1626>
LayerCount: 2
UndoRedoHistory
Layer: 0
Undoes
EndUndoes
Redoes
EndRedoes
EndUndoRedoHistory
UndoRedoHistory
Layer: 1
Undoes
EndUndoes
Redoes
EndRedoes
EndUndoRedoHistory
Fore
SplineSet
1137.5 1257 m 1
 -45.5 1257 l 1
 -45.5 1369 l 1
 1137.5 1369 l 1
 1137.5 1257 l 1
EndSplineSet
Refer: 39 72 N 1 0 0 1 -38 0 2
EndChar

StartChar: J
Encoding: 74 74 53
Width: 681
VWidth: 0
GlyphClass: 2
Flags: W
HStem: -44 286<-4 148.389>
VStem: -4 597<123.276 242> 181 412<362 1626>
LayerCount: 2
UndoRedoHistory
Layer: 1
Undoes
EndUndoes
Redoes
EndRedoes
EndUndoRedoHistory
Fore
SplineSet
-4 -44 m 1xc0
 -4 242 l 1xc0
 128 239 181 282 181 401 c 1
 593 401 l 1xa0
 593 109 517 -44 197 -44 c 2
 -4 -44 l 1xc0
EndSplineSet
Refer: 373 -1 N 1 0 0 1 100 0 2
EndChar

StartChar: K
Encoding: 75 75 55
Width: 1146
VWidth: 0
GlyphClass: 2
Flags: W
HStem: 0 21G<88 500 723.919 1155>
VStem: 88 412<0 1626>
LayerCount: 2
UndoRedoHistory
Layer: 1
Undoes
EndUndoes
Redoes
EndRedoes
EndUndoRedoHistory
Fore
SplineSet
307 458 m 1
 307 496 l 1
 747 1626 l 1
 1153 1626 l 1
 853 884 l 1
 1155 0 l 1
 730 0 l 1
 519 694 l 1
 307 458 l 1
EndSplineSet
Refer: 372 -1 N 1 0 0 1 7 0 2
EndChar

StartChar: L
Encoding: 76 76 57
Width: 916
VWidth: 0
GlyphClass: 2
Flags: W
HStem: 0 21<88 500> 0 275<297 867>
VStem: 88 412<0 1626>
LayerCount: 2
UndoRedoHistory
Layer: 1
Undoes
EndUndoes
Redoes
EndRedoes
EndUndoRedoHistory
Fore
SplineSet
297 0 m 1xa0
 297 275 l 1
 867 275 l 1
 867 0 l 1x60
 297 0 l 1xa0
EndSplineSet
Refer: 372 -1 N 1 0 0 1 7 0 2
EndChar

StartChar: Lslash
Encoding: 306 321 62
Width: 960
VWidth: 0
GlyphClass: 2
Flags: W
HStem: 0 21<132 544> 0 275<341 911>
VStem: 132 412<0 1626>
LayerCount: 2
UndoRedoHistory
Layer: 0
Undoes
EndUndoes
Redoes
EndRedoes
EndUndoRedoHistory
UndoRedoHistory
Layer: 1
Undoes
EndUndoes
Redoes
EndRedoes
EndUndoRedoHistory
Fore
SplineSet
752 997 m 1x20
 26 668 l 1
 26 876 l 1
 752 1205 l 1
 752 997 l 1x20
EndSplineSet
Refer: 57 76 N 1 0 0 1 44 0 2
EndChar

StartChar: M
Encoding: 77 77 63
Width: 1396
VWidth: 0
GlyphClass: 2
Flags: W
HStem: 0 21G<76 366.534 569.587 840.176 1033.38 1320>
VStem: 76 290<0 537.088> 103 291<762.654 1049> 1002 291<762.654 1039> 1034 286<0 465.472>
LayerCount: 2
UndoRedoHistory
Layer: 1
Undoes
EndUndoes
Redoes
EndRedoes
EndUndoRedoHistory
Fore
SplineSet
76 0 m 1xc0
 103 1626 l 1
 553 1626 l 1
 698 792 l 1
 861 1626 l 1
 1293 1626 l 1xb0
 1320 0 l 1
 1034 0 l 1x88
 1002 1039 l 1
 837 0 l 1
 573 0 l 1
 394 1049 l 1xb0
 366 0 l 1
 76 0 l 1xc0
EndSplineSet
EndChar

StartChar: N
Encoding: 78 78 64
Width: 1106
VWidth: 0
GlyphClass: 2
Flags: W
HStem: 0 21G<88 442 728.334 1018>
VStem: 88 354<0 767> 677 341<962 1626>
LayerCount: 2
UndoRedoHistory
Layer: 1
Undoes
EndUndoes
Redoes
EndRedoes
EndUndoRedoHistory
Fore
SplineSet
88 0 m 1
 88 1626 l 1
 381 1626 l 1
 677 962 l 1
 677 1626 l 1
 1018 1626 l 1
 1018 0 l 1
 736 0 l 1
 442 767 l 1
 442 0 l 1
 88 0 l 1
EndSplineSet
EndChar

StartChar: O
Encoding: 79 79 69
Width: 1147
VWidth: 0
GlyphClass: 2
Flags: W
HStem: -35 284<500.054 645.952> 1368 284<500.054 645.952>
VStem: 66 411<265.269 1351.73> 669 412<265.269 1351.73>
LayerCount: 2
UndoRedoHistory
Layer: 1
Undoes
EndUndoes
Redoes
EndRedoes
EndUndoRedoHistory
Fore
SplineSet
573 -35 m 0
 186 -35 66 193 66 540 c 2
 66 1077 l 2
 66 1424 186 1652 573 1652 c 0
 960 1652 1081 1424 1081 1077 c 2
 1081 540 l 2
 1081 193 960 -35 573 -35 c 0
573 249 m 0
 663 249 669 343 669 409 c 2
 669 1209 l 2
 669 1275 663 1368 573 1368 c 0
 483 1368 477 1275 477 1209 c 2
 477 409 l 2
 477 343 483 249 573 249 c 0
EndSplineSet
EndChar

StartChar: OE
Encoding: 311 338 70
Width: 1441
VWidth: 0
GlyphClass: 2
Flags: W
HStem: 0 280<506.662 672 1083 1407> 713 286<1083 1312> 1359 291<522.182 672> 1375 275<1083 1407>
VStem: 66 412<311.995 1332.11> 672 411<280 713 999 1359>
LayerCount: 2
UndoRedoHistory
Layer: 0
Undoes
EndUndoes
Redoes
EndRedoes
EndUndoRedoHistory
UndoRedoHistory
Layer: 1
Undoes
EndUndoes
Redoes
EndRedoes
EndUndoRedoHistory
Fore
SplineSet
575 280 m 1xec
 672 280 l 1
 672 1359 l 1
 575 1359 l 2
 484 1359 478 1221 478 1150 c 2
 478 487 l 2
 478 413 483 279 575 280 c 1xec
575 0 m 2
 195 0 66 242 66 591 c 2
 66 1046 l 2
 66 1376 187 1649 575 1650 c 1xec
 1407 1650 l 1
 1407 1375 l 1
 1083 1375 l 1xdc
 1083 999 l 1
 1312 999 l 1
 1312 713 l 1
 1083 713 l 1
 1083 275 l 1
 1407 275 l 1
 1407 0 l 1
 575 0 l 2
EndSplineSet
EndChar

StartChar: Oslash
Encoding: 319 216 78
Width: 1147
VWidth: 0
GlyphClass: 2
Flags: W
HStem: -35 284<500.054 645.952> 1368 284<500.054 645.952>
VStem: 66 411<265.269 1351.73> 669 412<265.269 1351.73>
LayerCount: 2
UndoRedoHistory
Layer: 1
Undoes
EndUndoes
Redoes
EndRedoes
EndUndoRedoHistory
Fore
SplineSet
137 -162 m 1
 949 1814 l 1
 1028 1779 l 1
 216 -197 l 1
 137 -162 l 1
EndSplineSet
Refer: 69 79 N 1 0 0 1 0 0 2
EndChar

StartChar: P
Encoding: 80 80 80
Width: 1170
VWidth: 0
GlyphClass: 2
Flags: W
HStem: 0 21<88 500> 670 285<309 722.849> 1338 288<309 722.501>
VStem: 88 412<0 1626> 756 386<975.103 1309.96>
LayerCount: 2
UndoRedoHistory
Layer: 1
Undoes
EndUndoes
Redoes
EndRedoes
EndUndoRedoHistory
Fore
SplineSet
309 670 m 1
 309 955 l 1
 631 955 l 2
 746 955 756 1024 756 1157 c 0
 756 1244 746 1338 627 1338 c 2
 309 1338 l 1
 309 1626 l 1
 695 1626 l 2
 993 1626 1142 1462 1142 1148 c 0
 1142 724 905 670 636 670 c 2
 309 670 l 1
EndSplineSet
Refer: 372 -1 N 1 0 0 1 7 0 2
EndChar

StartChar: Q
Encoding: 81 81 81
Width: 1151
VWidth: 0
GlyphClass: 2
Flags: W
HStem: -35 284<500.054 645.952> 1368 284<500.054 645.952>
VStem: 66 411<265.269 1351.73> 669 412<265.269 1351.73>
LayerCount: 2
UndoRedoHistory
Layer: 1
Undoes
EndUndoes
Redoes
EndRedoes
EndUndoRedoHistory
Fore
SplineSet
1012 -282 m 1
 907 -242 696 -121 606 -20 c 1
 644 157 l 1
 666 124 886 -33 1012 -94 c 1
 1012 -282 l 1
EndSplineSet
Refer: 69 79 N 1 0 0 1 0 0 2
EndChar

StartChar: R
Encoding: 82 82 82
Width: 1227
VWidth: 0
GlyphClass: 2
Flags: W
HStem: 0 21G<88 500 782.695 1213> 701 275<294 568> 1329 297<294 744.913>
VStem: 88 412<0 1626> 785 387<1012.03 1294.66>
LayerCount: 2
UndoRedoHistory
Layer: 1
Undoes
EndUndoes
Redoes
EndRedoes
EndUndoRedoHistory
Fore
SplineSet
294 701 m 1
 294 976 l 1
 611 976 l 2
 752 976 785 1033 785 1155 c 0
 785 1281 736 1329 621 1329 c 2
 294 1329 l 1
 294 1626 l 1
 611 1626 l 2
 944 1626 1172 1546 1172 1187 c 0
 1172 980 1109 851 940 763 c 1
 1213 0 l 1
 789 0 l 1
 568 701 l 1
 294 701 l 1
EndSplineSet
Refer: 372 -1 N 1 0 0 1 7 0 2
EndChar

StartChar: S
Encoding: 83 83 86
Width: 989
VWidth: 0
GlyphClass: 2
Flags: W
HStem: -37 310<419.654 549.071> 1376 313<450.786 561.008>
VStem: 32 404<1113.84 1364.73> 32 350<319.536 503> 558 409<278.765 529.707>
LayerCount: 2
UndoRedoHistory
Layer: 1
Undoes
EndUndoes
Redoes
EndRedoes
EndUndoRedoHistory
Fore
SplineSet
520 -37 m 0xe8
 198 -37 42 104 32 503 c 1
 382 547 l 1xd8
 382 319 433 273 494 273 c 0
 556 273 558 336 558 368 c 0
 558 504 491 584 374 684 c 2
 277 767 l 2
 147 878 32 993 32 1222 c 0
 32 1514 231 1689 533 1689 c 0
 795 1689 934 1489 934 1264 c 2
 934 1187 l 1
 576 1153 l 1
 576 1253 l 2
 576 1325 559 1376 508 1376 c 0
 454 1376 436 1300 436 1263 c 0
 436 1120 533 1047 614 975 c 2
 703 896 l 2
 850 765 967 623 967 387 c 0
 967 155 796 -37 520 -37 c 0xe8
EndSplineSet
EndChar

StartChar: T
Encoding: 84 84 92
Width: 887
VWidth: 0
GlyphClass: 2
Flags: W
HStem: 0 21<236 648> 1321 305<21 866>
VStem: 236 412<0 1626>
LayerCount: 2
UndoRedoHistory
Layer: 1
Undoes
EndUndoes
Redoes
EndRedoes
EndUndoRedoHistory
Fore
SplineSet
866 1321 m 1
 21 1321 l 1
 21 1626 l 1
 866 1626 l 1
 866 1321 l 1
EndSplineSet
Refer: 372 -1 N 1 0 0 1 155 0 2
EndChar

StartChar: Tbar
Encoding: 329 358 93
Width: 887
VWidth: 0
GlyphClass: 2
Flags: W
HStem: 0 21<236 648> 741 192<62 827> 1321 305<21 866>
VStem: 236 412<0 1626>
LayerCount: 2
UndoRedoHistory
Layer: 1
Undoes
EndUndoes
Redoes
EndRedoes
EndUndoRedoHistory
Fore
SplineSet
62 933 m 1
 827 933 l 1
 827 741 l 1
 62 741 l 1
 62 933 l 1
EndSplineSet
Refer: 92 84 N 1 0 0 1 0 0 2
EndChar

StartChar: Thorn
Encoding: 332 222 96
Width: 1077
VWidth: 0
GlyphClass: 2
Flags: W
HStem: 0 21<88 500> 491 286<306 643.953> 1161 287<306 649.976>
VStem: 88 412<0 1626> 693 372<819.307 1115.2>
LayerCount: 2
UndoRedoHistory
Layer: 0
Undoes
EndUndoes
Redoes
EndRedoes
EndUndoRedoHistory
UndoRedoHistory
Layer: 1
Undoes
EndUndoes
Redoes
EndRedoes
EndUndoRedoHistory
Fore
SplineSet
306 491 m 1
 306 777 l 1
 520 777 l 2
 649 777 693 835 693 971 c 0
 693 1096 649 1160 524 1160 c 2
 306 1161 l 1
 306 1448 l 1
 542 1448 l 2
 890 1448 1065 1338 1065 994 c 0
 1065 575 894.001953125 493.35546875 532 492 c 2
 306 491 l 1
EndSplineSet
Refer: 372 -1 N 1 0 0 1 7 0 2
EndChar

StartChar: U
Encoding: 85 85 97
Width: 1169
VWidth: 0
GlyphClass: 2
Flags: W
HStem: -35 284<511.054 656.952>
VStem: 77 411<265.269 1626> 680 412<265.269 1626>
LayerCount: 2
UndoRedoHistory
Layer: 1
Undoes
EndUndoes
Redoes
EndRedoes
EndUndoRedoHistory
Fore
SplineSet
584 -35 m 0
 197 -35 77 193 77 540 c 2
 77 1626 l 1
 488 1626 l 1
 488 409 l 2
 488 343 494 249 584 249 c 0
 674 249 680 343 680 409 c 2
 680 1626 l 1
 1092 1626 l 1
 1092 540 l 2
 1092 193 971 -35 584 -35 c 0
EndSplineSet
EndChar

StartChar: V
Encoding: 86 86 108
Width: 977
VWidth: 0
GlyphClass: 2
Flags: W
HStem: 0 21G<289.531 649.948>
LayerCount: 2
UndoRedoHistory
Layer: 1
Undoes
EndUndoes
Redoes
EndRedoes
EndUndoRedoHistory
Fore
SplineSet
293 0 m 1
 11 1626 l 1
 393 1626 l 1
 478 848 l 1
 590 1626 l 1
 967 1626 l 1
 646 0 l 1
 293 0 l 1
EndSplineSet
EndChar

StartChar: W
Encoding: 87 87 109
Width: 1336
VWidth: 0
GlyphClass: 2
Flags: W
HStem: 0 21G<224.429 563.162 768.622 1107.62>
LayerCount: 2
UndoRedoHistory
Layer: 1
Undoes
EndUndoes
Redoes
EndRedoes
EndUndoRedoHistory
Fore
SplineSet
227 0 m 1
 18 1626 l 1
 364 1626 l 1
 416 689 l 1
 527 1626 l 1
 797 1626 l 1
 913 698 l 1
 971 1626 l 1
 1318 1626 l 1
 1105 0 l 1
 771 0 l 1
 661 925 l 1
 561 0 l 1
 227 0 l 1
EndSplineSet
EndChar

StartChar: X
Encoding: 88 88 114
Width: 1018
VWidth: 0
GlyphClass: 2
Flags: W
HStem: 0 21G<-12 328.417 652.931 1047>
LayerCount: 2
UndoRedoHistory
Layer: 1
Undoes
EndUndoes
Redoes
EndRedoes
EndUndoRedoHistory
Fore
SplineSet
661 0 m 1
 483.843526608 439.110405083 l 1
 321 0 l 1
 -12 0 l 1
 303.905889145 885.114366234 l 1
 5 1626 l 1
 397 1626 l 1
 554.998996623 1230.75943306 l 1
 666 1626 l 1
 1003 1626 l 1
 742.624300256 761.407519666 l 1
 1047 0 l 1
 661 0 l 1
EndSplineSet
EndChar

StartChar: Y
Encoding: 89 89 115
Width: 979
VWidth: 0
GlyphClass: 2
Flags: W
HStem: 0 21G<289 685>
VStem: 289 396<0 611.804>
LayerCount: 2
UndoRedoHistory
Layer: 1
Undoes
EndUndoes
Redoes
EndRedoes
EndUndoRedoHistory
Fore
SplineSet
289 0 m 1
 289 560 l 1
 -1 1626 l 1
 383 1626 l 1
 503 1067 l 1
 608 1626 l 1
 980 1626 l 1
 685 560 l 1
 685 0 l 1
 289 0 l 1
EndSplineSet
EndChar

StartChar: Z
Encoding: 90 90 120
Width: 922
VWidth: 0
GlyphClass: 2
Flags: W
HStem: 0 275<465 844> 1350 276<114 444>
LayerCount: 2
UndoRedoHistory
Layer: 0
Undoes
EndUndoes
Redoes
EndRedoes
EndUndoRedoHistory
UndoRedoHistory
Layer: 1
Undoes
EndUndoes
Redoes
EndRedoes
EndUndoRedoHistory
Fore
SplineSet
68 0 m 1
 68 239 l 1
 444 1350 l 1
 114 1350 l 1
 114 1626 l 1
 844 1626 l 1
 844 1385 l 1
 465 275 l 1
 844 275 l 1
 844 0 l 1
 68 0 l 1
EndSplineSet
EndChar

StartChar: a
Encoding: 97 97 124
Width: 954
VWidth: 0
GlyphClass: 2
Flags: W
HStem: 0 21G<587.472 931>
VStem: 32 330<228.381 438.837> 64 343<774 948.967> 527 353<219.771 578 709.962 948.108>
LayerCount: 2
UndoRedoHistory
Layer: 1
Undoes
EndUndoes
Redoes
EndRedoes
EndUndoRedoHistory
Fore
SplineSet
451 212 m 0xd0
 477 212 505 226 527 256 c 1
 527 578 l 1
 416 526 362 400 362 330 c 0
 362 256 404 212 451 212 c 0xd0
316 -27 m 0
 123 -23 28 134 32 275 c 0xd0
 41 591 363 658 527 726 c 1
 527 886 l 2
 527 921 514 955 474 955 c 0
 430 955 421 922 418 886 c 2
 407 760 l 1
 64 774 l 1xb0
 69 836 l 2
 93 1128 212 1245 511 1245 c 0
 723 1245 880 1117 880 921 c 2
 880 400 l 1
 886 240 908 112 931 0 c 1
 592 0 l 1
 556 159 l 1
 527 57 439 -30 316 -27 c 0
EndSplineSet
EndChar

StartChar: acute
Encoding: 357 180 128
Width: 650
VWidth: 0
GlyphClass: 2
Flags: W
HStem: 1281 415<236 351>
VStem: 108 511
LayerCount: 2
UndoRedoHistory
Layer: 1
Undoes
EndUndoes
Redoes
EndRedoes
EndUndoRedoHistory
Fore
SplineSet
108 1281 m 1
 236 1696 l 1
 619 1696 l 1
 351 1281 l 1
 108 1281 l 1
EndSplineSet
EndChar

StartChar: ae
Encoding: 359 230 130
Width: 1352
VWidth: 0
GlyphClass: 2
Flags: W
HStem: -27 245<295 526.244 886.254 962.743> 603 161<879 975.054>
VStem: 52 318<231.201 452.863> 531 347<232.749 547 764 919.634> 965 337<236.428 484> 1016 303<801.762 1011.8>
LayerCount: 2
UndoRedoHistory
Layer: 1
Undoes
EndUndoes
Redoes
EndRedoes
EndUndoRedoHistory
Fore
SplineSet
878 764 m 1xf4
 940 773 1016 797 1016 921 c 0
 1016 1067 880.319335938 1031.90527344 878 902 c 1
 878 764 l 1xf4
450 218 m 0
 497 218 534 231 534 317 c 2
 532 547 l 1
 390 499 370 357 370 318 c 0
 370 289 386 218 450 218 c 0
383 -27 m 0
 207 -27 52 71 52 283 c 0
 52 638 353 668 531 699 c 1
 531 844 l 2
 531 954 414 952 414 843 c 2
 414 774 l 1
 56 774 l 1
 50 1065 171 1246 441 1246 c 0
 571 1246 668 1174 690 1084 c 1
 722 1176 834 1245 963 1245 c 0
 1204 1245 1319 1079 1319 949 c 0xf4
 1319 699 1053 634 879 603 c 1
 879 346 l 2
 879 266 885 232 925 232 c 0
 971.137695312 232 966.177734375 276.690429688 965 345 c 1
 965 484 l 1
 1302 484 l 1
 1302 302 l 2xf8
 1302 92 1178 -26 960 -27 c 0
 865.000976562 -27.435546875 714 22 684 135 c 1
 635 25 496 -27 383 -27 c 0
EndSplineSet
EndChar

StartChar: afii10018
Encoding: 177 1041 131
Width: 1069
VWidth: 0
GlyphClass: 2
Flags: W
HStem: 0 21<88 500> 0 267<304 638.748> 671 283<304 642.443> 1321 305<301 945>
VStem: 88 412<0 1626> 683 380<305.144 626.385>
LayerCount: 2
UndoRedoHistory
Layer: 1
Undoes
EndUndoes
Redoes
EndRedoes
EndUndoRedoHistory
Fore
SplineSet
945 1321 m 1x3c
 301 1321 l 1
 301 1626 l 1
 945 1626 l 1
 945 1321 l 1x3c
EndSplineSet
Refer: 210 -1 N 1 0 0 1 -133 0 2
Refer: 372 -1 N 1 0 0 1 7 0 2
EndChar

StartChar: afii10021
Encoding: 180 1044 132
Width: 1419
VWidth: 0
GlyphClass: 2
Flags: W
HStem: -281 590<22 313 1105 1427> 0 21<132.662 411.092 893.606 1294> 0 309<313 1104> 1307 319<736.169 1097.69>
VStem: 22 291<-281 0> 356.183 379.986<422.279 1307> 893.606 400.394<0 1626> 1105 322<-281 0>
LayerCount: 2
UndoRedoHistory
Layer: 0
Undoes
EndUndoes
Redoes
EndRedoes
EndUndoRedoHistory
UndoRedoHistory
Layer: 1
Undoes
EndUndoes
Redoes
EndRedoes
EndUndoRedoHistory
Fore
SplineSet
22 -281 m 1x9d
 22 309 l 1
 1427 309 l 1
 1427 -281 l 1
 1105 -281 l 1x9d
 1104 0 l 1
 313 0 l 1x5d
 313 -281 l 1
 22 -281 l 1x9d
EndSplineSet
Refer: 135 1051 N 0.971831 0 0 1 121 0 2
EndChar

StartChar: afii10024
Encoding: 182 1046 133
Width: 1684
VWidth: 0
GlyphClass: 2
Flags: W
HStem: 0 21G<47 416.415 659.027 1015.21 1267.59 1637>
VStem: 659.027 356.184<0 1626>
LayerCount: 2
UndoRedoHistory
Layer: 1
Undoes
EndUndoes
Redoes
EndRedoes
EndUndoRedoHistory
Fore
SplineSet
842 606 m 1
 692 675 l 1
 408 0 l 1
 47 0 l 1
 444 829 l 1
 6 1626 l 1
 401 1626 l 1
 842 720 l 1
 1283 1626 l 1
 1678 1626 l 1
 1240 829 l 1
 1637 0 l 1
 1276 0 l 1
 992 675 l 1
 842 606 l 1
EndSplineSet
Refer: 372 -1 N 0.864525 0 0 1 589 0 2
EndChar

StartChar: afii10025
Encoding: 183 1047 134
Width: 864
VWidth: 0
GlyphClass: 2
Flags: W
HStem: -24 51<284.583 535.143> 873 36<364 514.779> 1657 50<296.387 566.631>
VStem: 75 55<198.351 373 1321 1484.45> 705 68<210.998 660.092 1081.6 1508.6>
LayerCount: 2
UndoRedoHistory
Layer: 1
Undoes
EndUndoes
Redoes
EndRedoes
EndUndoRedoHistory
Fore
SplineSet
399 -24 m 0
 156 -24 73 181 75 352 c 1
 75 373 l 1
 130 373 l 1
 130 143 235 27 399 27 c 0
 550 27 705 89 705 429 c 0
 705 669 628 873 418 873 c 2
 364 873 l 1
 364 909 l 1
 418 909 l 2
 629 909 705 1036 705 1309 c 0
 705 1596 595 1657 431 1657 c 0
 276 1657 130 1584 130 1321 c 1
 74 1321 l 1
 74 1337 l 2
 74 1519 159 1707 437 1707 c 0
 701 1707 773 1495 773 1307 c 0
 773 1035 668 908 537 888 c 1
 625 871 773 744 773 433 c 0
 773 167 668 -24 399 -24 c 0
EndSplineSet
EndChar

StartChar: afii10029
Encoding: 187 1051 135
Width: 1295
VWidth: 0
GlyphClass: 2
Flags: W
HStem: 0 21G<12 298.5 795 1207> 1307 319<633 1005>
VStem: 242 391<422.279 1307> 795 412<0 1626>
LayerCount: 2
UndoRedoHistory
Layer: 1
Undoes
EndUndoes
Redoes
EndRedoes
EndUndoRedoHistory
Fore
SplineSet
1005 1626 m 1
 1005 1307 l 1
 633 1307 l 1
 633 1048 l 2
 633 235 585 0 12 0 c 1
 12 306 l 1
 216 306 242 398 242 1048 c 2
 242 1626 l 1
 1005 1626 l 1
EndSplineSet
Refer: 372 -1 N 1 0 0 1 714 0 2
EndChar

StartChar: afii10037
Encoding: 195 1059 136
Width: 1147
VWidth: 0
GlyphClass: 2
Flags: W
HStem: 0 21G<215 642.151>
LayerCount: 2
UndoRedoHistory
Layer: 1
Undoes
EndUndoes
Redoes
EndRedoes
EndUndoRedoHistory
Fore
SplineSet
791 504 m 1
 636 0 l 1
 215 0 l 1
 372 554 l 1
 6 1626 l 1
 410 1626 l 1
 593 1089 l 1
 779 1626 l 1
 1161 1626 l 1
 791 504 l 1
EndSplineSet
EndChar

StartChar: afii10038
Encoding: 196 1060 137
Width: 1462
VWidth: 0
GlyphClass: 2
Flags: W
HStem: 0 21.2066<543.482 917.243>
VStem: 66 346<520.156 1131.73> 543.482 373.761<0 1642> 1050 346<519.199 1119.84>
LayerCount: 2
UndoRedoHistory
Layer: 1
Undoes
EndUndoes
Redoes
EndRedoes
EndUndoRedoHistory
Fore
SplineSet
719 1161 m 1
 483 1221 412 1109 412 1035 c 2
 412 606 l 2
 412 532 483 436 743 496 c 1
 978 436 1050 531 1050 605 c 2
 1050 1034 l 2
 1050 1108 977 1221 719 1161 c 1
743 229 m 1
 351 169 66 358 66 612 c 2
 66 1029 l 2
 66 1283 354 1471 719 1411 c 1
 1109 1471 1396 1282 1396 1028 c 2
 1396 611 l 2
 1396 357 1109 169 743 229 c 1
EndSplineSet
Refer: 372 -1 N 0.907187 0 0 1.00984 470 0 2
EndChar

StartChar: afii10040
Encoding: 198 1062 138
Width: 1258
VWidth: 0
GlyphClass: 2
Flags: W
HStem: 0 21<88 500 693 1105> 0 275<306 952>
VStem: 88 412<0 1626> 693 412<0 1626> 952 319<-368 0>
LayerCount: 2
UndoRedoHistory
Layer: 1
Undoes
EndUndoes
Redoes
EndRedoes
EndUndoRedoHistory
Fore
SplineSet
1271 -368 m 1x68
 952 -368 l 1
 952 0 l 1
 306 0 l 1xa8
 306 275 l 1
 1271 275 l 1
 1271 -368 l 1x68
EndSplineSet
Refer: 372 -1 N 1 0 0 1 612 0 2
Refer: 372 -1 N 1 0 0 1 7 0 2
EndChar

StartChar: afii10041
Encoding: 199 1063 139
Width: 1203
VWidth: 0
GlyphClass: 2
Flags: W
HStem: 0 21<703 1115> 684 250<482.373 883.546>
VStem: 42 412<966.203 1626> 703 412<0 1626>
LayerCount: 2
UndoRedoHistory
Layer: 0
Undoes
EndUndoes
Redoes
EndRedoes
EndUndoRedoHistory
UndoRedoHistory
Layer: 1
Undoes
EndUndoes
Redoes
EndRedoes
EndUndoRedoHistory
Fore
SplineSet
919 997 m 1
 919 734 l 1
 820 700 616 684 531 684 c 0
 282 684 42 830 42 1090 c 2
 42 1626 l 1
 454 1626 l 1
 454 1091 l 2
 454 1006 456 934 640 934 c 0
 761 934 875 967 919 997 c 1
EndSplineSet
Refer: 372 -1 N 1 0 0 1 622 0 2
EndChar

StartChar: afii10042
Encoding: 200 1064 140
Width: 1659
VWidth: 0
GlyphClass: 2
Flags: W
HStem: 0 21<88.0001 471.687 640 1023.69 1188 1571.69> 0 275<283.566 1375.16>
VStem: 88.0001 383.687<0 1626> 640 383.687<0 1626> 1188 383.687<0 1626>
LayerCount: 2
UndoRedoHistory
Layer: 1
Undoes
EndUndoes
Redoes
EndRedoes
EndUndoRedoHistory
Fore
SplineSet
283.566 0 m 1xb8
 283.566 275 l 1
 1375.16 275 l 1x78
 1375.16 0 l 1
 283.566 0 l 1xb8
EndSplineSet
Refer: 372 -1 N 0.93128 0 0 1 12.5664 0 2
Refer: 372 -1 N 0.93128 0 0 1 1112.57 0 2
Refer: 372 -1 N 0.93128 0 0 1 564.566 0 2
EndChar

StartChar: afii10043
Encoding: 201 1065 141
Width: 1727
VWidth: 0
GlyphClass: 2
Flags: W
HStem: 0 21<88.0001 471.687 640 1023.69 1188.43 1572.12> 0 275<284 1447>
VStem: 88.0001 383.687<0 1626> 640 383.687<0 1626> 1188.43 383.687<0 1626> 1447 319<-368 0>
LayerCount: 2
UndoRedoHistory
Layer: 1
Undoes
EndUndoes
Redoes
EndRedoes
EndUndoRedoHistory
Fore
SplineSet
1766 -368 m 1x74
 1447 -368 l 1
 1447 0 l 1
 284 0 l 1xb4
 284 275 l 1
 1766 275 l 1
 1766 -368 l 1x74
EndSplineSet
Refer: 372 -1 N 0.93128 0 0 1 12.5664 0 2
Refer: 372 -1 N 0.93128 0 0 1 1113 0 2
Refer: 372 -1 N 0.93128 0 0 1 564.566 0 2
EndChar

StartChar: afii10044
Encoding: 202 1066 142
Width: 1244
VWidth: 0
GlyphClass: 2
Flags: W
HStem: 0 21<209 621> 0 267<437 771.748> 671 283<437 775.443> 1351 275<0 425>
VStem: 0 425<1351 1626> 209 412<0 1626> 816 380<305.144 626.385>
LayerCount: 2
UndoRedoHistory
Layer: 1
Undoes
EndUndoes
Redoes
EndRedoes
EndUndoRedoHistory
Fore
SplineSet
0 1351 m 1x3a
 0 1626 l 1
 425 1626 l 1
 425 1351 l 1
 0 1351 l 1x3a
EndSplineSet
Refer: 210 -1 N 1 0 0 1 0 0 2
Refer: 372 -1 N 1 0 0 1 128 0 2
EndChar

StartChar: afii10047
Encoding: 205 1069 145
Width: 1143
VWidth: 0
GlyphClass: 2
Flags: W
HStem: 720 194<416 881>
LayerCount: 2
UndoRedoHistory
Layer: 1
Undoes
EndUndoes
Redoes
EndRedoes
EndUndoRedoHistory
Fore
SplineSet
416 720 m 1
 416 914 l 1
 881 914 l 1
 881 720 l 1
 416 720 l 1
EndSplineSet
Refer: 12 67 N -1 5.55112e-17 -5.55112e-17 -1 1143 1617 2
EndChar

StartChar: afii10048
Encoding: 206 1070 146
Width: 1688
VWidth: 0
GlyphClass: 2
Flags: W
HStem: -35 284<1080.33 1215.76> 0 21<88 500> 1368 284<1080.33 1215.76>
VStem: 88 412<0 1626> 675 388<265.269 816.045 899 1351.73> 1233 389<265.269 1351.73>
LayerCount: 2
UndoRedoHistory
Layer: 1
Undoes
EndUndoes
Redoes
EndRedoes
EndUndoRedoHistory
Fore
SplineSet
293 899 m 1xbc
 675 899 l 1
 675 1077 l 2
 675 1424 783 1652 1148 1652 c 0
 1514 1652 1622 1424 1622 1077 c 2
 1622 540 l 2
 1622 193 1514 -35 1148 -35 c 0
 783 -35 675 193 675 540 c 2
 675 816.044827586 l 1
 293 656 l 1
 293 899 l 1xbc
1148 249 m 0
 1233 249 1233 343 1233 409 c 2
 1233 1209 l 2
 1233 1275 1233 1368 1148 1368 c 0
 1063 1368 1063 1275 1063 1209 c 2
 1063 409 l 2
 1063 343 1063 249 1148 249 c 0
EndSplineSet
Refer: 372 -1 N 1 0 0 1 7 0 2
EndChar

StartChar: afii10049
Encoding: 207 1071 147
Width: 1200
VWidth: 0
GlyphClass: 2
Flags: W
HStem: 0 21G<78 478.736 700 1112> 672 291<633.113 919> 1346 280<493.231 919>
VStem: 60 381<1011.74 1292.48> 700 412<0 1626>
LayerCount: 2
UndoRedoHistory
Layer: 1
Undoes
EndUndoes
Redoes
EndRedoes
EndUndoRedoHistory
Fore
SplineSet
919 1626 m 1
 919 1346 l 1
 636 1346 l 2
 507 1346 441 1293 441 1144 c 0
 441 1038 485 963 640 963 c 2
 919 963 l 1
 919 672 l 1
 633.113350126 672 l 1
 474 0 l 1
 78 0 l 1
 276.066422204 741.098529745 l 1
 142.262702145 816.428365321 60 952.8622326 60 1148 c 0
 60 1572 375 1626 644 1626 c 2
 919 1626 l 1
EndSplineSet
Refer: 372 -1 N 1 0 0 1 619 0 2
EndChar

StartChar: afii10053
Encoding: 164 1028 148
Width: 1129
VWidth: 0
GlyphClass: 2
Flags: W
HStem: -35 284<500.054 645.918> 723 209<278 712> 1368 284<500.054 645.918>
VStem: 66 411<265.269 1351.73> 669 406<273.391 575 1046 1343.61>
LayerCount: 2
UndoRedoHistory
Layer: 1
Undoes
EndUndoes
Redoes
EndRedoes
EndUndoRedoHistory
Fore
SplineSet
278 723 m 1
 278 932 l 1
 712 932 l 1
 712 723 l 1
 278 723 l 1
EndSplineSet
Refer: 12 67 N 1 0 0 1 0 0 2
EndChar

StartChar: afii10066
Encoding: 209 1073 149
Width: 820
VWidth: 0
GlyphClass: 2
Flags: W
HStem: -20 50<315.484 518.897> 1122 50<348.194 550.019>
VStem: 148 64<136.904 1022.03 1046 1410.79> 642 64<189.445 999.203>
LayerCount: 2
UndoRedoHistory
Layer: 1
Undoes
EndUndoes
Redoes
EndRedoes
EndUndoRedoHistory
Fore
SplineSet
212 291 m 2
 212 118 290 26 422 30 c 0
 594 35 642 154 642 490 c 2
 642 667 l 2
 642 1003 618 1122 449 1122 c 0
 345 1122 257 1042 212 991 c 1
 212 291 l 2
148 291 m 2
 148 1207 l 2
 148 1633 423 1625 612 1738 c 1
 642 1688 l 1
 397 1565 212 1579 212 1205 c 2
 212 1046 l 1
 255 1102 335 1171 449 1172 c 1
 656 1172 706 1025 706 666 c 2
 706 494 l 2
 706 131 633 -13 422 -20 c 0
 271 -25 148 77 148 291 c 2
EndSplineSet
EndChar

StartChar: afii10067
Encoding: 210 1074 150
Width: 1069
VWidth: 0
GlyphClass: 2
Flags: W
HStem: 0 21<76 448> 0 191<271 630.638> 560 207<271 618.095> 1038 178<270 609.466>
VStem: 76 372<0 1216> 649 363<796.368 1010.57> 679 362<230.089 524.01>
LayerCount: 2
UndoRedoHistory
Layer: 1
Undoes
EndUndoes
Redoes
EndRedoes
EndUndoRedoHistory
Fore
SplineSet
271 767 m 1x7a
 522 767 l 2
 601 767 649 825 649 903 c 0
 649 983 612 1038 499 1038 c 2
 270 1038 l 1
 270 1216 l 1
 505 1216 l 2
 903 1216 1012 1124 1012 911 c 0x7c
 1012 742 937 679 809 661 c 1
 989 632 1041 513 1041 354 c 0
 1041 111 911 0 530 0 c 2x7a
 271 0 l 1xba
 271 191 l 1
 495 191 l 2
 584 191 679 202 679 364 c 0
 679 563 587 560 494 560 c 2
 271 560 l 1
 271 767 l 1x7a
EndSplineSet
Refer: 282 -1 N 1 0 0 1 -1 0 2
EndChar

StartChar: afii10068
Encoding: 211 1075 151
Width: 729
VWidth: 0
GlyphClass: 2
Flags: W
HStem: 0 21<76 448> 980 236<270 704>
VStem: 76 372<0 1216>
LayerCount: 2
UndoRedoHistory
Layer: 1
Undoes
EndUndoes
Redoes
EndRedoes
EndUndoRedoHistory
Fore
SplineSet
704 1216 m 1
 704 980 l 1
 270 980 l 1
 270 1216 l 1
 704 1216 l 1
EndSplineSet
Refer: 282 -1 N 1 0 0 1 -1 0 2
EndChar

StartChar: afii10069
Encoding: 212 1076 152
Width: 1293
VWidth: 0
GlyphClass: 2
Flags: W
HStem: -250 498<12 256.595 1013 1313> 0 21<785 1157> 0 248<635.488 1013> 408 13.9539<266 638> 968 248<449 1031>
VStem: 12 300<-250 0> 266 372<408 1216> 785 372<0 1216> 1013 300<-250 0>
LayerCount: 2
UndoRedoHistory
Layer: 0
Undoes
EndUndoes
Redoes
EndRedoes
EndUndoRedoHistory
UndoRedoHistory
Layer: 1
Undoes
EndUndoes
Redoes
EndRedoes
EndUndoRedoHistory
Fore
SplineSet
1031 968 m 1x18
 449 968 l 1
 449 1216 l 1
 1031 1216 l 1
 1031 968 l 1x18
638 297 m 2x9a
 638 279.677743913 637.149188121 263.363941216 635.487837141 248 c 1x3a
 1313 248 l 1
 1313 -250 l 1
 1013 -250 l 1x9a80
 1013 0 l 1x5a80
 312 0 l 1x3c80
 312 -250 l 1
 12 -250 l 1
 12 248 l 1x9c80
 127 248 l 2
 195.114257812 248.376953125 266 246.389648438 266 343 c 2
 266 408 l 1
 638 408 l 1
 638 297 l 2x9a
EndSplineSet
Refer: 282 -1 N 1 0 0 0.664474 189 408 2
Refer: 282 -1 N 1 0 0 1 708 0 2
EndChar

StartChar: afii10072
Encoding: 214 1078 153
Width: 1436
VWidth: 0
GlyphClass: 2
Flags: W
HStem: 0 21G<0 343.247 534 906 1092.75 1436>
VStem: 534 372<0 1216>
LayerCount: 2
UndoRedoHistory
Layer: 1
Undoes
EndUndoes
Redoes
EndRedoes
EndUndoRedoHistory
Fore
SplineSet
331 1216 m 1
 718 492 l 1
 1105 1216 l 1
 1424 1216 l 1
 1064 603 l 1
 1436 0 l 1
 1104 0 l 1
 829 489 l 1
 718 348 l 1
 607 489 l 1
 332 0 l 1
 0 0 l 1
 372 603 l 1
 12 1216 l 1
 331 1216 l 1
EndSplineSet
Refer: 282 -1 N 1 0 0 1 457 0 2
EndChar

StartChar: afii10073
Encoding: 215 1079 154
Width: 720
VWidth: 0
GlyphClass: 2
Flags: W
HStem: -20 50<255.999 471.827> 569 56<317 434.281> 1122 50<263.468 465.124>
VStem: 88 65<130.962 294 879 1022.68> 578 64<134.404 443.313>
LayerCount: 2
UndoRedoHistory
Layer: 1
Undoes
EndUndoes
Redoes
EndRedoes
EndUndoRedoHistory
Fore
SplineSet
435 598 m 1
 555 558 638 473 642 305 c 0
 647 100 537 -23 358 -20 c 0
 186 -17 88 98 88 294 c 1
 153 294 l 1
 153 135 210 32 358 30 c 0
 497 28 584 116 578 305 c 0
 573 454 500 569 317 569 c 1
 317 625 l 1
 509 625 564 722 573 851 c 0
 583 991 520 1122 369 1122 c 0
 235 1122 151 1031 151 879 c 1
 88 879 l 1
 88 1067 192 1172 368 1172 c 0
 559 1172 643 1032 637 854 c 0
 632 717 554 622 435 598 c 1
EndSplineSet
EndChar

StartChar: afii10074
Encoding: 216 1080 155
Width: 1043
VWidth: 0
GlyphClass: 2
Flags: W
HStem: 0 21G<76 414 402.605 422.641 636 974>
VStem: 76 338<0 1216> 636 338<0 1216>
LayerCount: 2
UndoRedoHistory
Layer: 1
Undoes
EndUndoes
Redoes
EndRedoes
EndUndoRedoHistory
Fore
SplineSet
789 868 m 1
 414 0 l 1
 267 258 l 1
 636 1116 l 1
 789 868 l 1
EndSplineSet
Refer: 282 -1 N 0.908602 0 0 1 566.038 0 2
Refer: 282 -1 N 0.908602 0 0 1 6.03763 0 2
EndChar

StartChar: afii10076
Encoding: 218 1082 157
Width: 1134
VWidth: 0
GlyphClass: 2
Flags: W
HStem: 0 21G<76 448 734.151 1134>
VStem: 76 372<0 1216>
LayerCount: 2
UndoRedoHistory
Layer: 1
Undoes
EndUndoes
Redoes
EndRedoes
EndUndoRedoHistory
Fore
SplineSet
267 215 m 1
 267 423 l 1
 699 1216 l 1
 1117 1216 l 1
 768 670 l 1
 1134 0 l 1
 744 0 l 1
 483 530 l 1
 267 215 l 1
EndSplineSet
Refer: 282 -1 N 1 0 0 1 -1 0 2
EndChar

StartChar: afii10077
Encoding: 219 1083 158
Width: 1120
VWidth: 0
GlyphClass: 2
Flags: W
HStem: -14.0296 422.03<155.601 421.158> 0 21<672 1044> 0 246<14 143.64> 408 13.9539<153 525> 968 248<336 918>
VStem: 153 372<408 1216> 672 372<0 1216>
LayerCount: 2
UndoRedoHistory
Layer: 0
Undoes
EndUndoes
Redoes
EndRedoes
EndUndoRedoHistory
UndoRedoHistory
Layer: 1
Undoes
EndUndoes
Redoes
EndRedoes
EndUndoRedoHistory
Fore
SplineSet
918 968 m 1x0e
 336 968 l 1
 336 1216 l 1
 918 1216 l 1
 918 968 l 1x0e
525 297 m 2
 525 68.4325762558 447.567916683 -14.0296162414 215.004967012 -14.0296162414 c 0x8e
 157.781351534 -14.0296162414 91.1655269911 -9.03704338882 14 0 c 1
 14 246 l 1
 93 246 153 246.390072921 153 343 c 2
 153 408 l 1
 525 408 l 1x3e
 525 297 l 2
EndSplineSet
Refer: 282 -1 N 1 0 0 1 595 0 2
Refer: 282 -1 N 1 0 0 0.664474 76 408 2
EndChar

StartChar: afii10078
Encoding: 220 1084 159
Width: 1206
VWidth: 0
GlyphClass: 2
Flags: W
HStem: 0 21<76.8168 392.817 813.817 1129.82>
VStem: 76.8168 316<0 1216> 813.817 316<0 1216>
LayerCount: 2
UndoRedoHistory
Layer: 0
Undoes
EndUndoes
Redoes
EndRedoes
EndUndoRedoHistory
UndoRedoHistory
Layer: 1
Undoes
EndUndoes
Redoes
EndRedoes
EndUndoRedoHistory
Fore
SplineSet
658.408203125 146 m 1
 548.408203125 146 l 1
 238.408203125 968 l 1
 391.408203125 1216 l 1
 603.408203125 658 l 1
 815.408203125 1216 l 1
 968.408203125 968 l 1
 658.408203125 146 l 1
EndSplineSet
Refer: 282 -1 N 0.849462 0 0 1 11.4082 0 2
Refer: 282 -1 N 0.849462 0 0 1 748.408 0 2
EndChar

StartChar: afii10079
Encoding: 221 1085 160
Width: 1070
VWidth: 0
GlyphClass: 2
Flags: W
HStem: 0 21<76 448 622 994> 502 252<263 806>
VStem: 76 372<0 1216> 622 372<0 1216>
LayerCount: 2
UndoRedoHistory
Layer: 1
Undoes
EndUndoes
Redoes
EndRedoes
EndUndoRedoHistory
Fore
SplineSet
263 754 m 1
 806 754 l 1
 806 502 l 1
 263 502 l 1
 263 754 l 1
EndSplineSet
Refer: 282 -1 N 1 0 0 1 -1 0 2
Refer: 282 -1 N 1 0 0 1 545 0 2
EndChar

StartChar: afii10081
Encoding: 223 1087 161
Width: 1043
VWidth: 0
GlyphClass: 2
Flags: W
HStem: 0 21<76 448 595 967> 968 248<259 841>
VStem: 76 372<0 1216> 595 372<0 1216>
LayerCount: 2
UndoRedoHistory
Layer: 1
Undoes
EndUndoes
Redoes
EndRedoes
EndUndoRedoHistory
Fore
SplineSet
841 968 m 1
 259 968 l 1
 259 1216 l 1
 841 1216 l 1
 841 968 l 1
EndSplineSet
Refer: 282 -1 N 1 0 0 1 -1 0 2
Refer: 282 -1 N 1 0 0 1 518 0 2
EndChar

StartChar: afii10085
Encoding: -1 1091 162
Width: 860
VWidth: 0
Flags: W
LayerCount: 2
Fore
SplineSet
232 91 m 2
 267 -81 233 -137 3 -137 c 1
 38 -426 l 1
 484 -426 560 -312 620 0 c 2
 856 1217 l 1
 513 1217 l 1
 438 496 l 1
 346 1217 l 1
 4 1217 l 1
 232 91 l 2
EndSplineSet
EndChar

StartChar: afii10088
Encoding: 230 1094 164
Width: 1085
VWidth: 0
GlyphClass: 2
Flags: W
HStem: 0 21<76 448 591 963> 0 248<268 805>
VStem: 76 372<0 1216> 591 372<0 1216> 805 280<-250 0>
LayerCount: 2
UndoRedoHistory
Layer: 1
Undoes
EndUndoes
Redoes
EndRedoes
EndUndoRedoHistory
Fore
SplineSet
1085 -250 m 1x68
 805 -250 l 1
 805 0 l 1
 268 0 l 1xa8
 268 248 l 1
 1085 248 l 1
 1085 -250 l 1x68
EndSplineSet
Refer: 282 -1 N 1 0 0 1 514 0 2
Refer: 282 -1 N 1 0 0 1 -1 0 2
EndChar

StartChar: afii10089
Encoding: 231 1095 165
Width: 994
VWidth: 0
GlyphClass: 2
Flags: W
HStem: 0 21<546 918> 517 199<434.096 733.607>
VStem: 42 372<737.641 1216> 546 372<0 1216>
LayerCount: 2
UndoRedoHistory
Layer: 1
Undoes
EndUndoes
Redoes
EndRedoes
EndUndoRedoHistory
Fore
SplineSet
42 843 m 2
 42 1216 l 1
 414 1216 l 1
 414 840 l 2
 414 749 445 716 556 716 c 0
 602 716 661 722 738 731 c 1
 738 549 l 1
 627 527 534 517 455 517 c 0
 99 517 42 714 42 843 c 2
EndSplineSet
Refer: 282 -1 N 1 0 0 1 469 0 2
EndChar

StartChar: afii10090
Encoding: 232 1096 166
Width: 1500
VWidth: 0
GlyphClass: 2
Flags: W
HStem: 0 21<75.906 437.789 569.906 931.789 1062.91 1424.79> 0 248<255 1246>
VStem: 75.906 361.883<0 1216> 569.906 361.883<0 1216> 1062.91 361.883<0 1216>
LayerCount: 2
UndoRedoHistory
Layer: 1
Undoes
EndUndoes
Redoes
EndRedoes
EndUndoRedoHistory
Fore
SplineSet
255 0 m 1xb8
 255 248 l 1
 1246 248 l 1x78
 1246 0 l 1
 255 0 l 1xb8
EndSplineSet
Refer: 282 -1 N 0.972805 0 0 1 1 0 2
Refer: 282 -1 N 0.972805 0 0 1 495 0 2
Refer: 282 -1 N 0.972805 0 0 1 988 0 2
EndChar

StartChar: afii10091
Encoding: 233 1097 167
Width: 1626
VWidth: 0
GlyphClass: 2
Flags: W
HStem: 0 21<75.906 437.789 569.906 931.789 1062.91 1424.79> 0 248<255 1346>
VStem: 75.906 361.883<0 1216> 569.906 361.883<0 1216> 1062.91 361.883<0 1216> 1346 280<-250 0>
LayerCount: 2
UndoRedoHistory
Layer: 1
Undoes
EndUndoes
Redoes
EndRedoes
EndUndoRedoHistory
Fore
SplineSet
1626 -250 m 1x74
 1346 -250 l 1
 1346 0 l 1
 255 0 l 1xb4
 255 248 l 1
 1626 248 l 1
 1626 -250 l 1x74
EndSplineSet
Refer: 282 -1 N 0.972805 0 0 1 988 0 2
Refer: 282 -1 N 0.972805 0 0 1 1 0 2
Refer: 282 -1 N 0.972805 0 0 1 495 0 2
EndChar

StartChar: afii10092
Encoding: 234 1098 168
Width: 1191
VWidth: 0
GlyphClass: 2
Flags: W
HStem: 0 21<242 614> 0 211<434 798.323> 493 220<434 792.664> 982 234<24 430>
VStem: 24 406<982 1216> 242 372<0 1216> 832 338<249.994 453.15>
LayerCount: 2
UndoRedoHistory
Layer: 1
Undoes
EndUndoes
Redoes
EndRedoes
EndUndoRedoHistory
Fore
SplineSet
430 982 m 1x3a
 24 982 l 1
 24 1216 l 1
 430 1216 l 1
 430 982 l 1x3a
EndSplineSet
Refer: 282 -1 N 1 0 0 1 165 0 2
Refer: 209 -1 N 1 0 0 1 169 0 2
EndChar

StartChar: afii10095
Encoding: 237 1101 171
Width: 971
VWidth: 0
GlyphClass: 2
Flags: W
HStem: -29 263<422.896 528.099> 575 106<366 726> 979 263<422.896 528.099>
VStem: 54 364<240.787 469 724 972.213> 537 374<238.902 974.098>
LayerCount: 2
UndoRedoHistory
Layer: 1
Undoes
EndUndoes
Redoes
EndRedoes
EndUndoRedoHistory
Fore
SplineSet
726 681 m 1
 726 575 l 1
 366 575 l 1
 366 681 l 1
 726 681 l 1
EndSplineSet
Refer: 195 99 N -1 0 0 -1 965 1215 2
EndChar

StartChar: afii10096
Encoding: 238 1102 172
Width: 1470
VWidth: 0
GlyphClass: 2
Flags: W
HStem: -27 263<933.179 1047.76> 0 21<76 448> 981 263<933.179 1047.76>
VStem: 76 372<0 1216> 572.7 351.969<244.916 972.084> 1058.34 351.969<244.604 972.396>
LayerCount: 2
UndoRedoHistory
Layer: 1
Undoes
EndUndoes
Redoes
EndRedoes
EndUndoRedoHistory
Fore
SplineSet
259 747 m 1x3c
 741 747 l 1
 259 462 l 1
 259 747 l 1x3c
EndSplineSet
Refer: 301 111 N 0.961665 0 0 1 515 0 2
Refer: 282 -1 N 1 0 0 1 -1 0 2
EndChar

StartChar: afii10097
Encoding: 239 1103 173
Width: 1023
VWidth: 0
GlyphClass: 2
Flags: W
HStem: 0 21G<53 410.25 575 947>
VStem: 575 372<0 1216>
LayerCount: 2
UndoRedoHistory
Layer: 1
Undoes
EndUndoes
Redoes
EndRedoes
EndUndoRedoHistory
Fore
SplineSet
225 705 m 1
 535 607 l 1
 406 0 l 1
 53 0 l 1
 225 705 l 1
EndSplineSet
Refer: 209 -1 N -1 1.11022e-16 -1.11022e-16 -1 1035 1216 2
Refer: 282 -1 N 1 0 0 1 498 0 2
EndChar

StartChar: afii10101
Encoding: 244 1108 174
Width: 951
VWidth: 0
GlyphClass: 2
Flags: W
HStem: -27 263<442.901 548.104> 575 106<255 615> 981 263<442.901 548.104>
VStem: 60 374<240.902 976.098> 553 364<242.787 491 746 974.213>
LayerCount: 2
UndoRedoHistory
Layer: 1
Undoes
EndUndoes
Redoes
EndRedoes
EndUndoRedoHistory
Fore
SplineSet
615 681 m 1
 615 575 l 1
 255 575 l 1
 255 681 l 1
 615 681 l 1
EndSplineSet
Refer: 195 99 N 1 0 0 1 6 0 2
EndChar

StartChar: ampersand
Encoding: 38 38 177
Width: 1121
VWidth: 0
GlyphClass: 2
Flags: W
HStem: -29 238<372.661 559.222> 1432.68 253.318<417.552 559.273>
VStem: 48 277.745<253.737 581.194> 117 288<1133.24 1419.02> 574 271<1171.22 1420.16> 805 227<506.71 834>
LayerCount: 2
UndoRedoHistory
Layer: 0
Undoes
EndUndoes
Redoes
EndRedoes
EndUndoRedoHistory
UndoRedoHistory
Layer: 1
Undoes
EndUndoes
Redoes
EndRedoes
EndUndoRedoHistory
Fore
SplineSet
475 1033 m 1xd8
 497 1094 574 1255 574 1340 c 0
 574 1400.4777775 530.716612217 1432.68214059 487.959358354 1432.68214059 c 0
 446.229097743 1432.68214059 405 1402.00624155 405 1337 c 0
 405 1250 468 1083 475 1033 c 1xd8
443 209 m 0
 483 209 530 210 570 265 c 1
 570 265 429 594 405 653 c 1xd0
 346.96373268 551.790411869 325.745328514 466.6103696 325.745328514 398.789372541 c 0xe0
 325.745328514 274.96049218 396.479336872 209 443 209 c 0
976.581874062 -35.3974950693 m 0
 881.009864167 -35.3974950693 793.403759653 47.2526203014 728 104 c 1
 656 15 547 -29 435 -29 c 0
 212 -29 48 134 48 366 c 0xe4
 48 560 156 774 280 900 c 1
 205 1058 117 1175 117 1316 c 0
 117 1515 250 1686 469 1686 c 0
 683 1686 845 1548 845 1318 c 0
 845 1083 686 965 574 838 c 1xd8
 750 483 l 1
 784 537 805 728 805 834 c 1
 1032 834 l 1xc4
 1032 564 994 436 920 283 c 1
 944 253 996 228 1046 222 c 1
 1046 -24 l 1
 1023.29390323 -29.9752886233 1001.7503496 -35.3974950693 976.581874062 -35.3974950693 c 0
EndSplineSet
EndChar

StartChar: asciicircum
Encoding: 94 94 180
Width: 954
VWidth: 0
GlyphClass: 2
Flags: W
HStem: 821 653<328 373 561 606>
LayerCount: 2
UndoRedoHistory
Layer: 1
Undoes
EndUndoes
Redoes
EndRedoes
EndUndoRedoHistory
Fore
SplineSet
68 821 m 1
 328 1474 l 1
 606 1474 l 1
 868 821 l 1
 561 821 l 1
 466 1148 l 1
 373 821 l 1
 68 821 l 1
EndSplineSet
EndChar

StartChar: asciitilde
Encoding: 126 126 181
Width: 1009
VWidth: 0
GlyphClass: 2
Flags: W
HStem: 660 253.086<539.479 756.032> 775.056 256.944<324.208 482.299>
LayerCount: 2
UndoRedoHistory
Layer: 1
Undoes
EndUndoes
Redoes
EndRedoes
EndUndoRedoHistory
Fore
SplineSet
682.47265625 660 m 0x80
 561.0546875 660 457.920898438 775.055664062 384.93359375 775.055664062 c 0
 350.1875 775.055664062 322.2734375 748.98046875 302.47265625 672 c 1
 112.47265625 672 l 1
 112.44921875 674.1875 112.4375 676.37109375 112.4375 678.552734375 c 0
 112.4375 865.891601562 197.19921875 1032 345.47265625 1032 c 0x40
 466.231445312 1032 564.65234375 913.0859375 632.569335938 913.0859375 c 0
 665.224609375 913.0859375 690.829101562 940.578125 708.47265625 1022 c 1
 896.47265625 1022 l 1
 896.532226562 1017.95898438 896.5625 1013.93457031 896.5625 1009.92773438 c 0
 896.5625 813.662109375 824.571289062 660 682.47265625 660 c 0x80
EndSplineSet
EndChar

StartChar: asterisk
Encoding: 42 42 182
Width: 882
VWidth: 0
GlyphClass: 2
Flags: W
LayerCount: 2
UndoRedoHistory
Layer: 1
Undoes
EndUndoes
Redoes
EndRedoes
EndUndoRedoHistory
Fore
SplineSet
365 752 m 1
 147 881 l 1
 288 1083 l 1
 76 1165 l 1
 158 1384 l 1
 347 1279 l 1
 320 1501 l 1
 597 1501 l 1
 572 1277 l 1
 760 1385 l 1
 842 1163 l 1
 628 1081 l 1
 773 882 l 1
 552 752 l 1
 458 956 l 1
 365 752 l 1
EndSplineSet
EndChar

StartChar: at
Encoding: 64 64 183
Width: 1699
VWidth: 0
GlyphClass: 2
Flags: W
HStem: -64 193<650.54 1242.31> 1056 244<634.255 897.307> 1472 187<618.729 1128.1>
VStem: 51 229<498.469 1113.75> 950 272<582.396 1054.7 1145 1291> 1448 227<641.183 1139.14>
LayerCount: 2
UndoRedoHistory
Layer: 0
Undoes
EndUndoes
Redoes
EndRedoes
EndUndoRedoHistory
UndoRedoHistory
Layer: 1
Undoes
EndUndoes
Redoes
EndRedoes
EndUndoRedoHistory
Fore
SplineSet
868 584 m 1
 868 584 935 575 950 588 c 1
 950 1024 l 2
 950 1049 906 1056 891 1056 c 0
 744 1056 711 885 724 764 c 0
 734 668 776 584 868 584 c 1
931 -64 m 0
 332 -64 36 300 51 855 c 0
 63 1308 337 1659 868 1659 c 0
 1411 1659 1675 1327 1675 846 c 0
 1675 649 1583 350 1259 350 c 0
 1159 350 1036 383 985 475 c 1
 960 414 891 375 821 369 c 0
 609 351 457 531 441 765 c 0
 428 960 484 1300 788 1300 c 0
 897 1300 934 1185 950 1145 c 1
 950 1291 l 1
 1222 1291 l 1
 1222 715 l 2
 1222 681 1217 554 1255 538 c 0
 1342 502 1448 645 1448 850 c 0
 1448 1240 1283 1472 866 1472 c 0
 429 1472 292 1174 280 857 c 0
 264 418 430 129 938 129 c 0
 1029 129 1207 156 1308 193 c 1
 1365 -5 l 1
 1230 -35 1076 -64 931 -64 c 0
EndSplineSet
EndChar

StartChar: backslash
Encoding: 92 92 186
Width: 578
VWidth: 0
GlyphClass: 2
Flags: W
HStem: 0 21G<217.825 536>
VStem: 42 494
LayerCount: 2
UndoRedoHistory
Layer: 0
Undoes
EndUndoes
Redoes
EndRedoes
EndUndoRedoHistory
UndoRedoHistory
Layer: 1
Undoes
EndUndoes
Redoes
EndRedoes
EndUndoRedoHistory
Fore
SplineSet
220 0 m 1
 42 1637 l 1
 358 1637 l 1
 536 0 l 1
 220 0 l 1
EndSplineSet
EndChar

StartChar: bar
Encoding: 124 124 187
Width: 553
VWidth: 0
GlyphClass: 2
Flags: W
VStem: 128 297<-187 1638>
LayerCount: 2
UndoRedoHistory
Layer: 0
Undoes
EndUndoes
Redoes
EndRedoes
EndUndoRedoHistory
UndoRedoHistory
Layer: 1
Undoes
EndUndoes
Redoes
EndRedoes
EndUndoRedoHistory
Fore
SplineSet
128 -187 m 1
 128 1638 l 1
 425 1638 l 1
 425 -187 l 1
 128 -187 l 1
EndSplineSet
EndChar

StartChar: braceleft
Encoding: 123 123 188
Width: 781
VWidth: 0
GlyphClass: 2
Flags: W
HStem: -156 243<599.342 701> 1459 243<599.342 701>
VStem: 214 334<142.879 603.307 949.799 1403.12>
LayerCount: 2
UndoRedoHistory
Layer: 1
Undoes
EndUndoes
Redoes
EndRedoes
EndUndoRedoHistory
Fore
SplineSet
76 908 m 1
 224 908 214 1068 214 1194 c 0
 214 1530 313 1702 701 1702 c 1
 721 1459 l 1
 537 1461 548 1291 548 1152 c 0
 548 910 529 811 386 773 c 1
 529 735 548 636 548 394 c 0
 548 255 537 85 721 87 c 1
 701 -156 l 1
 313 -156 214 16 214 352 c 0
 214 478 233 638 76 638 c 1
 76 908 l 1
EndSplineSet
EndChar

StartChar: braceright
Encoding: 125 125 189
Width: 781
VWidth: 0
GlyphClass: 2
Flags: W
HStem: -156 243<96 197.658> 1459 243<96 197.658>
VStem: 249 334<142.879 603.307 949.799 1403.12>
LayerCount: 2
UndoRedoHistory
Layer: 1
Undoes
EndUndoes
Redoes
EndRedoes
EndUndoRedoHistory
Fore
SplineSet
721 908 m 1
 721 638 l 1
 564 638 583 478 583 352 c 0
 583 16 484 -156 96 -156 c 1
 76 87 l 1
 260 85 249 255 249 394 c 0
 249 636 268 735 411 773 c 1
 268 811 249 910 249 1152 c 0
 249 1291 260 1461 76 1459 c 1
 96 1702 l 1
 484 1702 583 1530 583 1194 c 0
 583 1068 573 908 721 908 c 1
EndSplineSet
EndChar

StartChar: bracketleft
Encoding: 91 91 190
Width: 813
VWidth: 0
GlyphClass: 2
Flags: W
HStem: -58 173<455 721> 1594 173<455 721>
VStem: 143 312<115 1594>
LayerCount: 2
UndoRedoHistory
Layer: 1
Undoes
EndUndoes
Redoes
EndRedoes
EndUndoRedoHistory
Fore
SplineSet
143 -58 m 1
 143 1767 l 1
 721 1767 l 1
 721 1594 l 1
 455 1594 l 1
 455 115 l 1
 721 115 l 1
 721 -58 l 1
 143 -58 l 1
EndSplineSet
EndChar

StartChar: bracketright
Encoding: 93 93 191
Width: 743
VWidth: 0
GlyphClass: 2
Flags: W
HStem: -58 134<88 349> 1567 134<88 349>
VStem: 349 272<76 1567>
LayerCount: 2
UndoRedoHistory
Layer: 1
Undoes
EndUndoes
Redoes
EndRedoes
EndUndoRedoHistory
Fore
SplineSet
88 -58 m 1
 88 76 l 1
 349 76 l 1
 349 1567 l 1
 88 1567 l 1
 88 1701 l 1
 621 1701 l 1
 621 -58 l 1
 88 -58 l 1
EndSplineSet
EndChar

StartChar: breve
Encoding: 365 728 192
Width: 650
VWidth: 0
GlyphClass: 2
Flags: W
HStem: 1344 117.872<238.539 371.837>
VStem: 45.8996 180.1<1472.76 1559> 385 179.1<1472.76 1559>
LayerCount: 2
UndoRedoHistory
Layer: 1
Undoes
EndUndoes
Redoes
EndRedoes
EndUndoRedoHistory
Fore
SplineSet
305 1344 m 0
 160.465332481 1344 45.8995840951 1450.34132596 45.8995840951 1553.71346817 c 0
 45.8995840951 1555.47669013 45.932916123 1557.23904823 46 1559 c 1
 226 1559 l 1
 226 1493.87930547 265.290954618 1461.8717425 304.809440135 1461.8717425 c 0
 344.788288602 1461.8717425 385 1494.62938092 385 1559 c 1
 564 1559 l 1
 564.067083877 1557.23904823 564.100415905 1555.47669013 564.100415905 1553.71346817 c 0
 564.100415905 1450.34132596 449.534667519 1344 305 1344 c 0
EndSplineSet
EndChar

StartChar: brokenbar
Encoding: 366 166 193
Width: 412
VWidth: 0
GlyphClass: 2
Flags: W
VStem: 73 251<-194 630 814 1638>
LayerCount: 2
UndoRedoHistory
Layer: 1
Undoes
EndUndoes
Redoes
EndRedoes
EndUndoRedoHistory
Fore
SplineSet
73 814 m 1
 73 1638 l 1
 324 1638 l 1
 324 814 l 1
 73 814 l 1
73 -194 m 1
 73 630 l 1
 324 630 l 1
 324 -194 l 1
 73 -194 l 1
EndSplineSet
EndChar

StartChar: bullet
Encoding: 367 8226 194
Width: 1059
VWidth: 0
GlyphClass: 2
Flags: W
HStem: 202 855<343.382 709.757>
VStem: 115 825<430.093 824.416>
LayerCount: 2
UndoRedoHistory
Layer: 1
Undoes
EndUndoes
Redoes
EndRedoes
EndUndoRedoHistory
Fore
SplineSet
526 202 m 0
 328 202 115 341 115 626 c 0
 115 918 329 1057 526 1057 c 0
 725 1057 940 913 940 626 c 0
 940 342 724 202 526 202 c 0
EndSplineSet
EndChar

StartChar: c
Encoding: 99 99 195
Width: 968
VWidth: 0
GlyphClass: 2
Flags: W
HStem: -27 263<436.901 542.104> 981 263<436.901 542.104>
VStem: 54 374<240.902 976.098> 547 364<242.787 491 746 974.213>
LayerCount: 2
UndoRedoHistory
Layer: 1
Undoes
EndUndoes
Redoes
EndRedoes
EndUndoRedoHistory
Fore
SplineSet
485 -27 m 0
 237 -27 54 108 54 344 c 2
 54 873 l 2
 54 1109 237 1244 485 1244 c 0
 733 1244 911 1128 911 891 c 2
 911 746 l 1
 547 746 l 1
 547 893 l 2
 547 970 517 981 485 981 c 0
 455 981 428 959 428 885 c 2
 428 332 l 2
 428 258 455 236 485 236 c 0
 517 236 547 247 547 324 c 2
 547 491 l 1
 911 491 l 1
 911 326 l 2
 911 89 733 -27 485 -27 c 0
EndSplineSet
EndChar

StartChar: caron
Encoding: 369 711 197
Width: 868
VWidth: 0
GlyphClass: 2
Flags: W
HStem: 1271 389<252 334 530 606>
LayerCount: 2
UndoRedoHistory
Layer: 1
Undoes
EndUndoes
Redoes
EndRedoes
EndUndoRedoHistory
Fore
SplineSet
252 1271 m 1
 75 1660 l 1
 334 1660 l 1
 430 1443 l 1
 530 1660 l 1
 790 1660 l 1
 606 1271 l 1
 252 1271 l 1
EndSplineSet
EndChar

StartChar: cedilla
Encoding: 374 184 202
Width: 580
VWidth: 0
GlyphClass: 2
Flags: W
HStem: -571 155<127 367.961>
VStem: 183 126<-142 0> 376 232<-420.187 -301.17>
LayerCount: 2
UndoRedoHistory
Layer: 1
Undoes
EndUndoes
Redoes
EndRedoes
EndUndoRedoHistory
Fore
SplineSet
127 -571 m 1
 127 -416 l 1
 190 -434 376 -451 376 -378 c 0
 376 -292 258 -260 183 -260 c 1
 183 0 l 1
 309 0 l 1
 309 -142 l 1
 478 -142 608 -230 608 -359 c 0
 608 -589 329 -632 127 -571 c 1
EndSplineSet
EndChar

StartChar: cent
Encoding: 375 162 203
Width: 949
VWidth: 0
GlyphClass: 2
Flags: W
HStem: -27 263<436.901 542.104> 981 263<436.901 542.104>
VStem: 54 374<240.902 976.098> 433 91<-317 5 1160 1479> 547 364<242.787 491 746 974.213>
LayerCount: 2
UndoRedoHistory
Layer: 1
Undoes
EndUndoes
Redoes
EndRedoes
EndUndoRedoHistory
Fore
SplineSet
433 5 m 1
 524 5 l 1
 524 -317 l 1
 433 -317 l 1
 433 5 l 1
524 1160 m 1
 433 1160 l 1
 433 1479 l 1
 524 1479 l 1
 524 1160 l 1
EndSplineSet
Refer: 195 99 N 1 0 0 1 0 0 2
EndChar

StartChar: circumflex
Encoding: 376 710 204
Width: 876
VWidth: 0
GlyphClass: 2
Flags: W
HStem: 1247 405<301 372 527 591>
LayerCount: 2
UndoRedoHistory
Layer: 1
Undoes
EndUndoes
Redoes
EndRedoes
EndUndoRedoHistory
Fore
SplineSet
102 1247 m 1
 301 1652 l 1
 591 1652 l 1
 798 1247 l 1
 527 1247 l 1
 449 1491 l 1
 372 1247 l 1
 102 1247 l 1
EndSplineSet
EndChar

StartChar: colon
Encoding: 58 58 205
Width: 502
VWidth: 0
GlyphClass: 2
Flags: W
HStem: 86 338<79 421> 841 338<79 421>
VStem: 79 342<86 424 841 1179>
LayerCount: 2
UndoRedoHistory
Layer: 1
Undoes
EndUndoes
Redoes
EndRedoes
EndUndoRedoHistory
Fore
SplineSet
79 841 m 1
 79 1179 l 1
 421 1179 l 1
 421 841 l 1
 79 841 l 1
79 86 m 1
 79 424 l 1
 421 424 l 1
 421 86 l 1
 79 86 l 1
EndSplineSet
EndChar

StartChar: comma
Encoding: 44 44 206
Width: 457
VWidth: 0
GlyphClass: 2
Flags: W
HStem: -291 111<101 184.564> 0 341<47 241>
VStem: 47 344.665<4.80224 341> 241 150.665<-123.303 0>
LayerCount: 2
UndoRedoHistory
Layer: 1
Undoes
EndUndoes
Redoes
EndRedoes
EndUndoRedoHistory
Fore
SplineSet
101 -291 m 1xe0
 86 -180 l 1
 158 -164 241 -130 241 0 c 1xd0
 47 0 l 1
 47 341 l 1
 392 341 l 1
 391.665039062 55 l 2
 391 -167 294.383789062 -289.420898438 101 -291 c 1xe0
EndSplineSet
EndChar

StartChar: copyright
Encoding: 377 169 207
Width: 1706
VWidth: 0
GlyphClass: 2
Flags: W
HStem: -22 48<656.314 1051.3> 129.983 282.646<795.537 908.599> 1213.28 282.646<795.537 908.599> 1598 48<656.314 1051.02>
VStem: 60 59<580.894 1054.55> 384.034 401.938<417.898 1208.01> 913.861 391.191<419.923 686.678 960.726 1205.99> 1588 58<580.708 1045.27>
LayerCount: 2
UndoRedoHistory
Layer: 1
Undoes
EndUndoes
Redoes
EndRedoes
EndUndoRedoHistory
Fore
SplineSet
854 -22 m 0
 289 -22 60 411 60 812 c 0
 60 1214 289 1646 854 1646 c 0
 1417 1646 1646 1214 1646 812 c 0
 1646 410 1419 -22 854 -22 c 0
854 26 m 0
 1364 26 1588 416 1588 814 c 0
 1588 1213 1364 1598 854 1598 c 0
 342 1598 119 1213 119 814 c 0
 119 416 342 26 854 26 c 0
EndSplineSet
Refer: 195 99 N 1.0747 0 0 1.0747 326 159 2
EndChar

StartChar: currency
Encoding: 378 164 208
Width: 958
VWidth: 0
GlyphClass: 2
Flags: W
HStem: 577 183<388.694 575.931> 1058 185<382.132 575.894>
VStem: 143 208<794.403 1030.52> 607 207<789.252 1030.38>
LayerCount: 2
UndoRedoHistory
Layer: 1
Undoes
EndUndoes
Redoes
EndRedoes
EndUndoRedoHistory
Fore
SplineSet
479 760 m 1
 572 758 607 834 607 910 c 0
 607 985 573 1061 479 1058 c 1
 385 1061 351 987 351 911 c 0
 351 832 400 758 479 760 c 1
184 574 m 1
 89 675 l 1
 169 738 l 1
 149 794 143 852 143 911 c 0
 143 969 150 1027 172 1084 c 1
 89 1148 l 1
 184 1250 l 1
 267 1184 l 1
 319 1220 388 1243 479 1243 c 0
 567 1243 633 1222 685 1188 c 1
 765 1250 l 1
 860 1148 l 1
 779 1086 l 1
 804 1031 814 972 814 911 c 0
 814 849 805 790 781 733 c 1
 860 675 l 1
 765 574 l 1
 687 633 l 1
 635 598 568 577 479 577 c 0
 387 577 319 599 266 636 c 1
 184 574 l 1
EndSplineSet
EndChar

StartChar: cyrillic_lc_right_bowl
Encoding: 379 -1 209
Width: 0
VWidth: 0
Flags: W
HStem: 0 211<265 629.323> 493 220<265 623.664>
VStem: 663 338<249.994 453.15>
LayerCount: 2
UndoRedoHistory
Layer: 1
Undoes
EndUndoes
Redoes
EndRedoes
EndUndoRedoHistory
Fore
SplineSet
265 713 m 1
 481 713 l 2
 809 713 1001 627 1001 346 c 0
 1001 102 850 0 490 0 c 2
 265 0 l 1
 265 211 l 1
 449 211 l 2
 588 211 663 245 663 343 c 0
 663 467 578 493 449 493 c 2
 265 493 l 1
 265 713 l 1
EndSplineSet
EndChar

StartChar: cyrillic_uc_right_bowl
Encoding: 380 -1 210
Width: 0
VWidth: 0
Flags: W
HStem: 0 267<437 771.748> 671 283<437 775.443>
VStem: 816 380<305.144 626.385>
LayerCount: 2
UndoRedoHistory
Layer: 1
Undoes
EndUndoes
Redoes
EndRedoes
EndUndoRedoHistory
Fore
SplineSet
437 954 m 1
 721 954 l 2
 1019 954 1196 792 1196 478 c 0
 1196 54 941 0 672 0 c 2
 437 0 l 1
 437 267 l 1
 675 267 l 2
 790 267 822 354 816 487 c 0
 812 574 790 671 671 671 c 2
 437 671 l 1
 437 954 l 1
EndSplineSet
EndChar

StartChar: dagger
Encoding: 381 8224 212
Width: 800
VWidth: 0
GlyphClass: 2
Flags: W
HStem: 0 21G<255 540> 814 298<95 255 540 699>
VStem: 255 285<0 814 1112 1413>
LayerCount: 2
UndoRedoHistory
Layer: 1
Undoes
EndUndoes
Redoes
EndRedoes
EndUndoRedoHistory
Fore
SplineSet
255 0 m 1
 255 814 l 1
 95 814 l 1
 95 1112 l 1
 255 1112 l 1
 255 1413 l 1
 540 1413 l 1
 540 1112 l 1
 699 1112 l 1
 699 814 l 1
 540 814 l 1
 540 0 l 1
 255 0 l 1
EndSplineSet
EndChar

StartChar: daggerdbl
Encoding: 382 8225 213
Width: 800
VWidth: 0
GlyphClass: 2
Flags: W
HStem: 0 21G<255 540> 403 193<89 255 540 699> 899 208<89 255 540 699>
VStem: 89 610<403 596 899 1107> 255 285<0 403 596 899 1107 1413>
LayerCount: 2
UndoRedoHistory
Layer: 1
Undoes
EndUndoes
Redoes
EndRedoes
EndUndoRedoHistory
Fore
SplineSet
255 0 m 1xe8
 255 403 l 1xe8
 89 403 l 1
 89 596 l 1xf0
 255 596 l 1
 255 899 l 1xe8
 89 899 l 1
 89 1107 l 1xf0
 255 1107 l 1
 255 1413 l 1
 540 1413 l 1
 540 1107 l 1xe8
 699 1107 l 1
 699 899 l 1xf0
 540 899 l 1
 540 596 l 1xe8
 699 596 l 1
 699 403 l 1xf0
 540 403 l 1
 540 0 l 1
 255 0 l 1xe8
EndSplineSet
EndChar

StartChar: dcroat
Encoding: 384 273 215
Width: 978
VWidth: 0
GlyphClass: 2
Flags: W
HStem: -18 263<229.5 528> 0 21<551 923> 990 254<234 540.5> 1395 139<293 1045>
VStem: 60 374<251.383 982.128> 551 372<0 1626>
LayerCount: 2
UndoRedoHistory
Layer: 1
Undoes
EndUndoes
Redoes
EndRedoes
EndUndoRedoHistory
Fore
SplineSet
293 1534 m 1x3c
 1045 1534 l 1
 1045 1395 l 1
 293 1395 l 1
 293 1534 l 1x3c
EndSplineSet
Refer: 211 100 N 1 0 0 1 0 0 2
EndChar

StartChar: degree
Encoding: 385 176 216
Width: 1166
VWidth: 0
GlyphClass: 2
Flags: W
HStem: 858 231<459.529 689.684> 1498 232<458.084 689.395>
VStem: 140 257<1152.48 1432.01> 752 259<1152.03 1431.56>
LayerCount: 2
UndoRedoHistory
Layer: 1
Undoes
EndUndoes
Redoes
EndRedoes
EndUndoRedoHistory
Fore
SplineSet
574 858 m 0
 315 858 140 1020 140 1295 c 0
 140 1572 316 1730 574 1730 c 0
 833 1730 1011 1572 1011 1295 c 0
 1011 1019 836 858 574 858 c 0
574 1089 m 0
 685 1089 752 1179 752 1294 c 0
 752 1410 686 1498 574 1498 c 0
 465 1498 397 1412 397 1295 c 0
 397 1180 465 1089 574 1089 c 0
EndSplineSet
EndChar

StartChar: dieresis
Encoding: 386 168 217
Width: 886
VWidth: 0
GlyphClass: 2
Flags: W
HStem: 1385 328<65 346 540 821>
VStem: 65 281<1385 1713> 540 281<1385 1713>
LayerCount: 2
UndoRedoHistory
Layer: 1
Undoes
EndUndoes
Redoes
EndRedoes
EndUndoRedoHistory
Fore
SplineSet
65 1385 m 1
 65 1713 l 1
 346 1713 l 1
 346 1385 l 1
 65 1385 l 1
540 1385 m 1
 540 1713 l 1
 821 1713 l 1
 821 1385 l 1
 540 1385 l 1
EndSplineSet
EndChar

StartChar: divide
Encoding: 387 247 218
Width: 739
VWidth: 0
GlyphClass: 2
Flags: W
HStem: 229 262<248.5 527.5> 587 184<13.5 725.5> 866 262<248.5 527.5>
VStem: 248.5 279<229 491 866 1128>
LayerCount: 2
UndoRedoHistory
Layer: 0
Undoes
EndUndoes
Redoes
EndRedoes
EndUndoRedoHistory
UndoRedoHistory
Layer: 1
Undoes
EndUndoes
Redoes
EndRedoes
EndUndoRedoHistory
Fore
SplineSet
248.5 866 m 1
 248.5 1128 l 1
 527.5 1128 l 1
 527.5 866 l 1
 248.5 866 l 1
13.5 587 m 1
 13.5 771 l 1
 725.5 771 l 1
 725.5 587 l 1
 13.5 587 l 1
248.5 229 m 1
 248.5 491 l 1
 527.5 491 l 1
 527.5 229 l 1
 248.5 229 l 1
EndSplineSet
EndChar

StartChar: dollar
Encoding: 36 36 219
Width: 1108
VWidth: 0
GlyphClass: 2
Flags: W
VStem: 99 406<1107.61 1306.32> 508 90<-75 89 1621 1811> 600 408<403.577 577.148>
LayerCount: 2
UndoRedoHistory
Layer: 1
Undoes
EndUndoes
Redoes
EndRedoes
EndUndoRedoHistory
Fore
SplineSet
508 -75 m 1
 508 90 l 1
 195 114 81 312 95 560 c 1
 493.960613913 630.460824414 l 1
 470.674359655 647.310361559 445.842090319 664.041229385 422 683 c 1
 394 707 l 1
 254 817 99 930 99 1179 c 0
 99 1435 262 1587 508 1616 c 1
 508 1811 l 1
 598 1811 l 1
 598 1621 l 1
 840 1615 1032 1437 1016 1215 c 1
 1015 1221 1013 1168 1012 1174 c 1
 580 1126 l 1
 582 1141 586 1169 588 1200 c 1
 604 1241 622 1311 552 1311 c 0
 502 1311 505 1243 505 1228 c 0
 505 1124 570 1075 646 1021 c 1
 694 989 l 1
 901 836 1008 740 1008 472 c 0
 1008 258 818 100 598 89 c 1
 598 -75 l 1
 508 -75 l 1
513.558571391 615.875917711 m 1
 513.173830551 602.247310962 512.586915275 586.478508348 512 590 c 1
 500 541 474 400 573 402 c 1
 626 402 600 457 600 467 c 0
 600 536.968301204 562.253185499 578.328490364 513.558571391 615.875917711 c 1
EndSplineSet
EndChar

StartChar: dotaccent
Encoding: 388 729 220
Width: 587
VWidth: 0
GlyphClass: 2
Flags: W
HStem: 1396 341<145 490>
VStem: 145 345<1396 1737>
LayerCount: 2
UndoRedoHistory
Layer: 1
Undoes
EndUndoes
Redoes
EndRedoes
EndUndoRedoHistory
Fore
SplineSet
145 1396 m 1
 145 1737 l 1
 490 1737 l 1
 490 1396 l 1
 145 1396 l 1
EndSplineSet
EndChar

StartChar: dotlessi
Encoding: 389 305 221
Width: 538
VWidth: 0
GlyphClass: 2
Flags: W
HStem: 0 21G<80 458>
VStem: 80 378<0 1217>
LayerCount: 2
UndoRedoHistory
Layer: 0
Undoes
EndUndoes
Redoes
EndRedoes
EndUndoRedoHistory
UndoRedoHistory
Layer: 1
Undoes
EndUndoes
Redoes
EndRedoes
EndUndoRedoHistory
Fore
SplineSet
80 0 m 1
 80 1217 l 1
 458 1217 l 1
 458 0 l 1
 80 0 l 1
EndSplineSet
EndChar

StartChar: e
Encoding: 101 101 222
Width: 973
VWidth: 0
GlyphClass: 2
Flags: W
HStem: -27 263<440.537 558.782> 561 200<428 565> 981 263<440.537 558.782>
VStem: 60 368<240.902 561 761 976.098> 565 352<242.787 469 761 974.213>
LayerCount: 2
UndoRedoHistory
Layer: 1
Undoes
EndUndoes
Redoes
EndRedoes
EndUndoRedoHistory
Fore
SplineSet
491 -27 m 0
 243 -27 60 108 60 344 c 2
 60 873 l 2
 60 1109 243 1244 491 1244 c 0
 739 1244 917 1128 917 891 c 2
 917 561 l 1
 738 561 l 1
 565 561 l 1
 428 561 l 1
 428 332 l 2
 428 258 461 236 491 236 c 0
 523 236 565 247 565 324 c 2
 565 469 l 1
 917 469 l 1
 917 326 l 2
 917 89 739 -27 491 -27 c 0
565 761 m 1
 565 893 l 2
 565 970 523 981 491 981 c 0
 461 981 428 959 428 885 c 2
 428 761 l 1
 565 761 l 1
EndSplineSet
EndChar

StartChar: eight
Encoding: 56 56 229
Width: 1068
VWidth: 0
GlyphClass: 2
Flags: W
HStem: -30 278<469.095 599.732> 691 292<475.748 588.058> 1368 284<475.373 591.203>
VStem: 65.2515 378.749<267.057 672.929> 93 358<998.166 1352.45> 613 358<997.883 1351.34> 624 380.25<266.197 673.352>
LayerCount: 2
UndoRedoHistory
Layer: 1
Undoes
EndUndoes
Redoes
EndRedoes
EndUndoRedoHistory
Fore
SplineSet
534 983 m 0xec
 580 983 613 1040 613 1215 c 0
 613 1319 582 1368 534 1368 c 0
 482 1368 451 1319 451 1216 c 0
 451 1040 482 983 534 983 c 0xec
534 248 m 0
 627 248 624 389 624 456 c 0
 625 573 629 691 534 691 c 0
 440 691 444 573 444 456 c 0xf2
 444 387 442 248 534 248 c 0
534.251 -30 m 0
 185.251 -30 60 182 65.2515 490 c 0xf2
 68 636 118 794 251 854 c 1
 174 910 98 1021 93 1205 c 0
 85 1491 245.251 1652 534.251 1652 c 0
 825.251 1652 979 1488 971 1205 c 0xec
 966 1021 893 908 815 854 c 1
 947 794 1000 637 1004.25 490 c 0
 1013 180 887.251 -30 534.251 -30 c 0
EndSplineSet
EndChar

StartChar: endash
Encoding: 398 8211 232
Width: 1024
VWidth: 0
GlyphClass: 2
Flags: W
HStem: 410 243<0 1024>
LayerCount: 2
UndoRedoHistory
Layer: 1
Undoes
EndUndoes
Redoes
EndRedoes
EndUndoRedoHistory
Fore
SplineSet
0 410 m 1
 0 653 l 1
 1024 653 l 1
 1024 410 l 1
 0 410 l 1
EndSplineSet
EndChar

StartChar: eng
Encoding: 399 331 233
Width: 1039
VWidth: 0
GlyphClass: 2
Flags: W
HStem: -406 237<373 561.229> 0 21<76 448>
VStem: 76 372<0 1216> 595 372<0 979.074>
LayerCount: 2
UndoRedoHistory
Layer: 1
Undoes
EndUndoes
Redoes
EndRedoes
EndUndoRedoHistory
Fore
SplineSet
373 -406 m 1
 373 -169 l 1
 548 -172 595 -129 595 -10 c 2
 595 0 l 1
 967 0 l 1
 967 -12 l 2
 967 -304 894 -406 574 -406 c 2
 373 -406 l 1
EndSplineSet
Refer: 294 110 N 1 0 0 1 0 0 2
EndChar

StartChar: equal
Encoding: 61 61 235
Width: 690
VWidth: 0
GlyphClass: 2
Flags: W
HStem: 471 214<48 642> 857 214<48 642>
VStem: 48 594<471 685 857 1071>
LayerCount: 2
UndoRedoHistory
Layer: 1
Undoes
EndUndoes
Redoes
EndRedoes
EndUndoRedoHistory
Fore
SplineSet
48 857 m 1
 48 1071 l 1
 642 1071 l 1
 642 857 l 1
 48 857 l 1
48 471 m 1
 48 685 l 1
 642 685 l 1
 642 471 l 1
 48 471 l 1
EndSplineSet
EndChar

StartChar: eth
Encoding: 401 240 236
Width: 1024
VWidth: 0
GlyphClass: 2
Flags: W
HStem: -18 263<231.5 530> 0 21<560 932> 990 254<236 542.5>
VStem: 62 374<251.383 982.128> 560 372<0 1216>
LayerCount: 2
UndoRedoHistory
Layer: 1
Undoes
EndUndoes
Redoes
EndRedoes
EndUndoRedoHistory
Fore
SplineSet
560 1190 m 1x38
 560 1285 543 1352 522 1376 c 1
 400 1297 l 1
 343 1374 l 1
 474 1461 l 1
 463 1478 441 1502 298 1507 c 1
 365 1766 l 1
 603 1771 689 1719 775 1641 c 1
 920 1737 l 1
 978 1654 l 1
 833 1558 l 1
 883 1489 932 1378 932 1190 c 1
 560 1190 l 1x38
EndSplineSet
Refer: 279 -1 N 1 0 0 1 -301 0 2
Refer: 282 -1 N 1 0 0 1 483 0 2
EndChar

StartChar: exclam
Encoding: 33 33 237
Width: 507
VWidth: 0
GlyphClass: 2
Flags: W
HStem: 0 340<68 414>
VStem: 68 346<0 340> 180 129<446 573.127>
LayerCount: 2
UndoRedoHistory
Layer: 1
Undoes
EndUndoes
Redoes
EndRedoes
EndUndoRedoHistory
Fore
SplineSet
180 446 m 1xa0
 76 1652 l 1
 445 1652 l 1
 309 446 l 1
 180 446 l 1xa0
68 0 m 1xc0
 68 340 l 1
 414 340 l 1
 414 0 l 1
 68 0 l 1xc0
EndSplineSet
EndChar

StartChar: exclamdown
Encoding: 402 161 238
Width: 507
VWidth: 0
GlyphClass: 2
Flags: W
HStem: 805 341<102 447>
VStem: 102 345<805 1146> 207 129<571.873 699>
LayerCount: 2
UndoRedoHistory
Layer: 1
Undoes
EndUndoes
Redoes
EndRedoes
EndUndoRedoHistory
Fore
SplineSet
102 805 m 1xc0
 102 1146 l 1
 447 1146 l 1
 447 805 l 1
 102 805 l 1xc0
71 -507 m 1
 207 699 l 1
 336 699 l 1xa0
 439 -507 l 1
 71 -507 l 1
EndSplineSet
EndChar

StartChar: f
Encoding: 102 102 239
Width: 643
VWidth: 0
GlyphClass: 2
Flags: W
HStem: 0 21G<119 491> 958 258<16 119 491 631> 1348 277<312 631>
VStem: 119 372<0 958 1216 1337.6>
LayerCount: 2
UndoRedoHistory
Layer: 0
Undoes
EndUndoes
Redoes
EndRedoes
EndUndoRedoHistory
UndoRedoHistory
Layer: 1
Undoes
EndUndoes
Redoes
EndRedoes
EndUndoRedoHistory
Fore
SplineSet
631 1339 m 1
 613 1342 588 1348 564 1348 c 0
 526 1348 491 1334 491 1278 c 2
 491 1216 l 1
 631 1216 l 1
 631 958 l 1
 491 958 l 1
 491 0 l 1
 119 0 l 1
 119 958 l 1
 16 958 l 1
 16 1216 l 1
 119 1216 l 1
 119 1282 l 2
 119 1486 157 1625 467 1625 c 0
 515 1625 569 1622 631 1615 c 1
 631 1339 l 1
EndSplineSet
EndChar

StartChar: five
Encoding: 53 53 240
Width: 1069
VWidth: 0
GlyphClass: 2
Flags: W
HStem: 1319 307<437 931>
VStem: 95 368<267.374 493> 651 356<260.967 802.559>
LayerCount: 2
UndoRedoHistory
Layer: 1
Undoes
EndUndoes
Redoes
EndRedoes
EndUndoRedoHistory
Fore
SplineSet
539 -35 m 0
 154 -35 95 182 95 493 c 1
 463 493 l 1
 463 286 485 239 568 245 c 0
 650 251 651 361 651 574 c 0
 651 716 633 837 542 837 c 0
 479 837 443 795 430 681 c 1
 96 681 l 1
 136 1626 l 1
 931 1626 l 1
 931 1319 l 1
 437 1319 l 1
 416 1047 l 1
 436 1077 521 1108 605 1120 c 0
 853 1155 1007 959 1007 577 c 0
 1007 217 949 -35 539 -35 c 0
EndSplineSet
EndChar

StartChar: foundryicon
Encoding: 403 -1 241
Width: 1559
VWidth: 0
GlyphClass: 2
Flags: W
LayerCount: 2
UndoRedoHistory
Layer: 1
Undoes
EndUndoes
Redoes
EndRedoes
EndUndoRedoHistory
Fore
SplineSet
361 249 m 1
 512 737 l 1
 99 1041 l 1
 614 1051 l 1
 774 1539 l 1
 943 1051 l 1
 1458 1051 l 1
 1043 737 l 1
 1196 249 l 1
 774 544 l 1
 361 249 l 1
EndSplineSet
EndChar

StartChar: four
Encoding: 52 52 242
Width: 1069
VWidth: 0
GlyphClass: 2
Flags: W
HStem: 0 21G<563 897> 364 279<360 563 897 1046>
VStem: 563 334<0 364 643 1157>
LayerCount: 2
UndoRedoHistory
Layer: 1
Undoes
EndUndoes
Redoes
EndRedoes
EndUndoRedoHistory
Fore
SplineSet
360 643 m 1
 563 643 l 1
 563 1157 l 1
 360 643 l 1
563 0 m 1
 563 364 l 1
 46 364 l 1
 46 628 l 1
 481 1626 l 1
 897 1626 l 1
 897 643 l 1
 1046 643 l 1
 1046 364 l 1
 897 364 l 1
 897 0 l 1
 563 0 l 1
EndSplineSet
EndChar

StartChar: fraction
Encoding: 404 8260 243
Width: 619
VWidth: 0
GlyphClass: 2
Flags: W
HStem: 0 21G<10 250.432>
VStem: 10 599
LayerCount: 2
UndoRedoHistory
Layer: 1
Undoes
EndUndoes
Redoes
EndRedoes
EndUndoRedoHistory
Fore
SplineSet
10 0 m 1
 374 1638 l 1
 609 1638 l 1
 246 0 l 1
 10 0 l 1
EndSplineSet
EndChar

StartChar: g
Encoding: 103 103 244
Width: 1058
VWidth: 0
GlyphClass: 2
Flags: W
HStem: -312 217<412.256 712.134> 408 213<465.565 586.387> 1032 214<463.922 589.294>
VStem: 73 378<627.98 1026.14> 602 358<630.663 1012.57>
LayerCount: 2
UndoRedoHistory
Layer: 1
Undoes
EndUndoes
Redoes
EndRedoes
EndUndoRedoHistory
Fore
SplineSet
525 621 m 0
 593 621 602 681 602 827 c 0
 602 977 599 1032 523 1032 c 0
 447 1032 451 956 451 827 c 0
 451 691 457 621 525 621 c 0
561 -95 m 0
 664 -95 713 -79 720 -34 c 0
 732 38 696 59 606 72 c 2
 434.33766257 97.4583975002 l 1
 413.930799908 64.0100627129 395 24.0213726753 395 -10 c 0
 395 -66 446 -95 561 -95 c 0
561 -312 m 0
 387 -312 42 -295 42 -70 c 0
 42 18.0896774311 137.740496169 96.0760864222 212.424420545 153.280637903 c 1
 101.318943098 196.723265199 60.6407808825 234.447970377 49 286 c 0
 25.2734830436 388.814906811 109.132508736 462.856935937 198.66974731 532.860876156 c 1
 126.440862071 585.498243597 73 667.060535212 73 805 c 0
 73 1114 247 1246 516 1246 c 0
 628.08772592 1246 736.728632004 1214.28925751 795.561174604 1152.012502 c 1
 844.38632396 1205.75800253 900.69316198 1258.07089179 957 1289 c 1
 1004 1313 l 1
 1089 1146 l 1
 1055.8942066 1134.17650236 959.414636138 1086.3169354 892.121840238 1047.47722903 c 1
 923.121280338 1008.9616773 960 939.414864351 960 810 c 0
 960 563 824 408 548 408 c 0
 466.697304899 408 387.338574574 425.495682995 328.180360661 450.576349526 c 1
 301.479944533 419.375999203 283.800507677 389.890433191 290 367 c 0
 299 332 451 318 689 283 c 0
 946 245 1015 158 1015 1 c 0
 1015 -167 917.471 -312 561 -312 c 0
EndSplineSet
EndChar

StartChar: germandbls
Encoding: 408 223 248
Width: 1126
VWidth: 0
GlyphClass: 2
Flags: W
HStem: -35 21G<532 701> 0 21<76 448> 1437 249<478.484 640.007>
VStem: 76 372<0 1216> 685 306<1051.62 1390.38>
LayerCount: 2
UndoRedoHistory
Layer: 1
Undoes
EndUndoes
Redoes
EndRedoes
EndUndoRedoHistory
Fore
SplineSet
532 -35 m 1
 532 243 l 1
 648 243 740 303 722 514 c 0
 712.650073948 623.601910945 632 704 555 704 c 2
 536 704 l 1
 536 986 l 1
 551 986 l 2
 630 986 685 1051.92734093 685 1224 c 0
 685 1376 620 1437 556 1437 c 0
 475.9375 1437 444 1358 448 1216 c 1
 76 1216 l 1
 76 1438 184 1686 526 1686 c 0
 854 1686 991 1515 991 1232 c 0
 991 1084 924 954 735 883 c 1
 959 818 1092 652 1092 459 c 0
 1092 92 870 -35 532 -35 c 1
EndSplineSet
Refer: 282 -1 N 1 0 0 1 -1 0 2
EndChar

StartChar: grave
Encoding: 96 96 249
Width: 650
VWidth: 0
GlyphClass: 2
Flags: W
HStem: 1281 415<339 455>
VStem: 71 511
LayerCount: 2
UndoRedoHistory
Layer: 1
Undoes
EndUndoes
Redoes
EndRedoes
EndUndoRedoHistory
Fore
SplineSet
339 1281 m 1
 71 1696 l 1
 455 1696 l 1
 582 1281 l 1
 339 1281 l 1
EndSplineSet
EndChar

StartChar: greater
Encoding: 62 62 250
Width: 833
VWidth: 0
GlyphClass: 2
Flags: W
VStem: 109 651
LayerCount: 2
UndoRedoHistory
Layer: 1
Undoes
EndUndoes
Redoes
EndRedoes
EndUndoRedoHistory
Fore
SplineSet
109 252 m 1
 109 564 l 1
 495 842 l 1
 109 1116 l 1
 109 1430 l 1
 760 975 l 1
 760 705 l 1
 109 252 l 1
EndSplineSet
EndChar

StartChar: guillemotleft
Encoding: 409 171 251
Width: 1019
VWidth: 0
GlyphClass: 2
Flags: W
LayerCount: 2
UndoRedoHistory
Layer: 1
Undoes
EndUndoes
Redoes
EndRedoes
EndUndoRedoHistory
Fore
SplineSet
956 34 m 1
 528 518 l 1
 528 634 l 1
 956 1118 l 1
 956 783 l 1
 733 577 l 1
 956 369 l 1
 956 34 l 1
499 34 m 1
 71 518 l 1
 71 634 l 1
 499 1118 l 1
 499 783 l 1
 276 577 l 1
 499 369 l 1
 499 34 l 1
EndSplineSet
EndChar

StartChar: guillemotright
Encoding: 410 187 252
Width: 1020
VWidth: 0
GlyphClass: 2
Flags: W
LayerCount: 2
UndoRedoHistory
Layer: 1
Undoes
EndUndoes
Redoes
EndRedoes
EndUndoRedoHistory
Fore
SplineSet
516 34 m 1
 516 369 l 1
 738 577 l 1
 516 783 l 1
 516 1118 l 1
 942 634 l 1
 942 518 l 1
 516 34 l 1
58 34 m 1
 58 369 l 1
 281 577 l 1
 58 783 l 1
 58 1118 l 1
 485 634 l 1
 485 518 l 1
 58 34 l 1
EndSplineSet
EndChar

StartChar: guilsinglleft
Encoding: 411 8249 253
Width: 578
VWidth: 0
GlyphClass: 2
Flags: W
VStem: 71 428
LayerCount: 2
UndoRedoHistory
Layer: 1
Undoes
EndUndoes
Redoes
EndRedoes
EndUndoRedoHistory
Fore
SplineSet
499 34 m 1
 71 518 l 1
 71 634 l 1
 499 1118 l 1
 499 783 l 1
 276 577 l 1
 499 369 l 1
 499 34 l 1
EndSplineSet
EndChar

StartChar: guilsinglright
Encoding: 412 8250 254
Width: 555
VWidth: 0
GlyphClass: 2
Flags: W
VStem: 71 428
LayerCount: 2
UndoRedoHistory
Layer: 1
Undoes
EndUndoes
Redoes
EndRedoes
EndUndoRedoHistory
Fore
SplineSet
71 34 m 1
 71 369 l 1
 294 577 l 1
 71 783 l 1
 71 1118 l 1
 499 634 l 1
 499 518 l 1
 71 34 l 1
EndSplineSet
EndChar

StartChar: hbar
Encoding: 413 295 256
Width: 1064
VWidth: 0
GlyphClass: 2
Flags: W
HStem: 0 21<101 473> 1361 163<12 768>
VStem: 101 372<0 1626> 620 372<0 979.074>
LayerCount: 2
UndoRedoHistory
Layer: 0
Undoes
EndUndoes
Redoes
EndRedoes
EndUndoRedoHistory
UndoRedoHistory
Layer: 1
Undoes
EndUndoes
Redoes
EndRedoes
EndUndoRedoHistory
Fore
SplineSet
768 1361 m 1
 12 1361 l 1
 12 1524 l 1
 768 1524 l 1
 768 1361 l 1
EndSplineSet
Refer: 281 -1 N 1 0 0 1 36 0 2
Refer: 277 -1 N 1 0 0 1 26 0 2
EndChar

StartChar: hungarumlaut
Encoding: 415 733 258
Width: 1016
VWidth: 0
GlyphClass: 2
Flags: W
HStem: 1264 448<-207 -151 192 251>
LayerCount: 2
UndoRedoHistory
Layer: 1
Undoes
EndUndoes
Redoes
EndRedoes
EndUndoRedoHistory
Fore
SplineSet
455 1264 m 1
 591 1712 l 1
 897 1712 l 1
 650 1264 l 1
 455 1264 l 1
57 1264 m 1
 192 1712 l 1
 495 1712 l 1
 248 1264 l 1
 57 1264 l 1
EndSplineSet
EndChar

StartChar: hyphen
Encoding: 45 45 259
Width: 460
VWidth: 0
GlyphClass: 2
Flags: W
HStem: 713 249<2 458>
VStem: 2 456<713 962>
LayerCount: 2
UndoRedoHistory
Layer: 1
Undoes
EndUndoes
Redoes
EndRedoes
EndUndoRedoHistory
Fore
SplineSet
2 713 m 1
 2 962 l 1
 458 962 l 1
 458 713 l 1
 2 713 l 1
EndSplineSet
EndChar

StartChar: i
Encoding: 105 105 260
Width: 534
VWidth: 0
GlyphClass: 2
Flags: W
HStem: 0 21<82 454> 1391 235<80 454>
VStem: 80 374<1391 1626> 82 372<0 1216>
LayerCount: 2
UndoRedoHistory
Layer: 1
Undoes
EndUndoes
Redoes
EndRedoes
EndUndoRedoHistory
Fore
SplineSet
80 1391 m 1xe0
 80 1626 l 1
 454 1626 l 1
 454 1391 l 1
 80 1391 l 1xe0
EndSplineSet
Refer: 282 -1 N 1 0 0 1 5 0 2
EndChar

StartChar: j
Encoding: 106 106 270
Width: 549
VWidth: 0
GlyphClass: 2
Flags: W
HStem: -393 289<-36.0539 266.5> 0 21<101 473> 1391 235<99 473>
VStem: 99 374<-91.1116 162 1391 1626> 101 372<0 1216>
LayerCount: 2
UndoRedoHistory
Layer: 1
Undoes
EndUndoes
Redoes
EndRedoes
EndUndoRedoHistory
Fore
SplineSet
99 1391 m 1xf0
 99 1626 l 1
 473 1626 l 1
 473 1391 l 1
 99 1391 l 1xf0
162 -393 m 0
 90 -393 25 -379 -38 -362 c 1
 -38 -95 l 1
 -18 -99 2 -104 21 -104 c 0
 64 -104 101 -86 101 -19 c 2
 101 162 l 1xe8
 473 162 l 1
 473 -65 l 2
 473 -253 371 -393 162 -393 c 0
EndSplineSet
Refer: 282 -1 N 1 0 0 1 24 0 2
EndChar

StartChar: k
Encoding: 107 107 272
Width: 1217
VWidth: 0
GlyphClass: 2
Flags: W
HStem: 0 21G<74 446 811.728 1191>
VStem: 74 372<0 1626>
LayerCount: 2
UndoRedoHistory
Layer: 0
Undoes
EndUndoes
Redoes
EndRedoes
EndUndoRedoHistory
UndoRedoHistory
Layer: 1
Undoes
EndUndoes
Redoes
EndRedoes
EndUndoRedoHistory
Fore
SplineSet
267 249 m 1
 267 525 l 1
 771 1216 l 1
 1162 1216 l 1
 800 702 l 1
 1191 0 l 1
 822 0 l 1
 520 588 l 1
 267 249 l 1
EndSplineSet
Refer: 277 -1 N 1 0 0 1 -1 0 2
EndChar

StartChar: kgreenlandic
Encoding: 427 312 274
Width: 1017
VWidth: 0
GlyphClass: 2
Flags: W
HStem: 0 21G<76 448 621.245 1025>
VStem: 76 372<0 1216>
LayerCount: 2
UndoRedoHistory
Layer: 1
Undoes
EndUndoes
Redoes
EndRedoes
EndUndoRedoHistory
Fore
SplineSet
279 605 m 1
 279 635 l 1
 406.567382812 728 l 1
 617 1217 l 1
 1008 1217 l 1
 724 640 l 1
 1025 0 l 1
 630 0 l 1
 405.001953125 514 l 1
 279 605 l 1
EndSplineSet
Refer: 282 -1 N 1 0 0 1 -1 0 2
EndChar

StartChar: lc_ascender_stem
Encoding: 429 -1 277
Width: 450
VWidth: 0
GlyphClass: 2
Flags: W
HStem: 0 21G<75 447>
VStem: 75 372<0 1626>
LayerCount: 2
UndoRedoHistory
Layer: 1
Undoes
EndUndoes
Redoes
EndRedoes
EndUndoRedoHistory
Fore
SplineSet
447 1626 m 1
 447 0 l 1
 75 0 l 1
 75 1626 l 1
 447 1626 l 1
EndSplineSet
EndChar

StartChar: lc_descender_stem
Encoding: 430 -1 278
Width: 450
VWidth: 0
GlyphClass: 2
Flags: W
VStem: 77 372<-356 1216>
LayerCount: 2
UndoRedoHistory
Layer: 1
Undoes
EndUndoes
Redoes
EndRedoes
EndUndoRedoHistory
Fore
SplineSet
449 1216 m 1
 449 -356 l 1
 77 -356 l 1
 77 1216 l 1
 449 1216 l 1
EndSplineSet
EndChar

StartChar: lc_left_curve
Encoding: 431 -1 279
Width: 1022
VWidth: 0
GlyphClass: 2
Flags: W
HStem: -18 263<532.5 831> 990 254<537 843.5>
VStem: 363 374<251.383 982.128>
LayerCount: 2
UndoRedoHistory
Layer: 1
Undoes
EndUndoes
Redoes
EndRedoes
EndUndoRedoHistory
Fore
SplineSet
616 -18 m 0
 449 -18 363 101 363 307 c 2
 363 919 l 2
 363 1120 456 1244 618 1244 c 0
 780 1244 950 1101 1054 927 c 1
 1054 814 l 1
 990 875 883 990 804 990 c 0
 756 990 737 954 737 900 c 2
 737 322 l 2
 737 281 758 245 800 245 c 0
 862 245 990 361 1054 422 c 1
 1054 275 l 1
 930 73 771 -18 616 -18 c 0
EndSplineSet
EndChar

StartChar: lc_right_curve
Encoding: 432 -1 280
Width: 1022
VWidth: 0
GlyphClass: 2
Flags: W
VStem: 582 374<241.529 975.195>
LayerCount: 2
UndoRedoHistory
Layer: 1
Undoes
EndUndoes
Redoes
EndRedoes
EndUndoRedoHistory
Fore
SplineSet
510 236 m 0
 555 235 582 267 582 308 c 2
 582 909 l 2
 582 950 555 987 510 980 c 0
 452 971 329 851 265 786 c 1
 265 934 l 1
 401 1152 576 1250 710 1244 c 0
 864 1237 956 1138 956 928 c 2
 956 307 l 2
 956 97 855 -18 710 -18 c 0
 556 -18 389 80 265 282 c 1
 265 393 l 1
 329 332 439 238 510 236 c 0
EndSplineSet
EndChar

StartChar: lc_xheight_curve_stem
Encoding: 433 -1 281
Width: 962
VWidth: 0
GlyphClass: 2
Flags: W
VStem: 584 372<0 979.074>
LayerCount: 2
UndoRedoHistory
Layer: 1
Undoes
EndUndoes
Redoes
EndRedoes
EndUndoRedoHistory
Fore
SplineSet
264 758 m 1
 264 867 l 1
 418 1169 558 1244 722 1244 c 0
 867 1244 956 1129 956 955 c 2
 956 0 l 1
 584 0 l 1
 584 914 l 2
 584 962 570 988 527 986 c 0
 473 983 366 936 264 758 c 1
EndSplineSet
EndChar

StartChar: lc_xheight_stem
Encoding: 434 -1 282
Width: 962
VWidth: 0
GlyphClass: 2
Flags: W
HStem: 0 21G<77 449>
VStem: 77 372<0 1216>
LayerCount: 2
UndoRedoHistory
Layer: 1
Undoes
EndUndoes
Redoes
EndRedoes
EndUndoRedoHistory
Fore
SplineSet
77 0 m 1
 77 1216 l 1
 449 1216 l 1
 449 0 l 1
 77 0 l 1
EndSplineSet
EndChar

StartChar: less
Encoding: 60 60 286
Width: 833
VWidth: 0
GlyphClass: 2
Flags: W
VStem: 66 650
LayerCount: 2
UndoRedoHistory
Layer: 1
Undoes
EndUndoes
Redoes
EndRedoes
EndUndoRedoHistory
Fore
SplineSet
716 252 m 1
 66 705 l 1
 66 975 l 1
 716 1430 l 1
 716 1116 l 1
 330 842 l 1
 716 564 l 1
 716 252 l 1
EndSplineSet
EndChar

StartChar: logicalnot
Encoding: 438 172 287
Width: 814
VWidth: 0
GlyphClass: 2
Flags: W
HStem: 410 243<137 489>
VStem: 489 182<234 410>
LayerCount: 2
UndoRedoHistory
Layer: 1
Undoes
EndUndoes
Redoes
EndRedoes
EndUndoRedoHistory
Fore
SplineSet
489 234 m 1
 489 410 l 1
 137 410 l 1
 137 653 l 1
 671 653 l 1
 671 234 l 1
 489 234 l 1
EndSplineSet
EndChar

StartChar: lslash
Encoding: 439 322 288
Width: 605
VWidth: 0
GlyphClass: 2
Flags: W
HStem: 0 21G<139 516>
VStem: 139 377<0 851 1181 1652>
LayerCount: 2
UndoRedoHistory
Layer: 1
Undoes
EndUndoes
Redoes
EndRedoes
EndUndoRedoHistory
Fore
SplineSet
139 0 m 1
 139 851 l 1
 -40 790 l 1
 -40 982 l 1
 139 1043 l 1
 139 1652 l 1
 516 1652 l 1
 516 1181 l 1
 703 1245 l 1
 703 1053 l 1
 516 989 l 1
 516 0 l 1
 139 0 l 1
EndSplineSet
EndChar

StartChar: macron
Encoding: 440 175 290
Width: 278
VWidth: 0
GlyphClass: 2
Flags: W
HStem: 1341 204<-98 384>
VStem: -98 482<1341 1545>
LayerCount: 2
UndoRedoHistory
Layer: 1
Undoes
EndUndoes
Redoes
EndRedoes
EndUndoRedoHistory
Fore
SplineSet
-98 1341 m 1
 -98 1545 l 1
 384 1545 l 1
 384 1341 l 1
 -98 1341 l 1
EndSplineSet
EndChar

StartChar: minus
Encoding: 441 8722 291
Width: 882
VWidth: 0
GlyphClass: 2
Flags: W
HStem: 506 243<136 726>
VStem: 136 590<506 749>
LayerCount: 2
UndoRedoHistory
Layer: 1
Undoes
EndUndoes
Redoes
EndRedoes
EndUndoRedoHistory
Fore
SplineSet
136 506 m 1
 136 749 l 1
 726 749 l 1
 726 506 l 1
 136 506 l 1
EndSplineSet
EndChar

StartChar: multiply
Encoding: 443 215 293
Width: 807
VWidth: 0
GlyphClass: 2
Flags: W
HStem: 280 681
VStem: 64 679
LayerCount: 2
UndoRedoHistory
Layer: 1
Undoes
EndUndoes
Redoes
EndRedoes
EndUndoRedoHistory
Fore
SplineSet
229 280 m 1
 64 445 l 1
 239 619 l 1
 64 795 l 1
 229 961 l 1
 404 784 l 1
 580 961 l 1
 743 795 l 1
 568 619 l 1
 651 535 668 517 743 445 c 1
 580 280 l 1
 404 456 l 1
 229 280 l 1
EndSplineSet
EndChar

StartChar: nine
Encoding: 57 57 298
Width: 1053
VWidth: 0
GlyphClass: 2
Flags: W
HStem: -27 284<461.465 591.429> 1376 276<470.833 587.245>
VStem: 57 393<880.767 1367.39> 604 395<264.046 659 875.284 1363.92>
LayerCount: 2
UndoRedoHistory
Layer: 1
Undoes
EndUndoes
Redoes
EndRedoes
EndUndoRedoHistory
Fore
SplineSet
524 1376 m 0
 451 1376 450 1297 450 1103 c 0
 450 955 450 868 529 868 c 0
 568 868 594 900 604 919 c 1
 604 1197 l 2
 604 1292 600 1376 524 1376 c 0
524 1652 m 0
 863 1652 999 1428 999 1107 c 2
 999 524 l 2
 999 199 908 -27 522 -27 c 0
 185 -27 96 125 96 406 c 2
 96 437 l 1
 452 437 l 1
 452 311 452 257 526 257 c 0
 611 257 604 316 604 579 c 2
 604 659 l 1
 573 605 498 578 417 575 c 0
 155 566 57 786 57 1052 c 0
 57 1415 179 1652 524 1652 c 0
EndSplineSet
EndChar

StartChar: numbersign
Encoding: 35 35 300
Width: 1086
VWidth: 0
GlyphClass: 2
Flags: W
HStem: 0 21G<191 402.564 518 728.601> 537 281<109 232 477 558 804 968> 871 285<89 259 507 585 832 948>
LayerCount: 2
UndoRedoHistory
Layer: 1
Undoes
EndUndoes
Redoes
EndRedoes
EndUndoRedoHistory
Fore
SplineSet
472 871 m 1
 477 818 l 1
 591 818 l 1
 585 871 l 1
 472 871 l 1
191 0 m 1
 232 537 l 1
 109 537 l 1
 109 818 l 1
 265 818 l 1
 259 871 l 1
 89 871 l 1
 89 1156 l 1
 294 1156 l 1
 333 1652 l 1
 547 1652 l 1
 507 1156 l 1
 621 1156 l 1
 660 1652 l 1
 873 1652 l 1
 832 1156 l 1
 948 1156 l 1
 948 871 l 1
 798 871 l 1
 804 818 l 1
 968 818 l 1
 968 537 l 1
 770 537 l 1
 727 0 l 1
 518 0 l 1
 558 537 l 1
 443 537 l 1
 401 0 l 1
 191 0 l 1
EndSplineSet
EndChar

StartChar: o
Encoding: 111 111 301
Width: 991
VWidth: 0
GlyphClass: 2
Flags: W
HStem: -27 263<434.849 554> 981 263<434.849 554>
VStem: 60 366<244.916 972.084> 565 366<244.604 972.396>
LayerCount: 2
UndoRedoHistory
Layer: 1
Undoes
EndUndoes
Redoes
EndRedoes
EndUndoRedoHistory
Fore
SplineSet
60 344 m 2
 60 873 l 2
 60 1127 245 1244 493 1244 c 0
 741 1244 931 1128 931 873 c 2
 931 344 l 2
 931 89 741 -27 493 -27 c 0
 245 -27 60 90 60 344 c 2
426 338 m 2
 426 264 450 236 494 236 c 0
 541 236 565 261 565 338 c 2
 565 879 l 2
 565 956 541 981 494 981 c 0
 450 981 426 953 426 879 c 2
 426 338 l 2
EndSplineSet
EndChar

StartChar: oe
Encoding: 452 339 306
Width: 1445
VWidth: 0
GlyphClass: 2
Flags: W
HStem: -28.2423 214.242<323.961 537.673 952.859 1150.14> 560 200<944 1049> 1032 212<331.271 541.398 948.713 1040.52>
VStem: 60 365<196.198 1027.55> 552 392<190.902 560 760 1028.69> 1049 339<189.538 484 760 1022.26>
LayerCount: 2
UndoRedoHistory
Layer: 0
Undoes
EndUndoes
Redoes
EndRedoes
EndUndoRedoHistory
UndoRedoHistory
Layer: 1
Undoes
EndUndoes
Redoes
EndRedoes
EndUndoRedoHistory
Fore
SplineSet
1049 961 m 2
 1049 1011.42382812 1012.78613281 1031.89746094 994.78515625 1031.89746094 c 0
 978.921875 1031.89746094 944 1018.45507812 944 961 c 2
 944 760 l 1
 1049 760 l 1
 1049 961 l 2
488 1032 m 0
 461 1032 425 1016 425 930 c 2
 425 323 l 2
 425 237 450 186 482 186 c 0
 511 186 552 197 552 322 c 2
 552 930 l 2
 552 1012 518 1032 488 1032 c 0
408.943166404 -28.2423232354 m 0
 238.978080104 -28.2423232354 60 78.067894847 60 334 c 2
 60 909 l 2
 60 1145 230 1244 438 1244 c 0
 539 1244 699 1196 736 1089 c 1
 778 1196 929 1244 1024 1244 c 0
 1284 1244 1388 1081 1388 861 c 2
 1388 560 l 1
 944 560 l 1
 944 302 l 2
 944 229 963 186 995 186 c 0
 1033 186 1044 228 1044 301 c 2
 1044 484 l 1
 1389 484 l 1
 1389 302 l 2
 1389 103.121087286 1262.27326547 -29.7543178589 1034.41274486 -29.7543178589 c 0
 883.446676481 -29.7543178589 766.692750884 25.050247937 726 120 c 1
 676.588383391 34.285971188 578.898812214 -28.2423232354 408.943166404 -28.2423232354 c 0
EndSplineSet
EndChar

StartChar: ogonek
Encoding: 453 731 307
Width: 557
VWidth: 0
GlyphClass: 2
Flags: W
HStem: -529 179<306.922 429>
VStem: 23 258<-318.884 -111.829>
LayerCount: 2
UndoRedoHistory
Layer: 1
Undoes
EndUndoes
Redoes
EndRedoes
EndUndoRedoHistory
Fore
SplineSet
429 -529 m 1
 290 -534 23 -528 23 -295 c 0
 23 -194 73 -68 158 21 c 1
 322 21 l 1
 310 -66 281 -142 281 -230 c 0
 281 -352 406 -350 457 -350 c 1
 429 -529 l 1
EndSplineSet
EndChar

StartChar: one
Encoding: 49 49 311
Width: 665
VWidth: 0
GlyphClass: 2
Flags: W
HStem: 0 21G<199 585>
VStem: 199 386<0 1232>
LayerCount: 2
UndoRedoHistory
Layer: 1
Undoes
EndUndoes
Redoes
EndRedoes
EndUndoRedoHistory
Fore
SplineSet
199 0 m 1
 199 1232 l 1
 20 1157 l 1
 20 1443 l 1
 76 1468 221 1548 281 1626 c 1
 585 1626 l 1
 585 0 l 1
 199 0 l 1
EndSplineSet
EndChar

StartChar: onehalf
Encoding: 457 189 312
Width: 1602
VWidth: 0
GlyphClass: 2
Flags: W
HStem: 0 159.832<1250.3 1507.68> 728.831 161.589<1196.76 1328.62>
VStem: 280 236<810 1388> 1000.29 188.376<562.315 721.735> 1333.61 199.395<539.991 721.378>
LayerCount: 2
UndoRedoHistory
Layer: 1
Undoes
EndUndoes
Redoes
EndRedoes
EndUndoRedoHistory
Fore
SplineSet
411 0 m 1
 980 1641 l 1
 1157 1641 l 1
 587 0 l 1
 411 0 l 1
280 810 m 1
 280 1388 l 1
 138 1310 l 1
 138 1478 l 1
 243 1535 318 1592 357 1641 c 1
 516 1641 l 1
 516 810 l 1
 280 810 l 1
1015.56738281 0 m 1
 1015.56738281 159.83203125 l 1
 1238.12792969 467.365234375 l 2
 1278 522 1333.60546875 590.799804688 1333.60546875 659.375 c 0
 1333.60546875 700.288669817 1295.53737398 728.831385147 1258.42084851 728.831385147 c 0
 1223.11463828 728.831385147 1188.66943766 703.005045226 1188.66943766 637.433344863 c 0
 1188.66943766 616.567974092 1192.15720928 591.6781605 1200.21484375 562.315429688 c 1
 1000.29296875 562.315429688 l 1
 1000.29296875 613.482421875 l 2
 1000.29296875 767.512695312 1073.08789062 890.419921875 1251.3828125 890.419921875 c 0
 1407.52246094 890.419921875 1533 802.327148438 1533 656.209960938 c 0
 1533 545.434570312 1469 457 1405.87207031 371.360351562 c 2
 1250.3046875 159.83203125 l 1
 1507.6796875 159.83203125 l 1
 1507.6796875 0 l 1
 1015.56738281 0 l 1
EndSplineSet
EndChar

StartChar: onequarter
Encoding: 458 188 313
Width: 1602
VWidth: 0
GlyphClass: 2
Flags: W
HStem: 0 21G<411 593.947 1185 1419> 226 146<1039 1185 1419 1534>
VStem: 280 236<810 1388> 1185 234<0 226 372 648>
LayerCount: 2
UndoRedoHistory
Layer: 0
Undoes
EndUndoes
Redoes
EndRedoes
EndUndoRedoHistory
Back
SplineSet
279 810 m 1
 515 810 l 1
 515 1638 l 1
 356 1638 l 1
 317 1589 242 1532 137 1475 c 1
 137 1307 l 1
 279 1385 l 1
 279 810 l 1
EndSplineSet
UndoRedoHistory
Layer: 1
Undoes
EndUndoes
Redoes
EndRedoes
EndUndoRedoHistory
Fore
SplineSet
1039 372 m 1
 1185 372 l 1
 1185 648 l 1
 1039 372 l 1
411 0 m 1
 980 1641 l 1
 1157 1641 l 1
 587 0 l 1
 411 0 l 1
280 810 m 1
 280 1388 l 1
 138 1310 l 1
 138 1478 l 1
 243 1535 318 1592 357 1641 c 1
 516 1641 l 1
 516 810 l 1
 280 810 l 1
1185 0 m 1
 1185 226 l 1
 901 226 l 1
 901 361 l 1
 1185 847 l 1
 1419 847 l 1
 1419 372 l 1
 1534 372 l 1
 1534 226 l 1
 1419 226 l 1
 1419 0 l 1
 1185 0 l 1
EndSplineSet
EndChar

StartChar: ordmasculine
Encoding: 460 186 315
Width: 967
VWidth: 0
GlyphClass: 2
Flags: W
HStem: -324 268<398.219 555.276> 589 270<398.663 554.716>
VStem: 104 270<-27.8398 565.344> 576 288<-40.6873 568.806>
LayerCount: 2
UndoRedoHistory
Layer: 1
Undoes
EndUndoes
Redoes
EndRedoes
EndUndoRedoHistory
Fore
SplineSet
484 859 m 0
 736 859 864 695 864 467 c 2
 864 69 l 2
 864 -156 737 -324 484 -324 c 0
 209 -324 104 -174 104 69 c 2
 104 467 l 2
 104 715 209 859 484 859 c 0
478 589 m 0
 356 589 374 424 374 412 c 2
 374 122 l 2
 374 114 354 -56 478 -56 c 0
 604 -56 576 109 576 122 c 2
 576 412 l 2
 576 426 602 589 478 589 c 0
EndSplineSet
EndChar

StartChar: oslash
Encoding: 461 248 316
Width: 991
VWidth: 0
GlyphClass: 2
Flags: W
HStem: -27 263<434.849 554> 981 263<434.849 554>
VStem: 60 366<244.916 972.084> 565 366<244.604 972.396>
LayerCount: 2
UndoRedoHistory
Layer: 1
Undoes
EndUndoes
Redoes
EndRedoes
EndUndoRedoHistory
Fore
SplineSet
140 -142 m 1
 778 1381 l 1
 857 1346 l 1
 219 -177 l 1
 140 -142 l 1
EndSplineSet
Refer: 301 111 N 1 0 0 1 0 0 2
EndChar

StartChar: paragraph
Encoding: 463 182 319
Width: 937
VWidth: 0
GlyphClass: 2
Flags: W
HStem: 0 21G<356 601 664 893>
VStem: 21 872<968.132 1318.36> 356 245<0 803> 664 229<0 803>
LayerCount: 2
UndoRedoHistory
Layer: 1
Undoes
EndUndoes
Redoes
EndRedoes
EndUndoRedoHistory
Fore
SplineSet
356 0 m 1xb0
 356 803 l 1xb0
 175 809 21 928 21 1137 c 0xc0
 21 1404 223 1474 428 1474 c 2
 893 1474 l 1
 893 0 l 1
 664 0 l 1
 664 803 l 1
 601 803 l 1
 601 0 l 1
 356 0 l 1xb0
EndSplineSet
EndChar

StartChar: parenleft
Encoding: 40 40 320
Width: 690
VWidth: 0
GlyphClass: 2
Flags: W
VStem: 109 341<355.439 1358.86>
LayerCount: 2
UndoRedoHistory
Layer: 1
Undoes
EndUndoes
Redoes
EndRedoes
EndUndoRedoHistory
Fore
SplineSet
633 -58 m 1
 162 -62 109 399 109 844 c 0
 109 1335 162 1767 633 1764 c 1
 633 1528 l 1
 491 1528 450 1296 450 844 c 0
 450 384 503 178 633 178 c 1
 633 -58 l 1
EndSplineSet
EndChar

StartChar: parenright
Encoding: 41 41 321
Width: 690
VWidth: 0
GlyphClass: 2
Flags: W
VStem: 292 341<355.439 1358.86>
LayerCount: 2
UndoRedoHistory
Layer: 1
Undoes
EndUndoes
Redoes
EndRedoes
EndUndoRedoHistory
Fore
SplineSet
109 -58 m 1
 109 178 l 1
 239 178 292 384 292 844 c 0
 292 1296 251 1528 109 1528 c 1
 109 1764 l 1
 580 1767 633 1335 633 844 c 0
 633 399 580 -62 109 -58 c 1
EndSplineSet
EndChar

StartChar: percent
Encoding: 37 37 322
Width: 2147
VWidth: 0
GlyphClass: 2
Flags: W
HStem: 11 229<1539.77 1692.07> 679 229<431.341 584.7> 743 231<1535.86 1695.86> 1411 231<430.434 585.44>
VStem: 99 0.782926<1123.63 1207.28> 99.7829 298.217<940.188 1386.74> 618 302.185<940.158 1387.04> 920.185 0.814818<1126.58 1207.28> 1206 0.779487<460.568 540.283> 1206.78 298.33<271.901 718.482> 1725 302.208<265.681 719.703> 2027.21 0.792288<460.571 540.286>
LayerCount: 2
UndoRedoHistory
Layer: 1
Undoes
EndUndoes
Redoes
EndRedoes
EndUndoRedoHistory
Fore
SplineSet
701 0 m 1x90
 1230 1696 l 1
 1414 1696 l 1
 884 0 l 1
 701 0 l 1x90
508 1411 m 0
 416.248862906 1411 400.521877073 1333.05960547 398 1207 c 1
 398 1037 402 908 508 908 c 0
 614 908 618 1037 618 1207 c 1xd6
 615.796019999 1332.98269579 601.05869528 1411 508 1411 c 0
1206.77948709 495.803652865 m 1xb0a0
 1217.06509075 792.647277305 1322.61774108 973.999999892 1616 974 c 0
 1908.41917392 974 2016.71129536 794.499255373 2027.20771249 496.018710981 c 1
 2016.78625327 206.55639566 1902.4017264 10.9999999871 1616 11 c 0
 1328.71794196 11 1216.98750763 206.459539807 1206.77948709 495.803652865 c 1xb0a0
1206.77948709 495.803652865 m 0
 1206.37218702 484.048840919 1206.11427289 472.112926675 1206 460 c 2
 1206 541 l 2
 1206.00000306 525.697239265 1206.25651291 510.627237356 1206.77948709 495.803652865 c 0
2027.20771249 496.018710981 m 0
 2027.73890836 510.772986458 2028 525.77123656 2028 541 c 2
 2028 460 l 2x9010
 2027.8857159 472.190343256 2027.62340745 484.197833345 2027.20771249 496.018710981 c 0
1505.10983159 503.461578157 m 1xb060
 1506.21815132 351.342067089 1517.52167889 239.999999978 1616 240 c 0
 1722 240 1725 369 1725 539 c 1
 1722.99476705 665.30848584 1708.86789331 743 1616 743 c 0
 1516.13149021 743 1506.10888108 650.681276378 1505.10983159 503.461578157 c 1xb060
99.7829257112 1162.64920085 m 1xda
 109.839796419 1459.35483237 214.843870341 1642.00000005 508 1642 c 0
 800.251386958 1642 909.511161106 1460.85678732 920.185181779 1162.5411187 c 1
 909.62090776 874.278095823 795.148686192 679.00000001 508 679 c 0
 220.815427395 679 109.967647636 874.326908999 99.7829257112 1162.64920085 c 1xda
99.7829257112 1162.64920085 m 0
 99.342308807 1149.6498198 99.0839468557 1136.43149691 99 1123 c 2
 99 1208 l 2
 98.9999985746 1192.64493778 99.2575110424 1177.5233215 99.7829257112 1162.64920085 c 0
920.185181779 1162.5411187 m 0
 920.731565175 1177.45006622 921 1192.60774402 921 1208 c 2
 921 1126 l 2x91
 920.88405947 1138.36696109 920.61428134 1150.54871931 920.185181779 1162.5411187 c 0
EndSplineSet
EndChar

StartChar: period
Encoding: 46 46 323
Width: 519
VWidth: 0
GlyphClass: 2
Flags: W
HStem: 0 340<83 431>
VStem: 83 348<0 340>
LayerCount: 2
UndoRedoHistory
Layer: 1
Undoes
EndUndoes
Redoes
EndRedoes
EndUndoRedoHistory
Fore
SplineSet
83 0 m 1
 83 340 l 1
 431 340 l 1
 431 0 l 1
 83 0 l 1
EndSplineSet
EndChar

StartChar: periodcentered
Encoding: 464 183 324
Width: 497
VWidth: 0
GlyphClass: 2
Flags: W
HStem: 601 338<76 422>
VStem: 76 346<601 939>
LayerCount: 2
UndoRedoHistory
Layer: 1
Undoes
EndUndoes
Redoes
EndRedoes
EndUndoRedoHistory
Fore
SplineSet
76 601 m 1
 76 939 l 1
 422 939 l 1
 422 601 l 1
 76 601 l 1
EndSplineSet
EndChar

StartChar: plus
Encoding: 43 43 325
Width: 730
VWidth: 0
GlyphClass: 2
Flags: W
HStem: 557 204<68 245 484 662>
VStem: 245 239<332 557 761 976>
LayerCount: 2
UndoRedoHistory
Layer: 0
Undoes
EndUndoes
Redoes
EndRedoes
EndUndoRedoHistory
UndoRedoHistory
Layer: 1
Undoes
EndUndoes
Redoes
EndRedoes
EndUndoRedoHistory
Fore
SplineSet
245 332 m 1
 245 557 l 1
 68 557 l 1
 68 761 l 1
 245 761 l 1
 245 976 l 1
 484 976 l 1
 484 761 l 1
 662 761 l 1
 662 557 l 1
 484 557 l 1
 484 332 l 1
 245 332 l 1
EndSplineSet
EndChar

StartChar: plusminus
Encoding: 465 177 326
Width: 882
VWidth: 0
GlyphClass: 2
Flags: W
HStem: 0 243<136 726> 527 244<136 310 553 726>
VStem: 136 590<0 243 527 771> 310 243<352 527 771 946>
LayerCount: 2
UndoRedoHistory
Layer: 1
Undoes
EndUndoes
Redoes
EndRedoes
EndUndoRedoHistory
Fore
SplineSet
136 0 m 1xe0
 136 243 l 1
 726 243 l 1
 726 0 l 1
 136 0 l 1xe0
310 352 m 1xd0
 310 527 l 1xd0
 136 527 l 1
 136 771 l 1xe0
 310 771 l 1
 310 946 l 1
 553 946 l 1
 553 771 l 1xd0
 726 771 l 1
 726 527 l 1xe0
 553 527 l 1
 553 352 l 1
 310 352 l 1xd0
EndSplineSet
EndChar

StartChar: product
Encoding: 466 8719 327
Width: 1144
VWidth: 0
GlyphClass: 2
Flags: W
HStem: 0 21G<125 384 759 1018> 1440 203<384 759>
VStem: 125 259<0 1440> 759 259<0 1440>
LayerCount: 2
UndoRedoHistory
Layer: 1
Undoes
EndUndoes
Redoes
EndRedoes
EndUndoRedoHistory
Fore
SplineSet
125 0 m 1
 125 1643 l 1
 1018 1643 l 1
 1018 0 l 1
 759 0 l 1
 759 1440 l 1
 384 1440 l 1
 384 0 l 1
 125 0 l 1
EndSplineSet
EndChar

StartChar: question
Encoding: 63 63 329
Width: 918
VWidth: 0
GlyphClass: 2
Flags: W
HStem: 0 348<227 587> 1368.44 318.56<404.949 520.628>
VStem: 47 345.248<1157.97 1359.5> 217 340<443 671.58> 227 360<0 348> 527.244 369.756<1051.37 1363.67>
LayerCount: 2
UndoRedoHistory
Layer: 1
Undoes
EndUndoes
Redoes
EndRedoes
EndUndoRedoHistory
Fore
SplineSet
227 0 m 1xc8
 227 348 l 1
 587 348 l 1
 587 0 l 1
 227 0 l 1xc8
217 443 m 1xd0
 217 711 l 1xd0
 393.370035883 850.389221907 527.243711927 1037.69405989 527.243711927 1285.40837414 c 0
 527.243711927 1342.14125891 495.92571099 1368.43992901 463.458714411 1368.43992901 c 0
 428.518687171 1368.43992901 392.247958482 1337.98230402 392.247958482 1282.22142986 c 0
 392.247958482 1222.242519 400.909007528 1217.40935148 418 1164 c 1
 84 1085 l 1
 60 1179 47 1214 47 1300 c 0
 47 1505 136 1687 452 1687 c 0
 755 1687 897 1531 897 1269 c 0xe4
 897 1033 744 748 557 644 c 1
 557 443 l 1
 217 443 l 1xd0
EndSplineSet
EndChar

StartChar: quotedbl
Encoding: 34 34 331
Width: 707
VWidth: 0
GlyphClass: 2
Flags: W
HStem: 1000 655<108 272 516 680>
VStem: 108 164<1000 1097.81> 516 164<1000 1097.81>
LayerCount: 2
UndoRedoHistory
Layer: 1
Undoes
EndUndoes
Redoes
EndRedoes
EndUndoRedoHistory
Fore
SplineSet
108 1000 m 1
 12 1655 l 1
 326 1655 l 1
 272 1000 l 1
 108 1000 l 1
516 1000 m 1
 420 1655 l 1
 734 1655 l 1
 680 1000 l 1
 516 1000 l 1
EndSplineSet
EndChar

StartChar: quoteleft
Encoding: 471 8216 335
Width: 568
VWidth: 0
GlyphClass: 2
Flags: W
HStem: 1141 314<280 434> 1573 113<294.896 390>
VStem: 122 312<1141 1446.87>
LayerCount: 2
UndoRedoHistory
Layer: 1
Undoes
EndUndoes
Redoes
EndRedoes
EndUndoRedoHistory
Fore
SplineSet
122 1141 m 1
 122 1546 131 1686 390 1686 c 1
 409 1573 l 1
 295 1573 280 1543 280 1455 c 1
 434 1455 l 1
 434 1141 l 1
 122 1141 l 1
EndSplineSet
EndChar

StartChar: quotesingle
Encoding: 39 39 338
Width: 314
VWidth: 0
GlyphClass: 2
Flags: W
HStem: 999 653
VStem: 70 184.411<999 1132.73>
LayerCount: 2
UndoRedoHistory
Layer: 1
Undoes
EndUndoes
Redoes
EndRedoes
EndUndoRedoHistory
Fore
SplineSet
254.410883676 999 m 1
 70 999 l 1
 0 1652 l 1
 327 1652 l 1
 337.166503863 1708.37788506 258.496550846 1051.50152498 254.410883676 999 c 1
254.410883676 999 m 1
 255 999 l 1
 254.242276239 994.453657433 254.075922135 994.695686653 254.410883676 999 c 1
EndSplineSet
EndChar

StartChar: r
Encoding: 114 114 339
Width: 752
VWidth: 0
GlyphClass: 2
Flags: W
HStem: 0 21<78 450> 913 318<578.376 729>
VStem: 78 372<0 1216> 261 0<191 628.839>
LayerCount: 2
UndoRedoHistory
Layer: 1
Undoes
EndUndoes
Redoes
EndRedoes
EndUndoRedoHistory
Fore
SplineSet
261 191 m 1xd0
 261 277 l 1
 327 705 469 1231 678 1231 c 0
 694 1231 711 1228 729 1221 c 1
 729 913 l 1
 721.324 913 713.761 912.735 706.308 912.208 c 0
 475.89 895.903 351.086 628.839 261 191 c 1xd0
EndSplineSet
Refer: 282 -1 N 1 0 0 1 1 0 2
EndChar

StartChar: registered
Encoding: 477 174 343
Width: 1706
VWidth: 0
GlyphClass: 2
Flags: W
HStem: -22 48<656.314 1051.3> 129.983 282.646<795.537 908.599> 1213.28 282.646<795.537 908.599> 1598 48<656.314 1051.02>
VStem: 60 59<580.894 1054.55> 384.034 401.938<417.898 1208.01> 913.861 391.191<419.923 686.678 960.726 1205.99> 1588 58<580.708 1045.27>
LayerCount: 2
UndoRedoHistory
Layer: 1
Undoes
EndUndoes
Redoes
EndRedoes
EndUndoRedoHistory
Fore
SplineSet
854 -22 m 0
 289 -22 60 411 60 812 c 0
 60 1214 289 1646 854 1646 c 0
 1417 1646 1646 1214 1646 812 c 0
 1646 410 1419 -22 854 -22 c 0
854 26 m 0
 1364 26 1588 416 1588 814 c 0
 1588 1213 1364 1598 854 1598 c 0
 342 1598 119 1213 119 814 c 0
 119 416 342 26 854 26 c 0
EndSplineSet
Refer: 195 99 N 1.0747 0 0 1.0747 326 159 2
EndChar

StartChar: ring
Encoding: 478 730 344
Width: 729
VWidth: 0
GlyphClass: 2
Flags: W
HStem: 1354 129<318.278 392.771> 1672 129<315.261 392.386>
VStem: 115 193<1483.89 1671.54> 401 197<1483.83 1671.39>
LayerCount: 2
UndoRedoHistory
Layer: 1
Undoes
EndUndoes
Redoes
EndRedoes
EndUndoRedoHistory
Fore
SplineSet
356 1354 m 0
 230 1354 115 1427 115 1578 c 0
 115 1729 230 1801 356 1801 c 0
 481 1801 598 1728 598 1578 c 0
 598 1427 482 1354 356 1354 c 0
356 1483 m 0
 389 1483 401 1542 401 1577 c 0
 401 1610 389 1672 356 1672 c 0
 322 1672 308 1616 308 1580 c 0
 308 1542 321 1483 356 1483 c 0
EndSplineSet
EndChar

StartChar: s
Encoding: 115 115 345
Width: 865
VWidth: 0
GlyphClass: 2
Flags: W
VStem: 492 353<235.037 367.488>
LayerCount: 2
UndoRedoHistory
Layer: 1
Undoes
EndUndoes
Redoes
EndRedoes
EndUndoRedoHistory
Fore
SplineSet
410 1246 m 0
 608 1246 760 1118 815 929 c 1
 556 806 l 1
 532 873 493 964 432 969 c 0
 385 973 375 937 373 923 c 0
 363 861 480 796 576 710 c 2
 614 676 l 2
 722 579 845 477 845 317 c 0
 845 85 623 -41 417 -26 c 0
 227 -12 81 96 18 327 c 1
 293 418 l 1
 324 342 366 234 440 234 c 0
 469 234 493 259 492 297 c 0
 491 347 384 424 305 494 c 2
 260 534 l 2
 153 629 35 756 36 889 c 1
 36 1095 212 1246 410 1246 c 0
EndSplineSet
EndChar

StartChar: section
Encoding: 253 167 351
Width: 1001
VWidth: 0
GlyphClass: 2
Flags: W
HStem: -13 271<403.802 565.211> 1459 271<412.565 584.872>
VStem: 89 316<1298.41 1447.2> 104 315<815.516 947.167> 575 316<272.167 465.083 823.595 914.934>
LayerCount: 2
UndoRedoHistory
Layer: 1
Undoes
EndUndoes
Redoes
EndRedoes
EndUndoRedoHistory
Fore
SplineSet
488 795 m 1xd8
 521 815 561 836 561 876 c 0
 561 892 527 923 505 942 c 1
 476 964 l 1
 448 932 419 892 419 856 c 0
 419 837 417 826 423 824 c 1
 462 793 452 820 488 795 c 1xd8
491 -13 m 0
 270 -13 150 137 100 332 c 1
 341 411 l 1
 363 351 412 258 489 258 c 0
 539 258 575 285 575 337 c 0
 575 494 449 530 320 587 c 1
 274 611 263 606 221 634 c 1
 150 674 104 738 104 860 c 0xd8
 104 976 151 1090 262 1154 c 1
 176 1200 89 1269 89 1380 c 0
 89 1618 273 1730 493 1730 c 0
 713 1730 850 1580 898 1377 c 1
 665 1299 l 1
 633 1361 579 1459 496 1459 c 0
 438 1459 405 1431 405 1374 c 0xe8
 405 1280 525 1271 580 1246 c 1
 631 1214 645 1213 695 1176 c 0
 801 1100 879 1002 878 874 c 0
 878 765 838 664 740 598 c 1
 821 534 892 440 891 336 c 1
 891 97 712 -13 491 -13 c 0
EndSplineSet
EndChar

StartChar: semicolon
Encoding: 59 59 352
Width: 494
VWidth: 0
GlyphClass: 2
Flags: W
HStem: -291 111<128 211.564> 0 341<74 268> 841 338<72 416>
VStem: 72 344<4.80224 341 841 1179> 268 150.665<-123.303 0>
LayerCount: 2
UndoRedoHistory
Layer: 1
Undoes
EndUndoes
Redoes
EndRedoes
EndUndoRedoHistory
Fore
SplineSet
72 841 m 1xf0
 72 1179 l 1
 416 1179 l 1
 416 841 l 1
 72 841 l 1xf0
128 -291 m 1
 113 -180 l 1
 185 -164 268 -130 268 0 c 1
 74 0 l 1
 74 341 l 1
 419 341 l 1
 418.665039062 55 l 2xe8
 418 -167 321.383789062 -289.420898438 128 -291 c 1
EndSplineSet
EndChar

StartChar: seven
Encoding: 55 55 353
Width: 798
VWidth: 0
GlyphClass: 2
Flags: W
HStem: 0 21G<140 520.009> 1338 288<37 413>
LayerCount: 2
UndoRedoHistory
Layer: 1
Undoes
EndUndoes
Redoes
EndRedoes
EndUndoRedoHistory
Fore
SplineSet
140 0 m 1
 413 1338 l 1
 36 1338 l 1
 37 1626 l 1
 786 1626 l 1
 786 1347 l 1
 516 0 l 1
 140 0 l 1
EndSplineSet
EndChar

StartChar: six
Encoding: 54 54 354
Width: 1069
VWidth: 0
GlyphClass: 2
Flags: W
HStem: -27 276<488.755 605.167> 1368 284<491.814 613.052>
VStem: 77 395<261.08 749.716 966 1360.95> 626 393<257.607 744.233>
LayerCount: 2
UndoRedoHistory
Layer: 1
Undoes
EndUndoes
Redoes
EndRedoes
EndUndoRedoHistory
Fore
SplineSet
552 249 m 0
 625 249 626 328 626 522 c 0
 626 670 626 757 547 757 c 0
 508 757 482 725 472 706 c 1
 472 428 l 2
 472 333 476 249 552 249 c 0
552 -27 m 0
 213 -27 77 197 77 518 c 2
 77 1101 l 2
 77 1426 164 1652 550 1652 c 0
 887 1652 979 1500 979 1219 c 2
 979 1188 l 1
 623 1188 l 1
 623 1314 627 1368 553 1368 c 0
 468 1368 472 1309 472 1046 c 2
 472 966 l 1
 503 1020 578 1047 659 1050 c 0
 921 1059 1019 839 1019 573 c 0
 1019 210 897 -27 552 -27 c 0
EndSplineSet
EndChar

StartChar: slash
Encoding: 47 47 355
Width: 901
VWidth: 0
GlyphClass: 2
Flags: W
HStem: 0 21G<130 310.25>
LayerCount: 2
UndoRedoHistory
Layer: 1
Undoes
EndUndoes
Redoes
EndRedoes
EndUndoRedoHistory
Fore
SplineSet
130 0 m 1
 659 1696 l 1
 834 1696 l 1
 304 0 l 1
 130 0 l 1
EndSplineSet
EndChar

StartChar: sterling
Encoding: 484 163 357
Width: 1142
VWidth: 0
GlyphClass: 2
Flags: W
HStem: 0 322<606 1023> 635 290<87 194 606 809>
VStem: 194 412<322 635 928 1328.92>
LayerCount: 2
UndoRedoHistory
Layer: 1
Undoes
EndUndoes
Redoes
EndRedoes
EndUndoRedoHistory
Fore
SplineSet
87 0 m 1
 87 215 l 1
 194 272 l 1
 194 635 l 1
 87 635 l 1
 87 928 l 1
 194 928 l 1
 194 1086 l 2
 194 1406 251 1686 629 1686 c 0
 990 1686 1036 1458 1036 1159 c 1
 660 1159 l 1
 660 1203 660 1367 632 1371 c 1
 616 1375 606 1201 606 1100 c 2
 606 925 l 1
 809 925 l 1
 809 635 l 1
 606 635 l 1
 606 322 l 1
 1023 322 l 1
 1023 0 l 1
 87 0 l 1
EndSplineSet
EndChar

StartChar: t
Encoding: 116 116 358
Width: 664
VWidth: 0
GlyphClass: 2
Flags: W
HStem: -13 313<268 636.696> 958 259<2 92 469 603>
VStem: 92 377<305.123 958 1217 1605>
LayerCount: 2
UndoRedoHistory
Layer: 1
Undoes
EndUndoes
Redoes
EndRedoes
EndUndoRedoHistory
Fore
SplineSet
414 -13 m 0
 122 -13 92 234 92 469 c 2
 92 958 l 1
 2 958 l 1
 2 1217 l 1
 92 1217 l 1
 92 1605 l 1
 469 1605 l 1
 469 1217 l 1
 603 1217 l 1
 603 958 l 1
 469 958 l 1
 469 361 l 2
 469 321 493 300 546 300 c 0
 578 300 607 300 639 304 c 1
 639 7 l 1
 573 -14 485 -13 414 -13 c 0
EndSplineSet
EndChar

StartChar: three
Encoding: 51 51 363
Width: 1069
VWidth: 0
GlyphClass: 2
Flags: W
HStem: -35 324<471.219 607.353> 718 240<397 586.54> 1382 306<466.879 603.095>
VStem: 64 384<306.744 577 1095 1370.13> 630 378<302.226 679.321 1010.4 1364.12>
LayerCount: 2
UndoRedoHistory
Layer: 1
Undoes
EndUndoes
Redoes
EndRedoes
EndUndoRedoHistory
Fore
SplineSet
539 -35 m 0
 164 -35 64 192 64 518 c 2
 64 577 l 1
 448 577 l 1
 448 511 l 2
 448 339 472 289 545 289 c 0
 615 289 630 343 630 481 c 0
 630 643 605 718 469 718 c 2
 397 718 l 1
 397 958 l 1
 462 958 l 2
 604 958 630 1037 630 1200 c 0
 630 1322 606 1382 534 1382 c 0
 463 1382 448 1309 448 1200 c 2
 448 1095 l 1
 64 1095 l 1
 64 1211 l 2
 64 1521 246 1688 532 1688 c 0
 825 1688 1008 1536 1008 1230 c 0
 1008 1038 920 891 817 865 c 1
 920 824 1008 735 1008 494 c 0
 1008 187 883 -35 539 -35 c 0
EndSplineSet
EndChar

StartChar: threequarters
Encoding: 489 190 364
Width: 1707
VWidth: 0
GlyphClass: 2
Flags: W
HStem: -19 40G<505 686.25 1153 1387> 207 165<1387 1502>
VStem: 153 236<773.52 833 1136 1194.81> 406 238<774.78 832 1055.49 1198.58> 1153 234<-19 207>
LayerCount: 2
UndoRedoHistory
Layer: 1
Undoes
EndUndoes
Redoes
EndRedoes
EndUndoRedoHistory
Fore
SplineSet
1153 372 m 1
 1123 372 l 1
 1153 357 l 1
 1153 372 l 1
505 0 m 1
 1034 1696 l 1
 1210 1696 l 1
 680 0 l 1
 505 0 l 1
1153 -19 m 1
 1153 207 l 1
 881 207 l 1
 881 361 l 1
 1217 828 l 1
 1387 828 l 1
 1387 372 l 1
 1502 372 l 1
 1502 207 l 1
 1387 207 l 1
 1387 -19 l 1
 1153 -19 l 1
397 608 m 0
 241 608 153 699 153 833 c 1
 389 833 l 1
 389 833 374 770 396 770 c 0
 428 770 406 839 406 832 c 1
 406 924 387 898 302 890 c 1
 302 1062 l 1
 383 1049 406 1043 406 1133 c 0
 406 1136 426 1200 392 1200 c 0
 372 1200 389 1136 389 1136 c 1
 153 1136 l 1
 153 1268 240 1361 392 1361 c 0
 544 1361 644 1286 644 1130 c 0
 644 1045 612 1003 536 975 c 1
 612 951 644 920 644 832 c 0
 644 687 547 608 397 608 c 0
EndSplineSet
EndChar

StartChar: tilde
Encoding: 490 732 365
Width: 867
VWidth: 0
GlyphClass: 2
Flags: W
VStem: 116 171<1309 1389.27> 618 155<1537.51 1610>
LayerCount: 2
UndoRedoHistory
Layer: 1
Undoes
EndUndoes
Redoes
EndRedoes
EndUndoRedoHistory
Fore
SplineSet
644 1299 m 0
 544 1299 429 1393 327 1393 c 0
 273 1393 284 1324 287 1309 c 1
 116 1309 l 1
 115 1488 141 1622 282 1622 c 0
 429 1622 538 1537 598 1537 c 0
 630 1537 621 1599 618 1610 c 1
 773 1610 l 1
 774 1474 758 1299 644 1299 c 0
EndSplineSet
EndChar

StartChar: trademark
Encoding: 491 8482 366
Width: 2340
VWidth: 0
GlyphClass: 2
Flags: W
HStem: 1228 169<194 340 522 670>
VStem: 340 182<617 1228> 724 171<617 1054> 993 115<617 680.927> 1205 173<617 1050>
LayerCount: 2
UndoRedoHistory
Layer: 1
Undoes
EndUndoes
Redoes
EndRedoes
EndUndoRedoHistory
Fore
SplineSet
340 617 m 1
 340 1228 l 1
 194 1228 l 1
 194 1397 l 1
 670 1397 l 1
 670 1228 l 1
 522 1228 l 1
 522 617 l 1
 340 617 l 1
724 617 m 1
 724 1397 l 1
 973 1397 l 1
 1049 1023 l 1
 1123 1397 l 1
 1378 1397 l 1
 1378 617 l 1
 1205 617 l 1
 1205 1050 l 1
 1108 617 l 1
 993 617 l 1
 895 1054 l 1
 895 617 l 1
 724 617 l 1
EndSplineSet
EndChar

StartChar: tt
Encoding: 492 -1 367
Width: 1208
VWidth: 0
GlyphClass: 2
Flags: W
HStem: -13 313<257 625.696 844 1212.7> 7 297<537.497 628 1123.5 1215> 958 259<21 81 457 668 1044 1179>
VStem: 81 376<305.123 958 1217 1605> 668 376<305.123 958 1217 1605>
LayerCount: 2
UndoRedoHistory
Layer: 1
Undoes
EndUndoes
Redoes
EndRedoes
EndUndoRedoHistory
Fore
SplineSet
403 -13 m 0xb8
 111 -13 81 234 81 469 c 2
 81 958 l 1
 21 958 l 1
 21 1217 l 1
 81 1217 l 1
 81 1605 l 1
 457 1605 l 1
 457 1217 l 1
 668 1217 l 1
 668 1605 l 1
 1044 1605 l 1
 1044 1217 l 1
 1179 1217 l 1
 1179 958 l 1
 1044 958 l 1
 1044 361 l 2
 1044 321 1069 300 1122 300 c 0xb8
 1154 300 1183 300 1215 304 c 1
 1215 7 l 1x78
 1149 -14 1060 -13 990 -13 c 0
 698 -13 668 234 668 469 c 2
 668 958 l 1
 457 958 l 1
 457 361 l 2
 457 321 483 300 536 300 c 0xb8
 568 300 596 300 628 304 c 1
 628 7 l 1x78
 562 -14 473 -13 403 -13 c 0xb8
EndSplineSet
EndChar

StartChar: two
Encoding: 50 50 368
Width: 1069
VWidth: 0
GlyphClass: 2
Flags: W
HStem: 0 303<528 978>
VStem: 73 379<1066 1332.18> 648 378<1094.49 1346.27>
LayerCount: 2
UndoRedoHistory
Layer: 1
Undoes
EndUndoes
Redoes
EndRedoes
EndUndoRedoHistory
Fore
SplineSet
83 0 m 1
 83 303 l 1
 467 886 l 2
 538 993 648 1120 648 1250 c 0
 648 1341 591 1374 530 1357 c 0
 467 1339 452 1285 452 1066 c 1
 73 1066 l 1
 73 1163 l 2
 73 1455 211 1688 549 1688 c 0
 845 1688 1026 1521 1026 1244 c 0
 1026 1034 893 873 785 704 c 2
 528 303 l 1
 978 303 l 1
 978 0 l 1
 83 0 l 1
EndSplineSet
EndChar

StartChar: uc_main_stem
Encoding: 495 -1 372
Width: 0
VWidth: 0
GlyphClass: 2
Flags: W
HStem: 0 21G<81 493>
VStem: 81 412<0 1626>
LayerCount: 2
UndoRedoHistory
Layer: 1
Undoes
EndUndoes
Redoes
EndRedoes
EndUndoRedoHistory
Fore
SplineSet
81 0 m 1
 81 1626 l 1
 493 1626 l 1
 493 0 l 1
 81 0 l 1
EndSplineSet
EndChar

StartChar: uc_part_stem
Encoding: 496 -1 373
Width: 0
VWidth: 0
GlyphClass: 2
Flags: W
VStem: 81 412<362 1626>
LayerCount: 2
UndoRedoHistory
Layer: 1
Undoes
EndUndoes
Redoes
EndRedoes
EndUndoRedoHistory
Fore
SplineSet
81 362 m 1
 81 1626 l 1
 493 1626 l 1
 493 362 l 1
 81 362 l 1
EndSplineSet
EndChar

StartChar: underscore
Encoding: 95 95 379
Width: 712
VWidth: 0
GlyphClass: 2
Flags: W
HStem: -278 243<-28.5 740.5>
LayerCount: 2
UndoRedoHistory
Layer: 1
Undoes
EndUndoes
Redoes
EndRedoes
EndUndoRedoHistory
Fore
SplineSet
-28.5 -278 m 1
 -28.5 -35 l 1
 740.5 -35 l 1
 740.5 -278 l 1
 -28.5 -278 l 1
EndSplineSet
EndChar

StartChar: uni00AD
Encoding: 173 173 382
Width: 781
VWidth: 0
GlyphClass: 2
Flags: W
HStem: 383 286<138 664>
VStem: 138 526<383 669>
LayerCount: 2
UndoRedoHistory
Layer: 1
Undoes
EndUndoes
Redoes
EndRedoes
EndUndoRedoHistory
Fore
SplineSet
664 669 m 1
 664 383 l 1
 138 383 l 1
 138 669 l 1
 664 669 l 1
EndSplineSet
EndChar

StartChar: uni00B2
Encoding: 502 178 383
Width: 599
VWidth: 0
GlyphClass: 2
Flags: W
HStem: 524 162<292 542>
VStem: 304 232<927.177 1112.35>
LayerCount: 2
UndoRedoHistory
Layer: 1
Undoes
EndUndoes
Redoes
EndRedoes
EndUndoRedoHistory
Fore
SplineSet
51 524 m 1
 51 676 l 1
 88 725 137 731 249 910 c 0
 289 973 304 1015 304 1050 c 1
 304 1050 325 1115 288 1115 c 0
 266 1115 284 1052 284 1052 c 1
 50 1052 l 1
 50 1186 139 1277 289 1277 c 0
 437 1277 536 1194 536 1049 c 0
 536 989 493 913 427 826 c 1
 339 704 343 754 292 686 c 1
 542 686 l 1
 542 524 l 1
 51 524 l 1
EndSplineSet
EndChar

StartChar: uni00B3
Encoding: 503 179 384
Width: 769
VWidth: 0
GlyphClass: 2
Flags: W
VStem: 135 237<773.52 833 1136 1194.81> 388 238<774.78 832 1055.49 1198.58>
LayerCount: 2
UndoRedoHistory
Layer: 1
Undoes
EndUndoes
Redoes
EndRedoes
EndUndoRedoHistory
Fore
SplineSet
379 608 m 0
 223 608 135 699 135 833 c 1
 372 833 l 1
 372 833 356 770 378 770 c 0
 410 770 388 839 388 832 c 1
 388 924 369 898 284 890 c 1
 284 1062 l 1
 365 1049 388 1043 388 1133 c 0
 388 1136 408 1200 374 1200 c 0
 355 1200 372 1136 372 1136 c 1
 135 1136 l 1
 135 1268 222 1361 374 1361 c 0
 526 1361 626 1286 626 1130 c 0
 626 1045 594 1003 518 975 c 1
 594 951 626 920 626 832 c 0
 626 687 529 608 379 608 c 0
EndSplineSet
EndChar

StartChar: uni00B9
Encoding: 504 185 385
Width: 522
VWidth: 0
GlyphClass: 2
Flags: W
VStem: 69 326<1025.58 1209.98> 160 235<607 1025>
LayerCount: 2
UndoRedoHistory
Layer: 1
Undoes
EndUndoes
Redoes
EndRedoes
EndUndoRedoHistory
Fore
SplineSet
160 607 m 1x40
 160 1003 l 1x40
 183 1019 51 1034 69 1038 c 1
 69 1186 l 1x80
 174 1243 251 1298 319 1370 c 1
 395 1370 l 1
 395 607 l 1
 160 607 l 1x40
EndSplineSet
EndChar

StartChar: uni0237
Encoding: 546 567 427
Width: 668
VWidth: 0
GlyphClass: 2
Flags: W
HStem: -276 285<93.1112 395.5>
VStem: 227 375<17.335 1217>
LayerCount: 2
UndoRedoHistory
Layer: 1
Undoes
EndUndoes
Redoes
EndRedoes
EndUndoRedoHistory
Fore
SplineSet
291 -276 m 0
 218 -276 154 -262 91 -245 c 1
 91 29 l 1
 118 19 149 9 183 9 c 0
 209 9 227 35 227 78 c 2
 227 1217 l 1
 602 1217 l 1
 602 52 l 2
 602 -136 500 -276 291 -276 c 0
EndSplineSet
EndChar

StartChar: uni030F
Encoding: 547 783 428
Width: 1011
VWidth: 0
GlyphClass: 2
Flags: W
HStem: 1264 448<330 440 651 757>
LayerCount: 2
UndoRedoHistory
Layer: 1
Undoes
EndUndoes
Redoes
EndRedoes
EndUndoRedoHistory
Fore
SplineSet
637 1264 m 1
 440 1712 l 1
 743 1712 l 1
 879 1264 l 1
 637 1264 l 1
316 1264 m 1
 120 1712 l 1
 426 1712 l 1
 561 1264 l 1
 316 1264 l 1
EndSplineSet
EndChar

StartChar: uni0311
Encoding: 548 785 429
Width: 651
VWidth: 0
GlyphClass: 2
Flags: W
HStem: 1445 114<265.433 346.567>
VStem: 87 179<1344 1440.84> 346 179<1344 1440.84>
LayerCount: 2
UndoRedoHistory
Layer: 1
Undoes
EndUndoes
Redoes
EndRedoes
EndUndoRedoHistory
Fore
SplineSet
266 1344 m 1
 87 1344 l 1
 83 1450 159 1559 306 1559 c 0
 453 1559 529 1450 525 1344 c 1
 346 1344 l 1
 354 1353 357 1445 306 1445 c 0
 255 1445 258 1353 266 1344 c 1
EndSplineSet
EndChar

StartChar: uni0326
Encoding: 549 806 430
Width: 457
VWidth: 0
GlyphClass: 2
Flags: W
HStem: -699 111<101 184.564> -408 341<47 241>
VStem: 47 344.665<-403.198 -67> 241 150.665<-531.303 -408>
LayerCount: 2
UndoRedoHistory
Layer: 1
Undoes
EndUndoes
Redoes
EndRedoes
EndUndoRedoHistory
Fore
SplineSet
101 -699 m 1xe0
 86 -588 l 1
 158 -572 241 -538 241 -408 c 1xd0
 47 -408 l 1
 47 -67 l 1
 392 -67 l 1
 391.665 -353 l 2
 391 -575 294.384 -697.421 101 -699 c 1xe0
EndSplineSet
EndChar

StartChar: uni0409
Encoding: 169 1033 438
Width: 1805
VWidth: 0
GlyphClass: 2
Flags: W
HStem: 0 267<1004 1338.75> 0 286<20 169.935> 2 21<796 1208> 448 15.2463<205 617> 671 283<1004 1342.44> 1333 295<418 1000>
VStem: 205 412<448 1628.5> 796 412<2 1628> 1383 380<305.144 626.385>
LayerCount: 2
UndoRedoHistory
Layer: 1
Undoes
EndUndoes
Redoes
EndRedoes
EndUndoRedoHistory
Fore
SplineSet
418 1333 m 1x1f80
 418 1628 l 1
 1000 1628 l 1
 1000 1333 l 1
 418 1333 l 1x1f80
20 0 m 1x5f80
 20 286 l 1
 152 283 205 329 205 448 c 1
 617 448 l 1
 617 156 541 0 221 0 c 2
 20 0 l 1x5f80
EndSplineSet
Refer: 210 -1 N 1 0 0 1 567 0 2
Refer: 372 -1 N 1 0 0 0.726012 124 448 2
Refer: 372 -1 N 1 0 0 1 715 2 2
EndChar

StartChar: uni040A
Encoding: 170 1034 439
Width: 1668
VWidth: 0
GlyphClass: 2
Flags: W
HStem: 0 267<886 1220.75> 2 21<88 500 678 1090> 671 283<886 1224.44> 671 295<300 882>
VStem: 88 412<2 1628> 678 412<2 1628> 1265 380<305.144 626.385>
LayerCount: 2
UndoRedoHistory
Layer: 0
Undoes
EndUndoes
Redoes
EndRedoes
EndUndoRedoHistory
UndoRedoHistory
Layer: 1
Undoes
EndUndoes
Redoes
EndRedoes
EndUndoRedoHistory
Fore
SplineSet
300 671 m 1x1e
 300 966 l 1
 882 966 l 1
 882 671 l 1
 300 671 l 1x1e
EndSplineSet
Refer: 210 -1 N 1 0 0 1 449 0 2
Refer: 372 -1 N 1 0 0 1 597 2 2
Refer: 372 -1 N 1 0 0 1 7 2 2
EndChar

StartChar: uni040F
Encoding: 175 1039 443
Width: 1176
VWidth: 0
GlyphClass: 2
Flags: W
HStem: 0 21<88 500 676 1088> 0 295<308 881>
VStem: 88 412<0 1626> 676 412<0 1626>
LayerCount: 2
UndoRedoHistory
Layer: 1
Undoes
EndUndoes
Redoes
EndRedoes
EndUndoRedoHistory
Fore
SplineSet
308 0 m 1xb0
 308 295 l 1
 881 295 l 1x70
 881 0 l 1
 308 0 l 1xb0
EndSplineSet
Refer: 372 -1 N 1 0 0 1 7 0 2
Refer: 372 -1 N 1 0 0 1 595 0 2
EndChar

StartChar: uni0413
Encoding: 179 1043 446
Width: 911
VWidth: 0
GlyphClass: 2
Flags: W
HStem: 0 21<88 500> 1321 305<301 900>
VStem: 88 412<0 1626>
LayerCount: 2
UndoRedoHistory
Layer: 1
Undoes
EndUndoes
Redoes
EndRedoes
EndUndoRedoHistory
Fore
SplineSet
900 1321 m 1
 301 1321 l 1
 301 1626 l 1
 900 1626 l 1
 900 1321 l 1
EndSplineSet
Refer: 372 -1 N 1 0 0 1 7 0 2
EndChar

StartChar: uni0418
Encoding: 184 1048 448
Width: 1106
VWidth: 0
GlyphClass: 2
Flags: W
HStem: 0 21G<88 377.666 664 1018>
VStem: 88 341<962 1626> 664 354<0 767>
LayerCount: 2
UndoRedoHistory
Layer: 1
Undoes
EndUndoes
Redoes
EndRedoes
EndUndoRedoHistory
Fore
SplineSet
1018 0 m 1
 664 0 l 1
 664 767 l 1
 370 0 l 1
 88 0 l 1
 88 1626 l 1
 429 1626 l 1
 429 962 l 1
 725 1626 l 1
 1018 1626 l 1
 1018 0 l 1
EndSplineSet
EndChar

StartChar: uni041F
Encoding: 191 1055 454
Width: 1176
VWidth: 0
GlyphClass: 2
Flags: W
HStem: 0 21<88 500 676 1088> 1331 295<308 881>
VStem: 88 412<0 1626> 676 412<0 1626>
LayerCount: 2
UndoRedoHistory
Layer: 1
Undoes
EndUndoes
Redoes
EndRedoes
EndUndoRedoHistory
Fore
SplineSet
308 1331 m 1
 308 1626 l 1
 881 1626 l 1
 881 1331 l 1
 308 1331 l 1
EndSplineSet
Refer: 372 -1 N 1 0 0 1 595 0 2
Refer: 372 -1 N 1 0 0 1 7 0 2
EndChar

StartChar: uni0442
Encoding: 226 1090 464
Width: 917
VWidth: 0
GlyphClass: 2
Flags: W
HStem: 0 21<267 639> 968 248<76 841>
VStem: 267 372<0 1216>
LayerCount: 2
UndoRedoHistory
Layer: 1
Undoes
EndUndoes
Redoes
EndRedoes
EndUndoRedoHistory
Fore
SplineSet
76 968 m 1
 76 1216 l 1
 841 1216 l 1
 841 968 l 1
 76 968 l 1
EndSplineSet
Refer: 282 -1 N 1 0 0 1 190 0 2
EndChar

StartChar: uni0452
Encoding: 242 1106 468
Width: 1039
VWidth: 0
GlyphClass: 2
Flags: W
HStem: -338 172<349 519.293> 0 21<76 448> 1357 117<-32.0879 896.912>
VStem: 76 372<0 1626> 595 372<-81.4249 210 210 1023.8>
LayerCount: 2
UndoRedoHistory
Layer: 0
Undoes
EndUndoes
Redoes
EndRedoes
EndUndoRedoHistory
UndoRedoHistory
Layer: 1
Undoes
EndUndoes
Redoes
EndRedoes
EndUndoRedoHistory
Fore
SplineSet
595 210 m 1
 967 210 l 1
 967 -246 813 -338 390 -338 c 2
 349 -338 l 1
 349 -166 l 1
 391 -166 l 2
 588 -166 595 -0.0703125 595 210 c 1
-32.087890625 1474 m 1
 896.912109375 1474 l 1
 896.912109375 1357 l 1
 -32.087890625 1357 l 1
 -32.087890625 1474 l 1
EndSplineSet
Refer: 281 -1 N 1 0 0 0.83119 11 210 2
Refer: 277 -1 N 1 0 0 1 1 0 2
EndChar

StartChar: uni0459
Encoding: 249 1113 474
Width: 1499
VWidth: 0
GlyphClass: 2
Flags: W
HStem: 0 21<76 448> 2 21<594 966> 2 211<765 1129.32> 495 220<765 1123.66> 987 231<263 785>
VStem: 76 372<0 1216> 594 372<2 1218> 1163 338<251.994 455.15>
LayerCount: 2
UndoRedoHistory
Layer: 1
Undoes
EndUndoes
Redoes
EndRedoes
EndUndoRedoHistory
Fore
SplineSet
785 1218 m 1x1f
 785 989 l 1
 263 987 l 1
 263 1218 l 1
 785 1218 l 1x1f
EndSplineSet
Refer: 282 -1 N 1 0 0 1 -1 0 2
Refer: 282 -1 N 1 0 0 1 517 2 2
Refer: 209 -1 N 1 0 0 1 500 2 2
EndChar

StartChar: uni045A
Encoding: 250 1114 475
Width: 1499
VWidth: 0
GlyphClass: 2
Flags: W
HStem: 0 21<76 448> 2 21<594 966> 2 211<765 1129.32> 495 220<765 1123.66> 495 230<263 765>
VStem: 76 372<0 1216> 594 372<2 1218> 1163 338<251.994 455.15>
LayerCount: 2
UndoRedoHistory
Layer: 1
Undoes
EndUndoes
Redoes
EndRedoes
EndUndoRedoHistory
Fore
SplineSet
765 725 m 1x0f
 765 495 l 1x17
 263 495 l 1
 263 725 l 1
 765 725 l 1x0f
EndSplineSet
Refer: 282 -1 N 1 0 0 1 -1 0 2
Refer: 282 -1 N 1 0 0 1 517 2 2
Refer: 209 -1 N 1 0 0 1 500 2 2
EndChar

StartChar: uni045F
Encoding: 255 1119 479
Width: 1043
VWidth: 0
GlyphClass: 2
Flags: W
HStem: 0 21<76 448 595 967> 0 248<259 788>
VStem: 76 372<0 1216> 595 372<0 1216>
LayerCount: 2
UndoRedoHistory
Layer: 1
Undoes
EndUndoes
Redoes
EndRedoes
EndUndoRedoHistory
Fore
SplineSet
259 0 m 1xb0
 259 248 l 1
 788 248 l 1x70
 788 0 l 1
 259 0 l 1xb0
EndSplineSet
Refer: 282 -1 N 1 0 0 1 518 0 2
Refer: 282 -1 N 1 0 0 1 -1 0 2
EndChar

StartChar: uni2074
Encoding: 565 8308 495
Width: 782
VWidth: 0
GlyphClass: 2
Flags: W
HStem: 748 165<581 698>
VStem: 348 233<522 748>
LayerCount: 2
UndoRedoHistory
Layer: 1
Undoes
EndUndoes
Redoes
EndRedoes
EndUndoRedoHistory
Fore
SplineSet
319 913 m 1
 348 898 l 1
 348 913 l 1
 319 913 l 1
348 522 m 1
 348 748 l 1
 76 748 l 1
 76 903 l 1
 412 1370 l 1
 581 1370 l 1
 581 913 l 1
 698 913 l 1
 698 748 l 1
 581 748 l 1
 581 522 l 1
 348 522 l 1
EndSplineSet
EndChar

StartChar: uniFB00
Encoding: 566 64256 497
Width: 1250
VWidth: 0
GlyphClass: 2
Flags: W
HStem: 0 21G<112 490 718 1095> 958 259<80 112 490 718 1095 1230> 1303 291<492.775 630 1097.78 1236>
VStem: 80 32<1202.43 1217> 112 378<0 958 1217 1217 1217.57 1293.81> 718 377<0 958 1217 1293.81>
LayerCount: 2
UndoRedoHistory
Layer: 1
Undoes
EndUndoes
Redoes
EndRedoes
EndUndoRedoHistory
Fore
SplineSet
112 0 m 1xec
 112 958 l 1xec
 80 958 l 1
 80 1217 l 1
 112 1217 l 1xf4
 112 1230 114 1190 114 1203 c 0
 121 1427 178 1594 404 1594 c 0
 498.94105338 1594 617.146640838 1580.36216968 630 1580.39062619 c 1
 630 1298 l 1
 630 1298 565 1303 545 1303 c 0
 524 1303 490 1308 490 1225 c 2
 490 1217 l 1
 718 1217 l 1
 718 1217 719 1190 719 1203 c 0
 727 1427 784 1594 1009 1594 c 0
 1105.46993342 1594 1223.88711966 1580.18135934 1236 1580.39298791 c 1
 1236 1298 l 1
 1236 1298 1170 1303 1151 1303 c 0
 1129 1303 1095 1308 1095 1225 c 2
 1095 1217 l 1
 1230 1217 l 1
 1230 958 l 1
 1095 958 l 1
 1095 0 l 1
 718 0 l 1
 718 958 l 1
 490 958 l 1
 490 0 l 1
 112 0 l 1xec
630 1580.39062619 m 1
 630 1581 l 1
 631.564945276 1580.58268126 631.497188074 1580.39394087 630 1580.39062619 c 1
1236 1580.39298791 m 1
 1236 1581 l 1
 1237.37776572 1580.60635265 1237.32216777 1580.41608799 1236 1580.39298791 c 1
EndSplineSet
EndChar

StartChar: uniFB01
Encoding: 567 64257 498
Width: 1179
VWidth: 0
GlyphClass: 2
Flags: W
HStem: 0 21G<112 490 726 1103> 958 259<80 112 490 726> 1256 337<726 1103> 1303 277.391<492.775 630>
VStem: 80 32<1202.43 1217> 112 378<0 958 1217 1217 1217.57 1293.81> 726 377<0 958 1256 1593>
LayerCount: 2
UndoRedoHistory
Layer: 1
Undoes
EndUndoes
Redoes
EndRedoes
EndUndoRedoHistory
Fore
SplineSet
726 1256 m 1xe2
 726 1593 l 1
 1103 1593 l 1
 1103 1256 l 1
 726 1256 l 1xe2
112 0 m 1xd6
 112 958 l 1xd6
 80 958 l 1
 80 1217 l 1
 112 1217 l 1xda
 112 1230 114 1190 114 1203 c 0
 121 1427 178 1594 404 1594 c 0
 498.94105338 1594 617.146640838 1580.36216968 630 1580.39062619 c 1
 630 1298 l 1
 630 1298 565 1303 545 1303 c 0
 524 1303 490 1308 490 1225 c 2
 490 1217 l 1
 1103 1217 l 1
 1103 0 l 1
 726 0 l 1
 726 958 l 1
 490 958 l 1
 490 0 l 1
 112 0 l 1xd6
630 1580.39062619 m 1
 630 1581 l 1
 631.564945276 1580.58268126 631.497188074 1580.39394087 630 1580.39062619 c 1
EndSplineSet
EndChar

StartChar: uniFB02
Encoding: 568 64258 499
Width: 1152
VWidth: 0
GlyphClass: 2
Flags: W
HStem: 0 21G<112 490 707 1085> 958 259<80 112 490 626> 1301 293<403 707>
VStem: 80 32<1186.43 1217> 112 378<0 958 1217 1295.57> 707 378<0 1299>
LayerCount: 2
UndoRedoHistory
Layer: 1
Undoes
EndUndoes
Redoes
EndRedoes
EndUndoRedoHistory
Fore
SplineSet
112 0 m 1xec
 112 958 l 1xec
 80 958 l 1
 80 1217 l 1
 112 1217 l 1xf4
 112 1217 114 1174 114 1187 c 0
 121 1355 133 1594 403 1594 c 0
 517 1594 723 1595 1085 1580 c 1
 1085 0 l 1
 707 0 l 1
 707 1299 l 1
 632 1302 546 1301 517 1301 c 0
 501 1301 490 1282 490 1225 c 2
 490 1217 l 1
 626 1217 l 1
 626 958 l 1
 490 958 l 1
 490 0 l 1
 112 0 l 1xec
EndSplineSet
EndChar

StartChar: uniFB03
Encoding: 569 64259 500
Width: 1814
VWidth: 0
GlyphClass: 2
Flags: W
HStem: 0 21G<112 490 718 1095 1362 1739> 958 259<80 112 490 718 1095 1362> 1256 337<1362 1739> 1303 291<492.775 630 1097.78 1236>
VStem: 80 32<1202.43 1217> 112 378<0 958 1217 1217 1217.57 1293.81> 718 377<0 958 1217 1293.81> 1362 377<0 958 1256 1593>
LayerCount: 2
UndoRedoHistory
Layer: 1
Undoes
EndUndoes
Redoes
EndRedoes
EndUndoRedoHistory
Fore
SplineSet
1362 1256 m 1xe3
 1362 1593 l 1
 1739 1593 l 1
 1739 1256 l 1
 1362 1256 l 1xe3
112 0 m 1xd7
 112 958 l 1xd7
 80 958 l 1
 80 1217 l 1
 112 1217 l 1xdb
 112 1230 114 1190 114 1203 c 0
 121 1427 178 1594 404 1594 c 0
 498.94105338 1594 617.146640838 1580.36216968 630 1580.39062619 c 1
 630 1298 l 1
 630 1298 565 1303 545 1303 c 0
 524 1303 490 1308 490 1225 c 2
 490 1217 l 1
 718 1217 l 1
 718 1217 719 1190 719 1203 c 0
 727 1427 784 1594 1009 1594 c 0
 1105.46993342 1594 1223.88711966 1580.18135934 1236 1580.39298791 c 1
 1236 1298 l 1
 1236 1298 1170 1303 1151 1303 c 0
 1129 1303 1095 1308 1095 1225 c 2
 1095 1217 l 1
 1739 1217 l 1
 1739 0 l 1
 1362 0 l 1
 1362 958 l 1
 1095 958 l 1
 1095 0 l 1
 718 0 l 1
 718 958 l 1
 490 958 l 1
 490 0 l 1
 112 0 l 1xd7
630 1580.39062619 m 1
 630 1581 l 1
 631.564945276 1580.58268126 631.497188074 1580.39394087 630 1580.39062619 c 1
1236 1580.39298791 m 1
 1236 1581 l 1
 1237.37776572 1580.60635265 1237.32216777 1580.41608799 1236 1580.39298791 c 1
EndSplineSet
EndChar

StartChar: uniFB04
Encoding: 570 64260 501
Width: 1809
VWidth: 0
GlyphClass: 2
Flags: W
HStem: 0 21G<112 490 771 1148 1366 1743> 958 259<80 112 490 771 1148 1261> 1301 293<492.311 630 1153.02 1360.26>
VStem: 80 32<1202.43 1217> 112 378<0 958 1217 1217 1217.57 1293.81> 771 377<0 958 1217 1286.94> 1366 377<0 1300>
LayerCount: 2
UndoRedoHistory
Layer: 1
Undoes
EndUndoes
Redoes
EndRedoes
EndUndoRedoHistory
Fore
SplineSet
112 0 m 1xee
 112 958 l 1xee
 80 958 l 1
 80 1217 l 1
 112 1217 l 1xf6
 112 1230 114 1190 114 1203 c 0
 121 1427 178 1594 404 1594 c 0
 498.94105338 1594 617.146640838 1580.36216968 630 1580.39062619 c 1
 630 1298 l 1
 630 1298 565 1303 545 1303 c 0
 524 1303 490 1308 490 1225 c 2
 490 1217 l 1
 771 1217 l 1
 772 1187 l 1
 780 1355 796 1594 1088 1594 c 0
 1192 1594 1382 1596 1743 1566 c 1
 1743 0 l 1
 1366 0 l 1
 1366 1300 l 1
 1302 1302 1267 1301 1253 1301 c 0
 1183 1301 1148 1282 1148 1225 c 2
 1148 1217 l 1
 1261 1217 l 1
 1261 958 l 1
 1148 958 l 1
 1148 0 l 1
 771 0 l 1
 771 958 l 1
 490 958 l 1
 490 0 l 1
 112 0 l 1xee
630 1580.39062619 m 1
 630 1581 l 1
 631.564945276 1580.58268126 631.497188074 1580.39394087 630 1580.39062619 c 1
EndSplineSet
EndChar

StartChar: v
Encoding: 118 118 505
Width: 860
VWidth: 0
GlyphClass: 2
Flags: W
HStem: 0 21G<243.99 623.878>
LayerCount: 2
UndoRedoHistory
Layer: 1
Undoes
EndUndoes
Redoes
EndRedoes
EndUndoRedoHistory
Fore
SplineSet
248 0 m 1
 4 1217 l 1
 356 1217 l 1
 438 496 l 1
 503 1217 l 1
 856 1217 l 1
 620 0 l 1
 248 0 l 1
EndSplineSet
EndChar

StartChar: w
Encoding: 119 119 506
Width: 1189
VWidth: 0
GlyphClass: 2
Flags: W
HStem: 0 21G<184.223 503.224 677.303 1001.84>
VStem: 475 266<1089.77 1217>
LayerCount: 2
UndoRedoHistory
Layer: 1
Undoes
EndUndoes
Redoes
EndRedoes
EndUndoRedoHistory
Fore
SplineSet
187 0 m 1
 18 1217 l 1
 330 1217 l 1
 403 578 l 1
 475 1217 l 1
 741 1217 l 1
 795 557 l 1
 886 1217 l 1
 1172 1217 l 1
 999 0 l 1
 680 0 l 1
 598 608 l 1
 500 0 l 1
 187 0 l 1
EndSplineSet
EndChar

StartChar: x
Encoding: 120 120 511
Width: 883
VWidth: 0
GlyphClass: 2
Flags: W
HStem: 0 21G<-18 289.975 511.431 901>
LayerCount: 2
UndoRedoHistory
Layer: 1
Undoes
EndUndoes
Redoes
EndRedoes
EndUndoRedoHistory
Fore
SplineSet
520 0 m 1
 389.344171316 304.947193244 l 1
 283 0 l 1
 -18 0 l 1
 233.727156994 668.153123024 l 1
 -1 1216 l 1
 377 1216 l 1
 492.125698349 948.838074059 l 1
 588 1216 l 1
 858 1216 l 1
 637.55547898 611.352170917 l 1
 901 0 l 1
 520 0 l 1
EndSplineSet
EndChar

StartChar: y
Encoding: 121 121 512
Width: 933
VWidth: 0
GlyphClass: 2
Flags: W
HStem: -361 252<139 303.854>
LayerCount: 2
UndoRedoHistory
Layer: 1
Undoes
EndUndoes
Redoes
EndRedoes
EndUndoRedoHistory
Fore
SplineSet
139 -361 m 1
 139 -109 l 1
 250 -109 323 -99 323 -5 c 0
 323 26 289 153 278 190 c 2
 -14 1216 l 1
 331 1216 l 1
 478 568 l 1
 577 1216 l 1
 922 1216 l 1
 644 -65 l 2
 592 -303 390 -364 194 -361 c 1
 139 -361 l 1
EndSplineSet
EndChar

StartChar: yen
Encoding: 581 165 516
Width: 1059
VWidth: 0
GlyphClass: 2
Flags: W
HStem: 0 21G<362 673> 247 221<193 362 673 843> 518 219<193 308 721 843>
VStem: 193 650<247 468 518 737> 362 311<0 247 468 518>
LayerCount: 2
UndoRedoHistory
Layer: 1
Undoes
EndUndoes
Redoes
EndRedoes
EndUndoRedoHistory
Fore
SplineSet
362 0 m 1xe8
 362 247 l 1xe8
 193 247 l 1
 193 468 l 1xf0
 362 468 l 1
 362 518 l 1xe8
 193 518 l 1
 193 737 l 1
 308 737 l 1
 181 1206 189 1236 62 1707 c 1
 377 1707 l 1
 515.57554994 961.05076309 l 1
 538.339966991 1094.2336811 644.103312803 1602.22228793 660.577532734 1707 c 1
 974 1707 l 1
 721 737 l 1
 843 737 l 1
 843 518 l 1xf0
 673 518 l 1
 673 468 l 1xe8
 843 468 l 1
 843 247 l 1xf0
 673 247 l 1
 673 0 l 1
 362 0 l 1xe8
660.577532734 1707 m 1
 656 1707 l 1
 663.457514966 1733.7861762 664.313555172 1730.76148218 660.577532734 1707 c 1
EndSplineSet
EndChar

StartChar: z
Encoding: 122 122 518
Width: 778
VWidth: 0
GlyphClass: 2
Flags: W
HStem: 0 271<440 732> 946 270<77 349>
VStem: 56 676<0 238>
LayerCount: 2
UndoRedoHistory
Layer: 1
Undoes
EndUndoes
Redoes
EndRedoes
EndUndoRedoHistory
Fore
SplineSet
56 0 m 1
 56 238 l 1
 349 946 l 1
 77 946 l 1
 77 1216 l 1
 730 1216 l 1
 730 984 l 1
 440 271 l 1
 732 271 l 1
 732 0 l 1
 56 0 l 1
EndSplineSet
EndChar

StartChar: zero
Encoding: 48 48 522
Width: 1059
VWidth: 0
GlyphClass: 2
Flags: W
HStem: -35 21G<376 678.5>
VStem: 62 395<322.788 1329.91> 602 392<324.336 1328.72>
LayerCount: 2
UndoRedoHistory
Layer: 1
Undoes
EndUndoes
Redoes
EndRedoes
EndUndoRedoHistory
Fore
SplineSet
529 -35 m 0
 223 -35 62 207 62 487 c 2
 62 1162 l 2
 62 1451 209 1686 529 1686 c 0
 847 1686 994 1449 994 1162 c 2
 994 487 l 2
 994 211 828 -35 529 -35 c 0
529 312 m 0
 605 312 602 467 602 500 c 2
 602 1148 l 2
 602 1185 613 1337 529 1337 c 0
 443 1337 457 1185 457 1148 c 2
 457 500 l 2
 457 468 454 312 529 312 c 0
EndSplineSet
EndChar

StartChar: gravecomb
Encoding: 586 768 523
Width: 0
VWidth: 0
Flags: W
HStem: 1281 415<14 130>
VStem: -254 511
LayerCount: 2
UndoRedoHistory
Layer: 0
Undoes
EndUndoes
Redoes
EndRedoes
EndUndoRedoHistory
UndoRedoHistory
Layer: 1
Undoes
EndUndoes
Redoes
EndRedoes
EndUndoRedoHistory
Fore
SplineSet
14 1281 m 1
 -254 1696 l 1
 130 1696 l 1
 257 1281 l 1
 14 1281 l 1
EndSplineSet
EndChar

StartChar: acutecomb
Encoding: 587 769 524
Width: 0
VWidth: 0
Flags: W
HStem: 1281 415<-89 26>
VStem: -217 511
LayerCount: 2
UndoRedoHistory
Layer: 0
Undoes
EndUndoes
Redoes
EndRedoes
EndUndoRedoHistory
UndoRedoHistory
Layer: 1
Undoes
EndUndoes
Redoes
EndRedoes
EndUndoRedoHistory
Fore
SplineSet
-217 1281 m 1
 -89 1696 l 1
 294 1696 l 1
 26 1281 l 1
 -217 1281 l 1
EndSplineSet
EndChar

StartChar: circumflexcomb
Encoding: 588 770 525
Width: 0
VWidth: 0
Flags: W
HStem: 1247 405<-137 -66 89 153>
LayerCount: 2
UndoRedoHistory
Layer: 0
Undoes
EndUndoes
Redoes
EndRedoes
EndUndoRedoHistory
UndoRedoHistory
Layer: 1
Undoes
EndUndoes
Redoes
EndRedoes
EndUndoRedoHistory
Fore
SplineSet
-336 1247 m 1
 -137 1652 l 1
 153 1652 l 1
 360 1247 l 1
 89 1247 l 1
 11 1491 l 1
 -66 1247 l 1
 -336 1247 l 1
EndSplineSet
EndChar

StartChar: tildecomb
Encoding: 589 771 526
Width: 0
VWidth: 0
Flags: W
VStem: -317.503 171<1309 1389.27> 184.497 155<1537.51 1610>
LayerCount: 2
UndoRedoHistory
Layer: 0
Undoes
EndUndoes
Redoes
EndRedoes
EndUndoRedoHistory
UndoRedoHistory
Layer: 1
Undoes
EndUndoes
Redoes
EndRedoes
EndUndoRedoHistory
Fore
SplineSet
210.497070312 1299 m 0
 110.497070312 1299 -4.5029296875 1393 -106.502929688 1393 c 0
 -160.502929688 1393 -149.502929688 1324 -146.502929688 1309 c 1
 -317.502929688 1309 l 1
 -318.502929688 1488 -292.502929688 1622 -151.502929688 1622 c 0
 -4.5029296875 1622 104.497070312 1537 164.497070312 1537 c 0
 196.497070312 1537 187.497070312 1599 184.497070312 1610 c 1
 339.497070312 1610 l 1
 340.497070312 1474 324.497070312 1299 210.497070312 1299 c 0
EndSplineSet
EndChar

StartChar: macroncomb
Encoding: 590 772 527
Width: 0
VWidth: 0
Flags: W
HStem: 1341 204<-237 245>
VStem: -237 482<1341 1545>
LayerCount: 2
UndoRedoHistory
Layer: 0
Undoes
EndUndoes
Redoes
EndRedoes
EndUndoRedoHistory
UndoRedoHistory
Layer: 1
Undoes
EndUndoes
Redoes
EndRedoes
EndUndoRedoHistory
Fore
SplineSet
-237 1341 m 1
 -237 1545 l 1
 245 1545 l 1
 245 1341 l 1
 -237 1341 l 1
EndSplineSet
EndChar

StartChar: brevecomb
Encoding: 591 774 528
Width: 0
VWidth: 0
Flags: W
HStem: 1344 117.872<-86.4609 46.8369>
VStem: -279.1 180.1<1472.76 1559> 60 179.101<1472.76 1559>
LayerCount: 2
UndoRedoHistory
Layer: 0
Undoes
EndUndoes
Redoes
EndRedoes
EndUndoRedoHistory
UndoRedoHistory
Layer: 1
Undoes
EndUndoes
Redoes
EndRedoes
EndUndoRedoHistory
Fore
SplineSet
-20 1344 m 0
 -164.534179688 1344 -279.099609375 1450.34179688 -279.099609375 1553.71386719 c 0
 -279.099609375 1555.4765625 -279.06640625 1557.23925781 -279 1559 c 1
 -99 1559 l 1
 -99 1493.87890625 -59.708984375 1461.87207031 -20.1904296875 1461.87207031 c 0
 19.7890625 1461.87207031 60 1494.62890625 60 1559 c 1
 239 1559 l 1
 239.067382812 1557.23925781 239.100585938 1555.4765625 239.100585938 1553.71386719 c 0
 239.100585938 1450.34179688 124.53515625 1344 -20 1344 c 0
EndSplineSet
EndChar

StartChar: uni0307
Encoding: 592 775 529
Width: 0
VWidth: 0
Flags: W
HStem: 1396 341<-148.5 196.5>
VStem: -148.5 345<1396 1737>
LayerCount: 2
UndoRedoHistory
Layer: 0
Undoes
EndUndoes
Redoes
EndRedoes
EndUndoRedoHistory
UndoRedoHistory
Layer: 1
Undoes
EndUndoes
Redoes
EndRedoes
EndUndoRedoHistory
Fore
SplineSet
-148.5 1396 m 1
 -148.5 1737 l 1
 196.5 1737 l 1
 196.5 1396 l 1
 -148.5 1396 l 1
EndSplineSet
EndChar

StartChar: diaeresiscomb
Encoding: 593 776 530
Width: 0
VWidth: 0
Flags: W
HStem: 1385 328<-378 -97 97 378>
VStem: -378 281<1385 1713> 97 281<1385 1713>
LayerCount: 2
UndoRedoHistory
Layer: 0
Undoes
EndUndoes
Redoes
EndRedoes
EndUndoRedoHistory
UndoRedoHistory
Layer: 1
Undoes
EndUndoes
Redoes
EndRedoes
EndUndoRedoHistory
Fore
SplineSet
-378 1385 m 1
 -378 1713 l 1
 -97 1713 l 1
 -97 1385 l 1
 -378 1385 l 1
97 1385 m 1
 97 1713 l 1
 378 1713 l 1
 378 1385 l 1
 97 1385 l 1
EndSplineSet
EndChar

StartChar: uni030A
Encoding: 594 778 531
Width: 0
VWidth: 0
Flags: W
HStem: 1354 129<-46.2224 28.2708> 1672 129<-49.2395 27.8863>
VStem: -249.5 193<1483.89 1671.54> 36.5 197<1483.83 1671.39>
LayerCount: 2
UndoRedoHistory
Layer: 0
Undoes
EndUndoes
Redoes
EndRedoes
EndUndoRedoHistory
UndoRedoHistory
Layer: 1
Undoes
EndUndoes
Redoes
EndRedoes
EndUndoRedoHistory
Fore
SplineSet
-8.5 1354 m 0
 -134.5 1354 -249.5 1427 -249.5 1578 c 0
 -249.5 1729 -134.5 1801 -8.5 1801 c 0
 116.5 1801 233.5 1728 233.5 1578 c 0
 233.5 1427 117.5 1354 -8.5 1354 c 0
-8.5 1483 m 0
 24.5 1483 36.5 1542 36.5 1577 c 0
 36.5 1610 24.5 1672 -8.5 1672 c 0
 -42.5 1672 -56.5 1616 -56.5 1580 c 0
 -56.5 1542 -43.5 1483 -8.5 1483 c 0
EndSplineSet
EndChar

StartChar: caroncomb
Encoding: 595 780 532
Width: 0
VWidth: 0
Flags: W
HStem: 1271 389<-182 -100 96 172>
LayerCount: 2
UndoRedoHistory
Layer: 0
Undoes
EndUndoes
Redoes
EndRedoes
EndUndoRedoHistory
UndoRedoHistory
Layer: 1
Undoes
EndUndoes
Redoes
EndRedoes
EndUndoRedoHistory
Fore
SplineSet
-182 1271 m 1
 -359 1660 l 1
 -100 1660 l 1
 -4 1443 l 1
 96 1660 l 1
 356 1660 l 1
 172 1271 l 1
 -182 1271 l 1
EndSplineSet
EndChar
